<?xml version="1.0" encoding="utf-8" standalone="no"?>
<!DOCTYPE svg PUBLIC "-//W3C//DTD SVG 1.1//EN"
  "http://www.w3.org/Graphics/SVG/1.1/DTD/svg11.dtd">
<!-- Created with matplotlib (http://matplotlib.org/) -->
<svg height="648pt" version="1.1" viewBox="0 0 648 648" width="648pt" xmlns="http://www.w3.org/2000/svg" xmlns:xlink="http://www.w3.org/1999/xlink">
 <defs>
  <style type="text/css">
*{stroke-linecap:butt;stroke-linejoin:round;}
  </style>
 </defs>
 <g id="figure_1">
  <g id="patch_1">
   <path d="M 0 648 
L 648 648 
L 648 0 
L 0 0 
z
" style="fill:#ffffff;"/>
  </g>
  <g id="axes_1">
   <g id="patch_2">
    <path d="M 81 518.4 
L 583.2 518.4 
L 583.2 77.76 
L 81 77.76 
z
" style="fill:#ffffff;"/>
   </g>
   <g id="matplotlib.axis_1">
    <g id="xtick_1">
     <g id="line2d_1">
      <path clip-path="url(#pc0abd200ac)" d="M 81 518.4 
L 81 77.76 
" style="fill:none;stroke:#b0b0b0;stroke-linecap:square;stroke-width:0.8;"/>
     </g>
     <g id="line2d_2">
      <defs>
       <path d="M 0 0 
L 0 3.5 
" id="m4116107b10" style="stroke:#000000;stroke-width:0.8;"/>
      </defs>
      <g>
       <use style="stroke:#000000;stroke-width:0.8;" x="81" xlink:href="#m4116107b10" y="518.4"/>
      </g>
     </g>
     <g id="text_1">
      <!-- 00 -->
      <defs>
       <path d="M 31.78125 66.40625 
Q 24.171875 66.40625 20.328125 58.90625 
Q 16.5 51.421875 16.5 36.375 
Q 16.5 21.390625 20.328125 13.890625 
Q 24.171875 6.390625 31.78125 6.390625 
Q 39.453125 6.390625 43.28125 13.890625 
Q 47.125 21.390625 47.125 36.375 
Q 47.125 51.421875 43.28125 58.90625 
Q 39.453125 66.40625 31.78125 66.40625 
z
M 31.78125 74.21875 
Q 44.046875 74.21875 50.515625 64.515625 
Q 56.984375 54.828125 56.984375 36.375 
Q 56.984375 17.96875 50.515625 8.265625 
Q 44.046875 -1.421875 31.78125 -1.421875 
Q 19.53125 -1.421875 13.0625 8.265625 
Q 6.59375 17.96875 6.59375 36.375 
Q 6.59375 54.828125 13.0625 64.515625 
Q 19.53125 74.21875 31.78125 74.21875 
z
" id="DejaVuSans-30"/>
      </defs>
      <g transform="translate(68.939983 538.34294)rotate(-30)scale(0.1 -0.1)">
       <use xlink:href="#DejaVuSans-30"/>
       <use x="63.623047" xlink:href="#DejaVuSans-30"/>
      </g>
     </g>
    </g>
    <g id="xtick_2">
     <g id="line2d_3">
      <path clip-path="url(#pc0abd200ac)" d="M 112.3875 518.4 
L 112.3875 77.76 
" style="fill:none;stroke:#b0b0b0;stroke-linecap:square;stroke-width:0.8;"/>
     </g>
     <g id="line2d_4">
      <g>
       <use style="stroke:#000000;stroke-width:0.8;" x="112.3875" xlink:href="#m4116107b10" y="518.4"/>
      </g>
     </g>
     <g id="text_2">
      <!-- 02 -->
      <defs>
       <path d="M 19.1875 8.296875 
L 53.609375 8.296875 
L 53.609375 0 
L 7.328125 0 
L 7.328125 8.296875 
Q 12.9375 14.109375 22.625 23.890625 
Q 32.328125 33.6875 34.8125 36.53125 
Q 39.546875 41.84375 41.421875 45.53125 
Q 43.3125 49.21875 43.3125 52.78125 
Q 43.3125 58.59375 39.234375 62.25 
Q 35.15625 65.921875 28.609375 65.921875 
Q 23.96875 65.921875 18.8125 64.3125 
Q 13.671875 62.703125 7.8125 59.421875 
L 7.8125 69.390625 
Q 13.765625 71.78125 18.9375 73 
Q 24.125 74.21875 28.421875 74.21875 
Q 39.75 74.21875 46.484375 68.546875 
Q 53.21875 62.890625 53.21875 53.421875 
Q 53.21875 48.921875 51.53125 44.890625 
Q 49.859375 40.875 45.40625 35.40625 
Q 44.1875 33.984375 37.640625 27.21875 
Q 31.109375 20.453125 19.1875 8.296875 
z
" id="DejaVuSans-32"/>
      </defs>
      <g transform="translate(100.327483 538.34294)rotate(-30)scale(0.1 -0.1)">
       <use xlink:href="#DejaVuSans-30"/>
       <use x="63.623047" xlink:href="#DejaVuSans-32"/>
      </g>
     </g>
    </g>
    <g id="xtick_3">
     <g id="line2d_5">
      <path clip-path="url(#pc0abd200ac)" d="M 143.775 518.4 
L 143.775 77.76 
" style="fill:none;stroke:#b0b0b0;stroke-linecap:square;stroke-width:0.8;"/>
     </g>
     <g id="line2d_6">
      <g>
       <use style="stroke:#000000;stroke-width:0.8;" x="143.775" xlink:href="#m4116107b10" y="518.4"/>
      </g>
     </g>
     <g id="text_3">
      <!-- 04 -->
      <defs>
       <path d="M 37.796875 64.3125 
L 12.890625 25.390625 
L 37.796875 25.390625 
z
M 35.203125 72.90625 
L 47.609375 72.90625 
L 47.609375 25.390625 
L 58.015625 25.390625 
L 58.015625 17.1875 
L 47.609375 17.1875 
L 47.609375 0 
L 37.796875 0 
L 37.796875 17.1875 
L 4.890625 17.1875 
L 4.890625 26.703125 
z
" id="DejaVuSans-34"/>
      </defs>
      <g transform="translate(131.714983 538.34294)rotate(-30)scale(0.1 -0.1)">
       <use xlink:href="#DejaVuSans-30"/>
       <use x="63.623047" xlink:href="#DejaVuSans-34"/>
      </g>
     </g>
    </g>
    <g id="xtick_4">
     <g id="line2d_7">
      <path clip-path="url(#pc0abd200ac)" d="M 175.1625 518.4 
L 175.1625 77.76 
" style="fill:none;stroke:#b0b0b0;stroke-linecap:square;stroke-width:0.8;"/>
     </g>
     <g id="line2d_8">
      <g>
       <use style="stroke:#000000;stroke-width:0.8;" x="175.1625" xlink:href="#m4116107b10" y="518.4"/>
      </g>
     </g>
     <g id="text_4">
      <!-- 06 -->
      <defs>
       <path d="M 33.015625 40.375 
Q 26.375 40.375 22.484375 35.828125 
Q 18.609375 31.296875 18.609375 23.390625 
Q 18.609375 15.53125 22.484375 10.953125 
Q 26.375 6.390625 33.015625 6.390625 
Q 39.65625 6.390625 43.53125 10.953125 
Q 47.40625 15.53125 47.40625 23.390625 
Q 47.40625 31.296875 43.53125 35.828125 
Q 39.65625 40.375 33.015625 40.375 
z
M 52.59375 71.296875 
L 52.59375 62.3125 
Q 48.875 64.0625 45.09375 64.984375 
Q 41.3125 65.921875 37.59375 65.921875 
Q 27.828125 65.921875 22.671875 59.328125 
Q 17.53125 52.734375 16.796875 39.40625 
Q 19.671875 43.65625 24.015625 45.921875 
Q 28.375 48.1875 33.59375 48.1875 
Q 44.578125 48.1875 50.953125 41.515625 
Q 57.328125 34.859375 57.328125 23.390625 
Q 57.328125 12.15625 50.6875 5.359375 
Q 44.046875 -1.421875 33.015625 -1.421875 
Q 20.359375 -1.421875 13.671875 8.265625 
Q 6.984375 17.96875 6.984375 36.375 
Q 6.984375 53.65625 15.1875 63.9375 
Q 23.390625 74.21875 37.203125 74.21875 
Q 40.921875 74.21875 44.703125 73.484375 
Q 48.484375 72.75 52.59375 71.296875 
z
" id="DejaVuSans-36"/>
      </defs>
      <g transform="translate(163.102483 538.34294)rotate(-30)scale(0.1 -0.1)">
       <use xlink:href="#DejaVuSans-30"/>
       <use x="63.623047" xlink:href="#DejaVuSans-36"/>
      </g>
     </g>
    </g>
    <g id="xtick_5">
     <g id="line2d_9">
      <path clip-path="url(#pc0abd200ac)" d="M 206.55 518.4 
L 206.55 77.76 
" style="fill:none;stroke:#b0b0b0;stroke-linecap:square;stroke-width:0.8;"/>
     </g>
     <g id="line2d_10">
      <g>
       <use style="stroke:#000000;stroke-width:0.8;" x="206.55" xlink:href="#m4116107b10" y="518.4"/>
      </g>
     </g>
     <g id="text_5">
      <!-- 08 -->
      <defs>
       <path d="M 31.78125 34.625 
Q 24.75 34.625 20.71875 30.859375 
Q 16.703125 27.09375 16.703125 20.515625 
Q 16.703125 13.921875 20.71875 10.15625 
Q 24.75 6.390625 31.78125 6.390625 
Q 38.8125 6.390625 42.859375 10.171875 
Q 46.921875 13.96875 46.921875 20.515625 
Q 46.921875 27.09375 42.890625 30.859375 
Q 38.875 34.625 31.78125 34.625 
z
M 21.921875 38.8125 
Q 15.578125 40.375 12.03125 44.71875 
Q 8.5 49.078125 8.5 55.328125 
Q 8.5 64.0625 14.71875 69.140625 
Q 20.953125 74.21875 31.78125 74.21875 
Q 42.671875 74.21875 48.875 69.140625 
Q 55.078125 64.0625 55.078125 55.328125 
Q 55.078125 49.078125 51.53125 44.71875 
Q 48 40.375 41.703125 38.8125 
Q 48.828125 37.15625 52.796875 32.3125 
Q 56.78125 27.484375 56.78125 20.515625 
Q 56.78125 9.90625 50.3125 4.234375 
Q 43.84375 -1.421875 31.78125 -1.421875 
Q 19.734375 -1.421875 13.25 4.234375 
Q 6.78125 9.90625 6.78125 20.515625 
Q 6.78125 27.484375 10.78125 32.3125 
Q 14.796875 37.15625 21.921875 38.8125 
z
M 18.3125 54.390625 
Q 18.3125 48.734375 21.84375 45.5625 
Q 25.390625 42.390625 31.78125 42.390625 
Q 38.140625 42.390625 41.71875 45.5625 
Q 45.3125 48.734375 45.3125 54.390625 
Q 45.3125 60.0625 41.71875 63.234375 
Q 38.140625 66.40625 31.78125 66.40625 
Q 25.390625 66.40625 21.84375 63.234375 
Q 18.3125 60.0625 18.3125 54.390625 
z
" id="DejaVuSans-38"/>
      </defs>
      <g transform="translate(194.489983 538.34294)rotate(-30)scale(0.1 -0.1)">
       <use xlink:href="#DejaVuSans-30"/>
       <use x="63.623047" xlink:href="#DejaVuSans-38"/>
      </g>
     </g>
    </g>
    <g id="xtick_6">
     <g id="line2d_11">
      <path clip-path="url(#pc0abd200ac)" d="M 237.9375 518.4 
L 237.9375 77.76 
" style="fill:none;stroke:#b0b0b0;stroke-linecap:square;stroke-width:0.8;"/>
     </g>
     <g id="line2d_12">
      <g>
       <use style="stroke:#000000;stroke-width:0.8;" x="237.9375" xlink:href="#m4116107b10" y="518.4"/>
      </g>
     </g>
     <g id="text_6">
      <!-- 10 -->
      <defs>
       <path d="M 12.40625 8.296875 
L 28.515625 8.296875 
L 28.515625 63.921875 
L 10.984375 60.40625 
L 10.984375 69.390625 
L 28.421875 72.90625 
L 38.28125 72.90625 
L 38.28125 8.296875 
L 54.390625 8.296875 
L 54.390625 0 
L 12.40625 0 
z
" id="DejaVuSans-31"/>
      </defs>
      <g transform="translate(225.877483 538.34294)rotate(-30)scale(0.1 -0.1)">
       <use xlink:href="#DejaVuSans-31"/>
       <use x="63.623047" xlink:href="#DejaVuSans-30"/>
      </g>
     </g>
    </g>
    <g id="xtick_7">
     <g id="line2d_13">
      <path clip-path="url(#pc0abd200ac)" d="M 269.325 518.4 
L 269.325 77.76 
" style="fill:none;stroke:#b0b0b0;stroke-linecap:square;stroke-width:0.8;"/>
     </g>
     <g id="line2d_14">
      <g>
       <use style="stroke:#000000;stroke-width:0.8;" x="269.325" xlink:href="#m4116107b10" y="518.4"/>
      </g>
     </g>
     <g id="text_7">
      <!-- 12 -->
      <g transform="translate(257.264983 538.34294)rotate(-30)scale(0.1 -0.1)">
       <use xlink:href="#DejaVuSans-31"/>
       <use x="63.623047" xlink:href="#DejaVuSans-32"/>
      </g>
     </g>
    </g>
    <g id="xtick_8">
     <g id="line2d_15">
      <path clip-path="url(#pc0abd200ac)" d="M 300.7125 518.4 
L 300.7125 77.76 
" style="fill:none;stroke:#b0b0b0;stroke-linecap:square;stroke-width:0.8;"/>
     </g>
     <g id="line2d_16">
      <g>
       <use style="stroke:#000000;stroke-width:0.8;" x="300.7125" xlink:href="#m4116107b10" y="518.4"/>
      </g>
     </g>
     <g id="text_8">
      <!-- 14 -->
      <g transform="translate(288.652483 538.34294)rotate(-30)scale(0.1 -0.1)">
       <use xlink:href="#DejaVuSans-31"/>
       <use x="63.623047" xlink:href="#DejaVuSans-34"/>
      </g>
     </g>
    </g>
    <g id="xtick_9">
     <g id="line2d_17">
      <path clip-path="url(#pc0abd200ac)" d="M 332.1 518.4 
L 332.1 77.76 
" style="fill:none;stroke:#b0b0b0;stroke-linecap:square;stroke-width:0.8;"/>
     </g>
     <g id="line2d_18">
      <g>
       <use style="stroke:#000000;stroke-width:0.8;" x="332.1" xlink:href="#m4116107b10" y="518.4"/>
      </g>
     </g>
     <g id="text_9">
      <!-- 16 -->
      <g transform="translate(320.039983 538.34294)rotate(-30)scale(0.1 -0.1)">
       <use xlink:href="#DejaVuSans-31"/>
       <use x="63.623047" xlink:href="#DejaVuSans-36"/>
      </g>
     </g>
    </g>
    <g id="xtick_10">
     <g id="line2d_19">
      <path clip-path="url(#pc0abd200ac)" d="M 363.4875 518.4 
L 363.4875 77.76 
" style="fill:none;stroke:#b0b0b0;stroke-linecap:square;stroke-width:0.8;"/>
     </g>
     <g id="line2d_20">
      <g>
       <use style="stroke:#000000;stroke-width:0.8;" x="363.4875" xlink:href="#m4116107b10" y="518.4"/>
      </g>
     </g>
     <g id="text_10">
      <!-- 18 -->
      <g transform="translate(351.427483 538.34294)rotate(-30)scale(0.1 -0.1)">
       <use xlink:href="#DejaVuSans-31"/>
       <use x="63.623047" xlink:href="#DejaVuSans-38"/>
      </g>
     </g>
    </g>
    <g id="xtick_11">
     <g id="line2d_21">
      <path clip-path="url(#pc0abd200ac)" d="M 394.875 518.4 
L 394.875 77.76 
" style="fill:none;stroke:#b0b0b0;stroke-linecap:square;stroke-width:0.8;"/>
     </g>
     <g id="line2d_22">
      <g>
       <use style="stroke:#000000;stroke-width:0.8;" x="394.875" xlink:href="#m4116107b10" y="518.4"/>
      </g>
     </g>
     <g id="text_11">
      <!-- 20 -->
      <g transform="translate(382.814983 538.34294)rotate(-30)scale(0.1 -0.1)">
       <use xlink:href="#DejaVuSans-32"/>
       <use x="63.623047" xlink:href="#DejaVuSans-30"/>
      </g>
     </g>
    </g>
    <g id="xtick_12">
     <g id="line2d_23">
      <path clip-path="url(#pc0abd200ac)" d="M 426.2625 518.4 
L 426.2625 77.76 
" style="fill:none;stroke:#b0b0b0;stroke-linecap:square;stroke-width:0.8;"/>
     </g>
     <g id="line2d_24">
      <g>
       <use style="stroke:#000000;stroke-width:0.8;" x="426.2625" xlink:href="#m4116107b10" y="518.4"/>
      </g>
     </g>
     <g id="text_12">
      <!-- 22 -->
      <g transform="translate(414.202483 538.34294)rotate(-30)scale(0.1 -0.1)">
       <use xlink:href="#DejaVuSans-32"/>
       <use x="63.623047" xlink:href="#DejaVuSans-32"/>
      </g>
     </g>
    </g>
    <g id="xtick_13">
     <g id="line2d_25">
      <path clip-path="url(#pc0abd200ac)" d="M 457.65 518.4 
L 457.65 77.76 
" style="fill:none;stroke:#b0b0b0;stroke-linecap:square;stroke-width:0.8;"/>
     </g>
     <g id="line2d_26">
      <g>
       <use style="stroke:#000000;stroke-width:0.8;" x="457.65" xlink:href="#m4116107b10" y="518.4"/>
      </g>
     </g>
     <g id="text_13">
      <!-- 00 -->
      <g transform="translate(445.589983 538.34294)rotate(-30)scale(0.1 -0.1)">
       <use xlink:href="#DejaVuSans-30"/>
       <use x="63.623047" xlink:href="#DejaVuSans-30"/>
      </g>
     </g>
    </g>
    <g id="xtick_14">
     <g id="line2d_27">
      <path clip-path="url(#pc0abd200ac)" d="M 489.0375 518.4 
L 489.0375 77.76 
" style="fill:none;stroke:#b0b0b0;stroke-linecap:square;stroke-width:0.8;"/>
     </g>
     <g id="line2d_28">
      <g>
       <use style="stroke:#000000;stroke-width:0.8;" x="489.0375" xlink:href="#m4116107b10" y="518.4"/>
      </g>
     </g>
     <g id="text_14">
      <!-- 02 -->
      <g transform="translate(476.977483 538.34294)rotate(-30)scale(0.1 -0.1)">
       <use xlink:href="#DejaVuSans-30"/>
       <use x="63.623047" xlink:href="#DejaVuSans-32"/>
      </g>
     </g>
    </g>
    <g id="xtick_15">
     <g id="line2d_29">
      <path clip-path="url(#pc0abd200ac)" d="M 520.425 518.4 
L 520.425 77.76 
" style="fill:none;stroke:#b0b0b0;stroke-linecap:square;stroke-width:0.8;"/>
     </g>
     <g id="line2d_30">
      <g>
       <use style="stroke:#000000;stroke-width:0.8;" x="520.425" xlink:href="#m4116107b10" y="518.4"/>
      </g>
     </g>
     <g id="text_15">
      <!-- 04 -->
      <g transform="translate(508.364983 538.34294)rotate(-30)scale(0.1 -0.1)">
       <use xlink:href="#DejaVuSans-30"/>
       <use x="63.623047" xlink:href="#DejaVuSans-34"/>
      </g>
     </g>
    </g>
    <g id="xtick_16">
     <g id="line2d_31">
      <path clip-path="url(#pc0abd200ac)" d="M 551.8125 518.4 
L 551.8125 77.76 
" style="fill:none;stroke:#b0b0b0;stroke-linecap:square;stroke-width:0.8;"/>
     </g>
     <g id="line2d_32">
      <g>
       <use style="stroke:#000000;stroke-width:0.8;" x="551.8125" xlink:href="#m4116107b10" y="518.4"/>
      </g>
     </g>
     <g id="text_16">
      <!-- 06 -->
      <g transform="translate(539.752483 538.34294)rotate(-30)scale(0.1 -0.1)">
       <use xlink:href="#DejaVuSans-30"/>
       <use x="63.623047" xlink:href="#DejaVuSans-36"/>
      </g>
     </g>
    </g>
    <g id="xtick_17">
     <g id="line2d_33">
      <path clip-path="url(#pc0abd200ac)" d="M 583.2 518.4 
L 583.2 77.76 
" style="fill:none;stroke:#b0b0b0;stroke-linecap:square;stroke-width:0.8;"/>
     </g>
     <g id="line2d_34">
      <g>
       <use style="stroke:#000000;stroke-width:0.8;" x="583.2" xlink:href="#m4116107b10" y="518.4"/>
      </g>
     </g>
     <g id="text_17">
      <!-- 08 -->
      <g transform="translate(571.139983 538.34294)rotate(-30)scale(0.1 -0.1)">
       <use xlink:href="#DejaVuSans-30"/>
       <use x="63.623047" xlink:href="#DejaVuSans-38"/>
      </g>
     </g>
    </g>
   </g>
   <g id="matplotlib.axis_2">
    <g id="ytick_1">
     <g id="line2d_35">
      <path clip-path="url(#pc0abd200ac)" d="M 81 498.370909 
L 583.2 498.370909 
" style="fill:none;stroke:#b0b0b0;stroke-linecap:square;stroke-width:0.8;"/>
     </g>
     <g id="line2d_36">
      <defs>
       <path d="M 0 0 
L -3.5 0 
" id="mf8f26ffe4c" style="stroke:#000000;stroke-width:0.8;"/>
      </defs>
      <g>
       <use style="stroke:#000000;stroke-width:0.8;" x="81" xlink:href="#mf8f26ffe4c" y="498.370909"/>
      </g>
     </g>
     <g id="text_18">
      <!-- Тында -->
      <defs>
       <path d="M -0.296875 72.90625 
L 61.375 72.90625 
L 61.375 64.59375 
L 35.5 64.59375 
L 35.5 0 
L 25.59375 0 
L 25.59375 64.59375 
L -0.296875 64.59375 
z
" id="DejaVuSans-422"/>
       <path d="M 61.078125 54.6875 
L 70.0625 54.6875 
L 70.0625 0 
L 61.078125 0 
z
M 65.578125 56 
z
M 43.453125 16.21875 
Q 43.453125 20.609375 40.25 22.90625 
Q 37.0625 25.203125 30.90625 25.203125 
L 18.109375 25.203125 
L 18.109375 7.171875 
L 30.90625 7.171875 
Q 37.0625 7.171875 40.25 9.484375 
Q 43.453125 11.8125 43.453125 16.21875 
z
M 9.078125 54.6875 
L 18.109375 54.6875 
L 18.109375 32.375 
L 31.296875 32.375 
Q 41.75 32.375 47.390625 28.390625 
Q 53.03125 24.421875 53.03125 16.21875 
Q 53.03125 8.015625 47.390625 4 
Q 41.75 0 31.296875 0 
L 9.078125 0 
z
" id="DejaVuSans-44b"/>
       <path d="M 9.078125 54.6875 
L 18.109375 54.6875 
L 18.109375 32.375 
L 47.265625 32.375 
L 47.265625 54.6875 
L 56.296875 54.6875 
L 56.296875 0 
L 47.265625 0 
L 47.265625 25.203125 
L 18.109375 25.203125 
L 18.109375 0 
L 9.078125 0 
z
" id="DejaVuSans-43d"/>
       <path d="M 21.625 7.171875 
L 47.703125 7.171875 
L 47.703125 47.515625 
L 28.8125 47.515625 
L 28.8125 40.671875 
Q 28.8125 20.5625 23.046875 9.8125 
z
M 8.59375 7.171875 
Q 13.03125 9.125 14.984375 13.28125 
Q 19.78125 23.578125 19.78125 44.34375 
L 19.78125 54.6875 
L 56.734375 54.6875 
L 56.734375 7.171875 
L 63.921875 7.171875 
L 63.921875 -13.8125 
L 56.734375 -13.8125 
L 56.734375 0 
L 12.40625 0 
L 12.40625 -13.8125 
L 5.21875 -13.8125 
L 5.21875 7.171875 
z
" id="DejaVuSans-434"/>
       <path d="M 34.28125 27.484375 
Q 23.390625 27.484375 19.1875 25 
Q 14.984375 22.515625 14.984375 16.5 
Q 14.984375 11.71875 18.140625 8.90625 
Q 21.296875 6.109375 26.703125 6.109375 
Q 34.1875 6.109375 38.703125 11.40625 
Q 43.21875 16.703125 43.21875 25.484375 
L 43.21875 27.484375 
z
M 52.203125 31.203125 
L 52.203125 0 
L 43.21875 0 
L 43.21875 8.296875 
Q 40.140625 3.328125 35.546875 0.953125 
Q 30.953125 -1.421875 24.3125 -1.421875 
Q 15.921875 -1.421875 10.953125 3.296875 
Q 6 8.015625 6 15.921875 
Q 6 25.140625 12.171875 29.828125 
Q 18.359375 34.515625 30.609375 34.515625 
L 43.21875 34.515625 
L 43.21875 35.40625 
Q 43.21875 41.609375 39.140625 45 
Q 35.0625 48.390625 27.6875 48.390625 
Q 23 48.390625 18.546875 47.265625 
Q 14.109375 46.140625 10.015625 43.890625 
L 10.015625 52.203125 
Q 14.9375 54.109375 19.578125 55.046875 
Q 24.21875 56 28.609375 56 
Q 40.484375 56 46.34375 49.84375 
Q 52.203125 43.703125 52.203125 31.203125 
z
" id="DejaVuSans-430"/>
      </defs>
      <g transform="translate(40.417187 496.571222)scale(0.1 -0.1)">
       <use xlink:href="#DejaVuSans-422"/>
       <use x="61.083984" xlink:href="#DejaVuSans-44b"/>
       <use x="140.039062" xlink:href="#DejaVuSans-43d"/>
       <use x="205.419922" xlink:href="#DejaVuSans-434"/>
       <use x="274.560547" xlink:href="#DejaVuSans-430"/>
      </g>
      <!-- Tynda -->
      <defs>
       <path d="M -0.296875 72.90625 
L 61.375 72.90625 
L 61.375 64.59375 
L 35.5 64.59375 
L 35.5 0 
L 25.59375 0 
L 25.59375 64.59375 
L -0.296875 64.59375 
z
" id="DejaVuSans-54"/>
       <path d="M 32.171875 -5.078125 
Q 28.375 -14.84375 24.75 -17.8125 
Q 21.140625 -20.796875 15.09375 -20.796875 
L 7.90625 -20.796875 
L 7.90625 -13.28125 
L 13.1875 -13.28125 
Q 16.890625 -13.28125 18.9375 -11.515625 
Q 21 -9.765625 23.484375 -3.21875 
L 25.09375 0.875 
L 2.984375 54.6875 
L 12.5 54.6875 
L 29.59375 11.921875 
L 46.6875 54.6875 
L 56.203125 54.6875 
z
" id="DejaVuSans-79"/>
       <path d="M 54.890625 33.015625 
L 54.890625 0 
L 45.90625 0 
L 45.90625 32.71875 
Q 45.90625 40.484375 42.875 44.328125 
Q 39.84375 48.1875 33.796875 48.1875 
Q 26.515625 48.1875 22.3125 43.546875 
Q 18.109375 38.921875 18.109375 30.90625 
L 18.109375 0 
L 9.078125 0 
L 9.078125 54.6875 
L 18.109375 54.6875 
L 18.109375 46.1875 
Q 21.34375 51.125 25.703125 53.5625 
Q 30.078125 56 35.796875 56 
Q 45.21875 56 50.046875 50.171875 
Q 54.890625 44.34375 54.890625 33.015625 
z
" id="DejaVuSans-6e"/>
       <path d="M 45.40625 46.390625 
L 45.40625 75.984375 
L 54.390625 75.984375 
L 54.390625 0 
L 45.40625 0 
L 45.40625 8.203125 
Q 42.578125 3.328125 38.25 0.953125 
Q 33.9375 -1.421875 27.875 -1.421875 
Q 17.96875 -1.421875 11.734375 6.484375 
Q 5.515625 14.40625 5.515625 27.296875 
Q 5.515625 40.1875 11.734375 48.09375 
Q 17.96875 56 27.875 56 
Q 33.9375 56 38.25 53.625 
Q 42.578125 51.265625 45.40625 46.390625 
z
M 14.796875 27.296875 
Q 14.796875 17.390625 18.875 11.75 
Q 22.953125 6.109375 30.078125 6.109375 
Q 37.203125 6.109375 41.296875 11.75 
Q 45.40625 17.390625 45.40625 27.296875 
Q 45.40625 37.203125 41.296875 42.84375 
Q 37.203125 48.484375 30.078125 48.484375 
Q 22.953125 48.484375 18.875 42.84375 
Q 14.796875 37.203125 14.796875 27.296875 
z
" id="DejaVuSans-64"/>
       <path d="M 34.28125 27.484375 
Q 23.390625 27.484375 19.1875 25 
Q 14.984375 22.515625 14.984375 16.5 
Q 14.984375 11.71875 18.140625 8.90625 
Q 21.296875 6.109375 26.703125 6.109375 
Q 34.1875 6.109375 38.703125 11.40625 
Q 43.21875 16.703125 43.21875 25.484375 
L 43.21875 27.484375 
z
M 52.203125 31.203125 
L 52.203125 0 
L 43.21875 0 
L 43.21875 8.296875 
Q 40.140625 3.328125 35.546875 0.953125 
Q 30.953125 -1.421875 24.3125 -1.421875 
Q 15.921875 -1.421875 10.953125 3.296875 
Q 6 8.015625 6 15.921875 
Q 6 25.140625 12.171875 29.828125 
Q 18.359375 34.515625 30.609375 34.515625 
L 43.21875 34.515625 
L 43.21875 35.40625 
Q 43.21875 41.609375 39.140625 45 
Q 35.0625 48.390625 27.6875 48.390625 
Q 23 48.390625 18.546875 47.265625 
Q 14.109375 46.140625 10.015625 43.890625 
L 10.015625 52.203125 
Q 14.9375 54.109375 19.578125 55.046875 
Q 24.21875 56 28.609375 56 
Q 40.484375 56 46.34375 49.84375 
Q 52.203125 43.703125 52.203125 31.203125 
z
" id="DejaVuSans-61"/>
      </defs>
      <g transform="translate(43.182812 507.769034)scale(0.1 -0.1)">
       <use xlink:href="#DejaVuSans-54"/>
       <use x="60.849609" xlink:href="#DejaVuSans-79"/>
       <use x="120.029297" xlink:href="#DejaVuSans-6e"/>
       <use x="183.408203" xlink:href="#DejaVuSans-64"/>
       <use x="246.884766" xlink:href="#DejaVuSans-61"/>
      </g>
     </g>
    </g>
    <g id="ytick_2">
     <g id="line2d_37">
      <path clip-path="url(#pc0abd200ac)" d="M 81 412.260992 
L 583.2 412.260992 
" style="fill:none;stroke:#b0b0b0;stroke-linecap:square;stroke-width:0.8;"/>
     </g>
     <g id="line2d_38">
      <g>
       <use style="stroke:#000000;stroke-width:0.8;" x="81" xlink:href="#mf8f26ffe4c" y="412.260992"/>
      </g>
     </g>
     <g id="text_19">
      <!-- Нерюнгри -->
      <defs>
       <path d="M 9.8125 72.90625 
L 19.671875 72.90625 
L 19.671875 43.015625 
L 55.515625 43.015625 
L 55.515625 72.90625 
L 65.375 72.90625 
L 65.375 0 
L 55.515625 0 
L 55.515625 34.71875 
L 19.671875 34.71875 
L 19.671875 0 
L 9.8125 0 
z
" id="DejaVuSans-41d"/>
       <path d="M 56.203125 29.59375 
L 56.203125 25.203125 
L 14.890625 25.203125 
Q 15.484375 15.921875 20.484375 11.0625 
Q 25.484375 6.203125 34.421875 6.203125 
Q 39.59375 6.203125 44.453125 7.46875 
Q 49.3125 8.734375 54.109375 11.28125 
L 54.109375 2.78125 
Q 49.265625 0.734375 44.1875 -0.34375 
Q 39.109375 -1.421875 33.890625 -1.421875 
Q 20.796875 -1.421875 13.15625 6.1875 
Q 5.515625 13.8125 5.515625 26.8125 
Q 5.515625 40.234375 12.765625 48.109375 
Q 20.015625 56 32.328125 56 
Q 43.359375 56 49.78125 48.890625 
Q 56.203125 41.796875 56.203125 29.59375 
z
M 47.21875 32.234375 
Q 47.125 39.59375 43.09375 43.984375 
Q 39.0625 48.390625 32.421875 48.390625 
Q 24.90625 48.390625 20.390625 44.140625 
Q 15.875 39.890625 15.1875 32.171875 
z
" id="DejaVuSans-435"/>
       <path d="M 18.109375 8.203125 
L 18.109375 -20.796875 
L 9.078125 -20.796875 
L 9.078125 54.6875 
L 18.109375 54.6875 
L 18.109375 46.390625 
Q 20.953125 51.265625 25.265625 53.625 
Q 29.59375 56 35.59375 56 
Q 45.5625 56 51.78125 48.09375 
Q 58.015625 40.1875 58.015625 27.296875 
Q 58.015625 14.40625 51.78125 6.484375 
Q 45.5625 -1.421875 35.59375 -1.421875 
Q 29.59375 -1.421875 25.265625 0.953125 
Q 20.953125 3.328125 18.109375 8.203125 
z
M 48.6875 27.296875 
Q 48.6875 37.203125 44.609375 42.84375 
Q 40.53125 48.484375 33.40625 48.484375 
Q 26.265625 48.484375 22.1875 42.84375 
Q 18.109375 37.203125 18.109375 27.296875 
Q 18.109375 17.390625 22.1875 11.75 
Q 26.265625 6.109375 33.40625 6.109375 
Q 40.53125 6.109375 44.609375 11.75 
Q 48.6875 17.390625 48.6875 27.296875 
z
" id="DejaVuSans-440"/>
       <path d="M 53.609375 48.390625 
Q 46.390625 48.390625 42.1875 42.75 
Q 37.984375 37.109375 37.984375 27.296875 
Q 37.984375 17.484375 42.15625 11.84375 
Q 46.34375 6.203125 53.609375 6.203125 
Q 60.796875 6.203125 64.984375 11.859375 
Q 69.1875 17.53125 69.1875 27.296875 
Q 69.1875 37.015625 64.984375 42.703125 
Q 60.796875 48.390625 53.609375 48.390625 
z
M 28.8125 32.859375 
Q 29.734375 42.140625 35.8125 49.0625 
Q 41.890625 56 53.609375 56 
Q 65.328125 56 72.015625 48.375 
Q 78.71875 40.765625 78.71875 27.296875 
Q 78.71875 13.875 72.015625 6.21875 
Q 65.328125 -1.421875 53.609375 -1.421875 
Q 41.84375 -1.421875 35.421875 5.953125 
Q 29 13.328125 28.5625 25.4375 
L 18.40625 25.4375 
L 18.40625 0 
L 9.421875 0 
L 9.421875 54.6875 
L 18.40625 54.6875 
L 18.40625 32.859375 
z
" id="DejaVuSans-44e"/>
       <path d="M 9.078125 0 
L 9.078125 54.6875 
L 47.65625 54.6875 
L 47.65625 47.515625 
L 18.109375 47.515625 
L 18.109375 0 
z
" id="DejaVuSans-433"/>
       <path d="M 55.90625 54.6875 
L 55.90625 0 
L 46.96875 0 
L 46.96875 43.890625 
L 20.609375 0 
L 9.078125 0 
L 9.078125 54.6875 
L 18.015625 54.6875 
L 18.015625 10.890625 
L 44.34375 54.6875 
z
" id="DejaVuSans-438"/>
      </defs>
      <g transform="translate(20.920312 410.461304)scale(0.1 -0.1)">
       <use xlink:href="#DejaVuSans-41d"/>
       <use x="75.195312" xlink:href="#DejaVuSans-435"/>
       <use x="136.71875" xlink:href="#DejaVuSans-440"/>
       <use x="200.195312" xlink:href="#DejaVuSans-44e"/>
       <use x="284.375" xlink:href="#DejaVuSans-43d"/>
       <use x="349.755859" xlink:href="#DejaVuSans-433"/>
       <use x="402.294922" xlink:href="#DejaVuSans-440"/>
       <use x="465.771484" xlink:href="#DejaVuSans-438"/>
      </g>
      <!-- Nerjungri -->
      <defs>
       <path d="M 9.8125 72.90625 
L 23.09375 72.90625 
L 55.421875 11.921875 
L 55.421875 72.90625 
L 64.984375 72.90625 
L 64.984375 0 
L 51.703125 0 
L 19.390625 60.984375 
L 19.390625 0 
L 9.8125 0 
z
" id="DejaVuSans-4e"/>
       <path d="M 56.203125 29.59375 
L 56.203125 25.203125 
L 14.890625 25.203125 
Q 15.484375 15.921875 20.484375 11.0625 
Q 25.484375 6.203125 34.421875 6.203125 
Q 39.59375 6.203125 44.453125 7.46875 
Q 49.3125 8.734375 54.109375 11.28125 
L 54.109375 2.78125 
Q 49.265625 0.734375 44.1875 -0.34375 
Q 39.109375 -1.421875 33.890625 -1.421875 
Q 20.796875 -1.421875 13.15625 6.1875 
Q 5.515625 13.8125 5.515625 26.8125 
Q 5.515625 40.234375 12.765625 48.109375 
Q 20.015625 56 32.328125 56 
Q 43.359375 56 49.78125 48.890625 
Q 56.203125 41.796875 56.203125 29.59375 
z
M 47.21875 32.234375 
Q 47.125 39.59375 43.09375 43.984375 
Q 39.0625 48.390625 32.421875 48.390625 
Q 24.90625 48.390625 20.390625 44.140625 
Q 15.875 39.890625 15.1875 32.171875 
z
" id="DejaVuSans-65"/>
       <path d="M 41.109375 46.296875 
Q 39.59375 47.171875 37.8125 47.578125 
Q 36.03125 48 33.890625 48 
Q 26.265625 48 22.1875 43.046875 
Q 18.109375 38.09375 18.109375 28.8125 
L 18.109375 0 
L 9.078125 0 
L 9.078125 54.6875 
L 18.109375 54.6875 
L 18.109375 46.1875 
Q 20.953125 51.171875 25.484375 53.578125 
Q 30.03125 56 36.53125 56 
Q 37.453125 56 38.578125 55.875 
Q 39.703125 55.765625 41.0625 55.515625 
z
" id="DejaVuSans-72"/>
       <path d="M 9.421875 54.6875 
L 18.40625 54.6875 
L 18.40625 -0.984375 
Q 18.40625 -11.421875 14.421875 -16.109375 
Q 10.453125 -20.796875 1.609375 -20.796875 
L -1.8125 -20.796875 
L -1.8125 -13.1875 
L 0.59375 -13.1875 
Q 5.71875 -13.1875 7.5625 -10.8125 
Q 9.421875 -8.453125 9.421875 -0.984375 
z
M 9.421875 75.984375 
L 18.40625 75.984375 
L 18.40625 64.59375 
L 9.421875 64.59375 
z
" id="DejaVuSans-6a"/>
       <path d="M 8.5 21.578125 
L 8.5 54.6875 
L 17.484375 54.6875 
L 17.484375 21.921875 
Q 17.484375 14.15625 20.5 10.265625 
Q 23.53125 6.390625 29.59375 6.390625 
Q 36.859375 6.390625 41.078125 11.03125 
Q 45.3125 15.671875 45.3125 23.6875 
L 45.3125 54.6875 
L 54.296875 54.6875 
L 54.296875 0 
L 45.3125 0 
L 45.3125 8.40625 
Q 42.046875 3.421875 37.71875 1 
Q 33.40625 -1.421875 27.6875 -1.421875 
Q 18.265625 -1.421875 13.375 4.4375 
Q 8.5 10.296875 8.5 21.578125 
z
M 31.109375 56 
z
" id="DejaVuSans-75"/>
       <path d="M 45.40625 27.984375 
Q 45.40625 37.75 41.375 43.109375 
Q 37.359375 48.484375 30.078125 48.484375 
Q 22.859375 48.484375 18.828125 43.109375 
Q 14.796875 37.75 14.796875 27.984375 
Q 14.796875 18.265625 18.828125 12.890625 
Q 22.859375 7.515625 30.078125 7.515625 
Q 37.359375 7.515625 41.375 12.890625 
Q 45.40625 18.265625 45.40625 27.984375 
z
M 54.390625 6.78125 
Q 54.390625 -7.171875 48.1875 -13.984375 
Q 42 -20.796875 29.203125 -20.796875 
Q 24.46875 -20.796875 20.265625 -20.09375 
Q 16.0625 -19.390625 12.109375 -17.921875 
L 12.109375 -9.1875 
Q 16.0625 -11.328125 19.921875 -12.34375 
Q 23.78125 -13.375 27.78125 -13.375 
Q 36.625 -13.375 41.015625 -8.765625 
Q 45.40625 -4.15625 45.40625 5.171875 
L 45.40625 9.625 
Q 42.625 4.78125 38.28125 2.390625 
Q 33.9375 0 27.875 0 
Q 17.828125 0 11.671875 7.65625 
Q 5.515625 15.328125 5.515625 27.984375 
Q 5.515625 40.671875 11.671875 48.328125 
Q 17.828125 56 27.875 56 
Q 33.9375 56 38.28125 53.609375 
Q 42.625 51.21875 45.40625 46.390625 
L 45.40625 54.6875 
L 54.390625 54.6875 
z
" id="DejaVuSans-67"/>
       <path d="M 9.421875 54.6875 
L 18.40625 54.6875 
L 18.40625 0 
L 9.421875 0 
z
M 9.421875 75.984375 
L 18.40625 75.984375 
L 18.40625 64.59375 
L 9.421875 64.59375 
z
" id="DejaVuSans-69"/>
      </defs>
      <g transform="translate(27.564062 421.659117)scale(0.1 -0.1)">
       <use xlink:href="#DejaVuSans-4e"/>
       <use x="74.804688" xlink:href="#DejaVuSans-65"/>
       <use x="136.328125" xlink:href="#DejaVuSans-72"/>
       <use x="177.441406" xlink:href="#DejaVuSans-6a"/>
       <use x="205.224609" xlink:href="#DejaVuSans-75"/>
       <use x="268.603516" xlink:href="#DejaVuSans-6e"/>
       <use x="331.982422" xlink:href="#DejaVuSans-67"/>
       <use x="395.458984" xlink:href="#DejaVuSans-72"/>
       <use x="436.572266" xlink:href="#DejaVuSans-69"/>
      </g>
     </g>
    </g>
    <g id="ytick_3">
     <g id="line2d_39">
      <path clip-path="url(#pc0abd200ac)" d="M 81 276.078347 
L 583.2 276.078347 
" style="fill:none;stroke:#b0b0b0;stroke-linecap:square;stroke-width:0.8;"/>
     </g>
     <g id="line2d_40">
      <g>
       <use style="stroke:#000000;stroke-width:0.8;" x="81" xlink:href="#mf8f26ffe4c" y="276.078347"/>
      </g>
     </g>
     <g id="text_20">
      <!-- Томмот -->
      <defs>
       <path d="M 30.609375 48.390625 
Q 23.390625 48.390625 19.1875 42.75 
Q 14.984375 37.109375 14.984375 27.296875 
Q 14.984375 17.484375 19.15625 11.84375 
Q 23.34375 6.203125 30.609375 6.203125 
Q 37.796875 6.203125 41.984375 11.859375 
Q 46.1875 17.53125 46.1875 27.296875 
Q 46.1875 37.015625 41.984375 42.703125 
Q 37.796875 48.390625 30.609375 48.390625 
z
M 30.609375 56 
Q 42.328125 56 49.015625 48.375 
Q 55.71875 40.765625 55.71875 27.296875 
Q 55.71875 13.875 49.015625 6.21875 
Q 42.328125 -1.421875 30.609375 -1.421875 
Q 18.84375 -1.421875 12.171875 6.21875 
Q 5.515625 13.875 5.515625 27.296875 
Q 5.515625 40.765625 12.171875 48.375 
Q 18.84375 56 30.609375 56 
z
" id="DejaVuSans-43e"/>
       <path d="M 9.078125 54.6875 
L 22.21875 54.6875 
L 37.75 18.0625 
L 53.328125 54.6875 
L 66.359375 54.6875 
L 66.359375 0 
L 57.328125 0 
L 57.328125 46.09375 
L 42.234375 10.5 
L 33.25 10.5 
L 18.109375 46.09375 
L 18.109375 0 
L 9.078125 0 
z
" id="DejaVuSans-43c"/>
       <path d="M 2.9375 54.6875 
L 55.328125 54.6875 
L 55.328125 47.515625 
L 33.546875 47.515625 
L 33.546875 0 
L 24.703125 0 
L 24.703125 47.515625 
L 2.9375 47.515625 
z
" id="DejaVuSans-442"/>
      </defs>
      <g transform="translate(34.742188 274.27866)scale(0.1 -0.1)">
       <use xlink:href="#DejaVuSans-422"/>
       <use x="61.083984" xlink:href="#DejaVuSans-43e"/>
       <use x="122.265625" xlink:href="#DejaVuSans-43c"/>
       <use x="197.705078" xlink:href="#DejaVuSans-43c"/>
       <use x="273.144531" xlink:href="#DejaVuSans-43e"/>
       <use x="334.326172" xlink:href="#DejaVuSans-442"/>
      </g>
      <!-- Tommot -->
      <defs>
       <path d="M 30.609375 48.390625 
Q 23.390625 48.390625 19.1875 42.75 
Q 14.984375 37.109375 14.984375 27.296875 
Q 14.984375 17.484375 19.15625 11.84375 
Q 23.34375 6.203125 30.609375 6.203125 
Q 37.796875 6.203125 41.984375 11.859375 
Q 46.1875 17.53125 46.1875 27.296875 
Q 46.1875 37.015625 41.984375 42.703125 
Q 37.796875 48.390625 30.609375 48.390625 
z
M 30.609375 56 
Q 42.328125 56 49.015625 48.375 
Q 55.71875 40.765625 55.71875 27.296875 
Q 55.71875 13.875 49.015625 6.21875 
Q 42.328125 -1.421875 30.609375 -1.421875 
Q 18.84375 -1.421875 12.171875 6.21875 
Q 5.515625 13.875 5.515625 27.296875 
Q 5.515625 40.765625 12.171875 48.375 
Q 18.84375 56 30.609375 56 
z
" id="DejaVuSans-6f"/>
       <path d="M 52 44.1875 
Q 55.375 50.25 60.0625 53.125 
Q 64.75 56 71.09375 56 
Q 79.640625 56 84.28125 50.015625 
Q 88.921875 44.046875 88.921875 33.015625 
L 88.921875 0 
L 79.890625 0 
L 79.890625 32.71875 
Q 79.890625 40.578125 77.09375 44.375 
Q 74.3125 48.1875 68.609375 48.1875 
Q 61.625 48.1875 57.5625 43.546875 
Q 53.515625 38.921875 53.515625 30.90625 
L 53.515625 0 
L 44.484375 0 
L 44.484375 32.71875 
Q 44.484375 40.625 41.703125 44.40625 
Q 38.921875 48.1875 33.109375 48.1875 
Q 26.21875 48.1875 22.15625 43.53125 
Q 18.109375 38.875 18.109375 30.90625 
L 18.109375 0 
L 9.078125 0 
L 9.078125 54.6875 
L 18.109375 54.6875 
L 18.109375 46.1875 
Q 21.1875 51.21875 25.484375 53.609375 
Q 29.78125 56 35.6875 56 
Q 41.65625 56 45.828125 52.96875 
Q 50 49.953125 52 44.1875 
z
" id="DejaVuSans-6d"/>
       <path d="M 18.3125 70.21875 
L 18.3125 54.6875 
L 36.8125 54.6875 
L 36.8125 47.703125 
L 18.3125 47.703125 
L 18.3125 18.015625 
Q 18.3125 11.328125 20.140625 9.421875 
Q 21.96875 7.515625 27.59375 7.515625 
L 36.8125 7.515625 
L 36.8125 0 
L 27.59375 0 
Q 17.1875 0 13.234375 3.875 
Q 9.28125 7.765625 9.28125 18.015625 
L 9.28125 47.703125 
L 2.6875 47.703125 
L 2.6875 54.6875 
L 9.28125 54.6875 
L 9.28125 70.21875 
z
" id="DejaVuSans-74"/>
      </defs>
      <g transform="translate(32.279687 285.476472)scale(0.1 -0.1)">
       <use xlink:href="#DejaVuSans-54"/>
       <use x="60.818359" xlink:href="#DejaVuSans-6f"/>
       <use x="122" xlink:href="#DejaVuSans-6d"/>
       <use x="219.412109" xlink:href="#DejaVuSans-6d"/>
       <use x="316.824219" xlink:href="#DejaVuSans-6f"/>
       <use x="378.005859" xlink:href="#DejaVuSans-74"/>
      </g>
     </g>
    </g>
    <g id="ytick_4">
     <g id="line2d_41">
      <path clip-path="url(#pc0abd200ac)" d="M 81 110.686612 
L 583.2 110.686612 
" style="fill:none;stroke:#b0b0b0;stroke-linecap:square;stroke-width:0.8;"/>
     </g>
     <g id="line2d_42">
      <g>
       <use style="stroke:#000000;stroke-width:0.8;" x="81" xlink:href="#mf8f26ffe4c" y="110.686612"/>
      </g>
     </g>
     <g id="text_21">
      <!-- Нижний Бестях -->
      <defs>
       <path d="M 40.578125 54.6875 
L 49.515625 54.6875 
L 49.515625 29 
L 73.390625 54.6875 
L 83.84375 54.6875 
L 64.203125 33.640625 
L 86.671875 0 
L 77.046875 0 
L 58.640625 27.640625 
L 49.515625 17.828125 
L 49.515625 0 
L 40.578125 0 
L 40.578125 17.828125 
L 31.453125 27.640625 
L 13.03125 0 
L 3.421875 0 
L 25.875 33.640625 
L 6.25 54.6875 
L 16.703125 54.6875 
L 40.578125 29 
z
" id="DejaVuSans-436"/>
       <path d="M 55.90625 54.6875 
L 55.90625 0 
L 46.96875 0 
L 46.96875 43.890625 
L 20.609375 0 
L 9.078125 0 
L 9.078125 54.6875 
L 18.015625 54.6875 
L 18.015625 10.890625 
L 44.34375 54.6875 
z
M 17.234375 75.96875 
L 23 75.96875 
Q 23.53125 72.3125 25.890625 70.46875 
Q 28.265625 68.640625 32.515625 68.640625 
Q 36.71875 68.640625 39.0625 70.453125 
Q 41.40625 72.265625 42.046875 75.96875 
L 47.796875 75.96875 
Q 47.3125 68.984375 43.453125 65.46875 
Q 39.59375 61.953125 32.515625 61.953125 
Q 25.4375 61.953125 21.578125 65.46875 
Q 17.71875 68.984375 17.234375 75.96875 
z
" id="DejaVuSans-439"/>
       <path id="DejaVuSans-20"/>
       <path d="M 51.125 21.4375 
Q 51.125 28.21875 47.28125 31.515625 
Q 43.453125 34.8125 35.5 34.8125 
L 19.671875 34.8125 
L 19.671875 8.109375 
L 35.5 8.109375 
Q 43.453125 8.109375 47.28125 11.40625 
Q 51.125 14.703125 51.125 21.4375 
z
M 56.390625 72.90625 
L 56.390625 64.796875 
L 19.671875 64.796875 
L 19.671875 42.921875 
L 35.984375 42.921875 
Q 48.25 42.921875 54.890625 37.59375 
Q 61.53125 32.28125 61.53125 21.4375 
Q 61.53125 10.640625 55.109375 5.3125 
Q 48.6875 0 35.984375 0 
L 9.8125 0 
L 9.8125 72.90625 
z
" id="DejaVuSans-411"/>
       <path d="M 48.78125 52.59375 
L 48.78125 44.1875 
Q 44.96875 46.296875 41.140625 47.34375 
Q 37.3125 48.390625 33.40625 48.390625 
Q 24.65625 48.390625 19.8125 42.84375 
Q 14.984375 37.3125 14.984375 27.296875 
Q 14.984375 17.28125 19.8125 11.734375 
Q 24.65625 6.203125 33.40625 6.203125 
Q 37.3125 6.203125 41.140625 7.25 
Q 44.96875 8.296875 48.78125 10.40625 
L 48.78125 2.09375 
Q 45.015625 0.34375 40.984375 -0.53125 
Q 36.96875 -1.421875 32.421875 -1.421875 
Q 20.0625 -1.421875 12.78125 6.34375 
Q 5.515625 14.109375 5.515625 27.296875 
Q 5.515625 40.671875 12.859375 48.328125 
Q 20.21875 56 33.015625 56 
Q 37.15625 56 41.109375 55.140625 
Q 45.0625 54.296875 48.78125 52.59375 
z
" id="DejaVuSans-441"/>
       <path d="M 18.453125 38.921875 
Q 18.453125 34.859375 21.578125 32.5625 
Q 24.703125 30.28125 30.515625 30.28125 
L 42.625 30.28125 
L 42.625 47.515625 
L 30.515625 47.515625 
Q 24.703125 47.515625 21.578125 45.265625 
Q 18.453125 43.015625 18.453125 38.921875 
z
M 5.671875 0 
L 22.359375 23.96875 
Q 16.703125 25.25 12.9375 28.59375 
Q 9.1875 31.9375 9.1875 38.921875 
Q 9.1875 46.828125 14.421875 50.75 
Q 19.671875 54.6875 30.28125 54.6875 
L 51.65625 54.6875 
L 51.65625 0 
L 42.625 0 
L 42.625 23.09375 
L 31.453125 23.09375 
L 15.328125 0 
z
" id="DejaVuSans-44f"/>
       <path d="M 54.890625 54.6875 
L 35.109375 28.078125 
L 55.90625 0 
L 45.3125 0 
L 29.390625 21.484375 
L 13.484375 0 
L 2.875 0 
L 24.125 28.609375 
L 4.6875 54.6875 
L 15.28125 54.6875 
L 29.78125 35.203125 
L 44.28125 54.6875 
z
" id="DejaVuSans-445"/>
      </defs>
      <g transform="translate(-8.0125 108.886924)scale(0.1 -0.1)">
       <use xlink:href="#DejaVuSans-41d"/>
       <use x="75.195312" xlink:href="#DejaVuSans-438"/>
       <use x="140.185547" xlink:href="#DejaVuSans-436"/>
       <use x="230.273438" xlink:href="#DejaVuSans-43d"/>
       <use x="295.654297" xlink:href="#DejaVuSans-438"/>
       <use x="360.644531" xlink:href="#DejaVuSans-439"/>
       <use x="425.634766" xlink:href="#DejaVuSans-20"/>
       <use x="457.421875" xlink:href="#DejaVuSans-411"/>
       <use x="526.025391" xlink:href="#DejaVuSans-435"/>
       <use x="587.548828" xlink:href="#DejaVuSans-441"/>
       <use x="642.529297" xlink:href="#DejaVuSans-442"/>
       <use x="700.78125" xlink:href="#DejaVuSans-44f"/>
       <use x="760.9375" xlink:href="#DejaVuSans-445"/>
      </g>
      <!-- Nizhnij Bestjah -->
      <defs>
       <path d="M 5.515625 54.6875 
L 48.1875 54.6875 
L 48.1875 46.484375 
L 14.40625 7.171875 
L 48.1875 7.171875 
L 48.1875 0 
L 4.296875 0 
L 4.296875 8.203125 
L 38.09375 47.515625 
L 5.515625 47.515625 
z
" id="DejaVuSans-7a"/>
       <path d="M 54.890625 33.015625 
L 54.890625 0 
L 45.90625 0 
L 45.90625 32.71875 
Q 45.90625 40.484375 42.875 44.328125 
Q 39.84375 48.1875 33.796875 48.1875 
Q 26.515625 48.1875 22.3125 43.546875 
Q 18.109375 38.921875 18.109375 30.90625 
L 18.109375 0 
L 9.078125 0 
L 9.078125 75.984375 
L 18.109375 75.984375 
L 18.109375 46.1875 
Q 21.34375 51.125 25.703125 53.5625 
Q 30.078125 56 35.796875 56 
Q 45.21875 56 50.046875 50.171875 
Q 54.890625 44.34375 54.890625 33.015625 
z
" id="DejaVuSans-68"/>
       <path d="M 19.671875 34.8125 
L 19.671875 8.109375 
L 35.5 8.109375 
Q 43.453125 8.109375 47.28125 11.40625 
Q 51.125 14.703125 51.125 21.484375 
Q 51.125 28.328125 47.28125 31.5625 
Q 43.453125 34.8125 35.5 34.8125 
z
M 19.671875 64.796875 
L 19.671875 42.828125 
L 34.28125 42.828125 
Q 41.5 42.828125 45.03125 45.53125 
Q 48.578125 48.25 48.578125 53.8125 
Q 48.578125 59.328125 45.03125 62.0625 
Q 41.5 64.796875 34.28125 64.796875 
z
M 9.8125 72.90625 
L 35.015625 72.90625 
Q 46.296875 72.90625 52.390625 68.21875 
Q 58.5 63.53125 58.5 54.890625 
Q 58.5 48.1875 55.375 44.234375 
Q 52.25 40.28125 46.1875 39.3125 
Q 53.46875 37.75 57.5 32.78125 
Q 61.53125 27.828125 61.53125 20.40625 
Q 61.53125 10.640625 54.890625 5.3125 
Q 48.25 0 35.984375 0 
L 9.8125 0 
z
" id="DejaVuSans-42"/>
       <path d="M 44.28125 53.078125 
L 44.28125 44.578125 
Q 40.484375 46.53125 36.375 47.5 
Q 32.28125 48.484375 27.875 48.484375 
Q 21.1875 48.484375 17.84375 46.4375 
Q 14.5 44.390625 14.5 40.28125 
Q 14.5 37.15625 16.890625 35.375 
Q 19.28125 33.59375 26.515625 31.984375 
L 29.59375 31.296875 
Q 39.15625 29.25 43.1875 25.515625 
Q 47.21875 21.78125 47.21875 15.09375 
Q 47.21875 7.46875 41.1875 3.015625 
Q 35.15625 -1.421875 24.609375 -1.421875 
Q 20.21875 -1.421875 15.453125 -0.5625 
Q 10.6875 0.296875 5.421875 2 
L 5.421875 11.28125 
Q 10.40625 8.6875 15.234375 7.390625 
Q 20.0625 6.109375 24.8125 6.109375 
Q 31.15625 6.109375 34.5625 8.28125 
Q 37.984375 10.453125 37.984375 14.40625 
Q 37.984375 18.0625 35.515625 20.015625 
Q 33.0625 21.96875 24.703125 23.78125 
L 21.578125 24.515625 
Q 13.234375 26.265625 9.515625 29.90625 
Q 5.8125 33.546875 5.8125 39.890625 
Q 5.8125 47.609375 11.28125 51.796875 
Q 16.75 56 26.8125 56 
Q 31.78125 56 36.171875 55.265625 
Q 40.578125 54.546875 44.28125 53.078125 
z
" id="DejaVuSans-73"/>
      </defs>
      <g transform="translate(-0.304688 120.084737)scale(0.1 -0.1)">
       <use xlink:href="#DejaVuSans-4e"/>
       <use x="74.804688" xlink:href="#DejaVuSans-69"/>
       <use x="102.587891" xlink:href="#DejaVuSans-7a"/>
       <use x="155.078125" xlink:href="#DejaVuSans-68"/>
       <use x="218.457031" xlink:href="#DejaVuSans-6e"/>
       <use x="281.835938" xlink:href="#DejaVuSans-69"/>
       <use x="309.619141" xlink:href="#DejaVuSans-6a"/>
       <use x="337.402344" xlink:href="#DejaVuSans-20"/>
       <use x="369.189453" xlink:href="#DejaVuSans-42"/>
       <use x="437.792969" xlink:href="#DejaVuSans-65"/>
       <use x="499.316406" xlink:href="#DejaVuSans-73"/>
       <use x="551.416016" xlink:href="#DejaVuSans-74"/>
       <use x="590.625" xlink:href="#DejaVuSans-6a"/>
       <use x="618.408203" xlink:href="#DejaVuSans-61"/>
       <use x="679.6875" xlink:href="#DejaVuSans-68"/>
      </g>
     </g>
    </g>
    <g id="ytick_5">
     <g id="line2d_43">
      <path clip-path="url(#pc0abd200ac)" d="M 81 97.789091 
L 583.2 97.789091 
" style="fill:none;stroke:#b0b0b0;stroke-linecap:square;stroke-width:0.8;"/>
     </g>
     <g id="line2d_44">
      <g>
       <use style="stroke:#000000;stroke-width:0.8;" x="81" xlink:href="#mf8f26ffe4c" y="97.789091"/>
      </g>
     </g>
     <g id="text_22">
      <!-- Якутск -->
      <defs>
       <path d="M 20.0625 51.90625 
Q 20.0625 45.515625 23.703125 42.21875 
Q 27.34375 38.921875 34.46875 38.921875 
L 49.8125 38.921875 
L 49.8125 64.796875 
L 34.46875 64.796875 
Q 27.34375 64.796875 23.703125 61.546875 
Q 20.0625 58.296875 20.0625 51.90625 
z
M 6.640625 0 
L 26.5625 31.890625 
Q 21.6875 33.15625 15.4375 37.28125 
Q 9.1875 41.40625 9.1875 51.90625 
Q 9.1875 61.96875 15.53125 67.4375 
Q 21.875 72.90625 34.46875 72.90625 
L 59.671875 72.90625 
L 59.671875 0 
L 49.8125 0 
L 49.8125 30.8125 
L 36.625 30.8125 
L 17.390625 0 
z
" id="DejaVuSans-42f"/>
       <path d="M 9.078125 54.6875 
L 18.015625 54.6875 
L 18.015625 29 
L 43.359375 54.6875 
L 54.390625 54.6875 
L 33.5 33.546875 
L 57.078125 0 
L 47.015625 0 
L 27.640625 27.59375 
L 18.015625 17.828125 
L 18.015625 0 
L 9.078125 0 
z
" id="DejaVuSans-43a"/>
       <path d="M 32.171875 -5.078125 
Q 28.375 -14.84375 24.75 -17.8125 
Q 21.140625 -20.796875 15.09375 -20.796875 
L 7.90625 -20.796875 
L 7.90625 -13.28125 
L 13.1875 -13.28125 
Q 16.890625 -13.28125 18.9375 -11.515625 
Q 21 -9.765625 23.484375 -3.21875 
L 25.09375 0.875 
L 2.984375 54.6875 
L 12.5 54.6875 
L 29.59375 11.921875 
L 46.6875 54.6875 
L 56.203125 54.6875 
z
" id="DejaVuSans-443"/>
      </defs>
      <g transform="translate(37.728125 95.989403)scale(0.1 -0.1)">
       <use xlink:href="#DejaVuSans-42f"/>
       <use x="69.482422" xlink:href="#DejaVuSans-43a"/>
       <use x="129.882812" xlink:href="#DejaVuSans-443"/>
       <use x="189.0625" xlink:href="#DejaVuSans-442"/>
       <use x="247.314453" xlink:href="#DejaVuSans-441"/>
       <use x="302.294922" xlink:href="#DejaVuSans-43a"/>
      </g>
      <!-- Jakutsk -->
      <defs>
       <path d="M 9.8125 72.90625 
L 19.671875 72.90625 
L 19.671875 5.078125 
Q 19.671875 -8.109375 14.671875 -14.0625 
Q 9.671875 -20.015625 -1.421875 -20.015625 
L -5.171875 -20.015625 
L -5.171875 -11.71875 
L -2.09375 -11.71875 
Q 4.4375 -11.71875 7.125 -8.046875 
Q 9.8125 -4.390625 9.8125 5.078125 
z
" id="DejaVuSans-4a"/>
       <path d="M 9.078125 75.984375 
L 18.109375 75.984375 
L 18.109375 31.109375 
L 44.921875 54.6875 
L 56.390625 54.6875 
L 27.390625 29.109375 
L 57.625 0 
L 45.90625 0 
L 18.109375 26.703125 
L 18.109375 0 
L 9.078125 0 
z
" id="DejaVuSans-6b"/>
      </defs>
      <g transform="translate(37.878125 107.187216)scale(0.1 -0.1)">
       <use xlink:href="#DejaVuSans-4a"/>
       <use x="29.492188" xlink:href="#DejaVuSans-61"/>
       <use x="90.771484" xlink:href="#DejaVuSans-6b"/>
       <use x="148.634766" xlink:href="#DejaVuSans-75"/>
       <use x="212.013672" xlink:href="#DejaVuSans-74"/>
       <use x="251.222656" xlink:href="#DejaVuSans-73"/>
       <use x="303.322266" xlink:href="#DejaVuSans-6b"/>
      </g>
     </g>
    </g>
   </g>
   <g id="line2d_45"/>
   <g id="line2d_46"/>
   <g id="line2d_47"/>
   <g id="line2d_48"/>
   <g id="line2d_49"/>
   <g id="line2d_50"/>
   <g id="line2d_51"/>
   <g id="line2d_52">
    <path clip-path="url(#pc0abd200ac)" d="M 227.475 412.260992 
L 354.332813 276.078347 
" style="fill:none;stroke:#808080;stroke-linecap:square;stroke-width:1.5;"/>
   </g>
   <g id="line2d_53">
    <path clip-path="url(#pc0abd200ac)" d="M 112.3875 498.370909 
L 197.656875 412.260992 
" style="fill:none;stroke:#808080;stroke-linecap:square;stroke-width:1.5;"/>
   </g>
   <g id="line2d_54"/>
   <g id="line2d_55">
    <path clip-path="url(#pc0abd200ac)" d="M 242.1225 498.370909 
L 320.59125 412.260992 
" style="fill:none;stroke:#808080;stroke-linecap:square;stroke-width:1.5;"/>
   </g>
   <g id="line2d_56">
    <path clip-path="url(#pc0abd200ac)" d="M 540.565313 110.686612 
L 571.429688 97.789091 
" style="fill:none;stroke:#808080;stroke-linecap:square;stroke-width:1.5;"/>
   </g>
   <g id="line2d_57"/>
   <g id="line2d_58">
    <path clip-path="url(#pc0abd200ac)" d="M 379.18125 276.078347 
L 536.641875 110.686612 
" style="fill:none;stroke:#808080;stroke-linecap:square;stroke-width:1.5;"/>
   </g>
   <g id="line2d_59">
    <path clip-path="url(#pc0abd200ac)" d="M 366.103125 498.370909 
L 449.018438 412.260992 
" style="fill:none;stroke:#808080;stroke-linecap:square;stroke-width:1.5;"/>
   </g>
   <g id="patch_3">
    <path d="M 81 518.4 
L 81 77.76 
" style="fill:none;stroke:#000000;stroke-linecap:square;stroke-linejoin:miter;stroke-width:0.8;"/>
   </g>
   <g id="patch_4">
    <path d="M 583.2 518.4 
L 583.2 77.76 
" style="fill:none;stroke:#000000;stroke-linecap:square;stroke-linejoin:miter;stroke-width:0.8;"/>
   </g>
   <g id="patch_5">
    <path d="M 81 518.4 
L 583.2 518.4 
" style="fill:none;stroke:#000000;stroke-linecap:square;stroke-linejoin:miter;stroke-width:0.8;"/>
   </g>
   <g id="patch_6">
    <path d="M 81 77.76 
L 583.2 77.76 
" style="fill:none;stroke:#000000;stroke-linecap:square;stroke-linejoin:miter;stroke-width:0.8;"/>
   </g>
   <g id="patch_7">
    <path d="M 134.463203 488.282061 
Q 124.334842 492.910837 115.223356 497.074891 
" style="fill:none;stroke:#000000;stroke-linecap:round;"/>
    <path d="M 119.692756 497.231287 
L 115.223356 497.074891 
L 118.030113 493.593208 
L 119.692756 497.231287 
z
" style="fill:#1f77b4;stroke:#000000;stroke-linecap:round;"/>
   </g>
   <g id="text_23">
    <!-- Каждый день -->
    <defs>
     <path d="M 9.8125 72.90625 
L 19.671875 72.90625 
L 19.671875 36.859375 
L 54.9375 72.90625 
L 67.578125 72.90625 
L 39.40625 44.09375 
L 69.046875 0 
L 58.296875 0 
L 33.015625 37.546875 
L 19.671875 23.921875 
L 19.671875 0 
L 9.8125 0 
z
" id="DejaVuSans-41a"/>
     <path d="M 43.453125 16.21875 
Q 43.453125 20.609375 40.25 22.90625 
Q 37.0625 25.203125 30.90625 25.203125 
L 18.109375 25.203125 
L 18.109375 7.171875 
L 30.90625 7.171875 
Q 37.0625 7.171875 40.25 9.484375 
Q 43.453125 11.8125 43.453125 16.21875 
z
M 9.078125 54.6875 
L 18.109375 54.6875 
L 18.109375 32.375 
L 31.296875 32.375 
Q 41.75 32.375 47.390625 28.390625 
Q 53.03125 24.421875 53.03125 16.21875 
Q 53.03125 8.015625 47.390625 4 
Q 41.75 0 31.296875 0 
L 9.078125 0 
z
" id="DejaVuSans-44c"/>
    </defs>
    <g transform="translate(127.3875 472.173097)scale(0.1 -0.1)">
     <use xlink:href="#DejaVuSans-41a"/>
     <use x="70.996094" xlink:href="#DejaVuSans-430"/>
     <use x="132.275391" xlink:href="#DejaVuSans-436"/>
     <use x="222.363281" xlink:href="#DejaVuSans-434"/>
     <use x="291.503906" xlink:href="#DejaVuSans-44b"/>
     <use x="370.458984" xlink:href="#DejaVuSans-439"/>
     <use x="435.449219" xlink:href="#DejaVuSans-20"/>
     <use x="467.236328" xlink:href="#DejaVuSans-434"/>
     <use x="536.376953" xlink:href="#DejaVuSans-435"/>
     <use x="597.900391" xlink:href="#DejaVuSans-43d"/>
     <use x="663.28125" xlink:href="#DejaVuSans-44c"/>
    </g>
    <!-- every day -->
    <defs>
     <path d="M 2.984375 54.6875 
L 12.5 54.6875 
L 29.59375 8.796875 
L 46.6875 54.6875 
L 56.203125 54.6875 
L 35.6875 0 
L 23.484375 0 
z
" id="DejaVuSans-76"/>
    </defs>
    <g transform="translate(127.3875 483.370909)scale(0.1 -0.1)">
     <use xlink:href="#DejaVuSans-65"/>
     <use x="61.523438" xlink:href="#DejaVuSans-76"/>
     <use x="120.703125" xlink:href="#DejaVuSans-65"/>
     <use x="182.226562" xlink:href="#DejaVuSans-72"/>
     <use x="223.339844" xlink:href="#DejaVuSans-79"/>
     <use x="282.519531" xlink:href="#DejaVuSans-20"/>
     <use x="314.306641" xlink:href="#DejaVuSans-64"/>
     <use x="377.783203" xlink:href="#DejaVuSans-61"/>
     <use x="439.0625" xlink:href="#DejaVuSans-79"/>
    </g>
   </g>
   <g id="patch_8">
    <path d="M 260.27196 488.412687 
Q 252.073464 492.911027 244.855154 496.87156 
" style="fill:none;stroke:#000000;stroke-linecap:round;"/>
    <path d="M 249.324031 496.700853 
L 244.855154 496.87156 
L 247.399914 493.194034 
L 249.324031 496.700853 
z
" style="fill:#1f77b4;stroke:#000000;stroke-linecap:round;"/>
   </g>
   <g id="text_24">
    <!-- По дням -->
    <defs>
     <path d="M 65.375 72.90625 
L 65.375 0 
L 55.515625 0 
L 55.515625 64.59375 
L 19.671875 64.59375 
L 19.671875 0 
L 9.8125 0 
L 9.8125 72.90625 
z
" id="DejaVuSans-41f"/>
    </defs>
    <g transform="translate(257.1225 472.173097)scale(0.1 -0.1)">
     <use xlink:href="#DejaVuSans-41f"/>
     <use x="75.195312" xlink:href="#DejaVuSans-43e"/>
     <use x="136.376953" xlink:href="#DejaVuSans-20"/>
     <use x="168.164062" xlink:href="#DejaVuSans-434"/>
     <use x="237.304688" xlink:href="#DejaVuSans-43d"/>
     <use x="302.685547" xlink:href="#DejaVuSans-44f"/>
     <use x="362.841797" xlink:href="#DejaVuSans-43c"/>
    </g>
    <!-- Some days -->
    <defs>
     <path d="M 53.515625 70.515625 
L 53.515625 60.890625 
Q 47.90625 63.578125 42.921875 64.890625 
Q 37.9375 66.21875 33.296875 66.21875 
Q 25.25 66.21875 20.875 63.09375 
Q 16.5 59.96875 16.5 54.203125 
Q 16.5 49.359375 19.40625 46.890625 
Q 22.3125 44.4375 30.421875 42.921875 
L 36.375 41.703125 
Q 47.40625 39.59375 52.65625 34.296875 
Q 57.90625 29 57.90625 20.125 
Q 57.90625 9.515625 50.796875 4.046875 
Q 43.703125 -1.421875 29.984375 -1.421875 
Q 24.8125 -1.421875 18.96875 -0.25 
Q 13.140625 0.921875 6.890625 3.21875 
L 6.890625 13.375 
Q 12.890625 10.015625 18.65625 8.296875 
Q 24.421875 6.59375 29.984375 6.59375 
Q 38.421875 6.59375 43.015625 9.90625 
Q 47.609375 13.234375 47.609375 19.390625 
Q 47.609375 24.75 44.3125 27.78125 
Q 41.015625 30.8125 33.5 32.328125 
L 27.484375 33.5 
Q 16.453125 35.6875 11.515625 40.375 
Q 6.59375 45.0625 6.59375 53.421875 
Q 6.59375 63.09375 13.40625 68.65625 
Q 20.21875 74.21875 32.171875 74.21875 
Q 37.3125 74.21875 42.625 73.28125 
Q 47.953125 72.359375 53.515625 70.515625 
z
" id="DejaVuSans-53"/>
    </defs>
    <g transform="translate(257.1225 483.370909)scale(0.1 -0.1)">
     <use xlink:href="#DejaVuSans-53"/>
     <use x="63.476562" xlink:href="#DejaVuSans-6f"/>
     <use x="124.658203" xlink:href="#DejaVuSans-6d"/>
     <use x="222.070312" xlink:href="#DejaVuSans-65"/>
     <use x="283.59375" xlink:href="#DejaVuSans-20"/>
     <use x="315.380859" xlink:href="#DejaVuSans-64"/>
     <use x="378.857422" xlink:href="#DejaVuSans-61"/>
     <use x="440.136719" xlink:href="#DejaVuSans-79"/>
     <use x="499.316406" xlink:href="#DejaVuSans-73"/>
    </g>
   </g>
   <g id="patch_9">
    <path d="M 384.252585 488.412687 
Q 376.054089 492.911027 368.835779 496.87156 
" style="fill:none;stroke:#000000;stroke-linecap:round;"/>
    <path d="M 373.304656 496.700853 
L 368.835779 496.87156 
L 371.380539 493.194034 
L 373.304656 496.700853 
z
" style="fill:#1f77b4;stroke:#000000;stroke-linecap:round;"/>
   </g>
   <g id="text_25">
    <!-- По дням -->
    <g transform="translate(381.103125 472.173097)scale(0.1 -0.1)">
     <use xlink:href="#DejaVuSans-41f"/>
     <use x="75.195312" xlink:href="#DejaVuSans-43e"/>
     <use x="136.376953" xlink:href="#DejaVuSans-20"/>
     <use x="168.164062" xlink:href="#DejaVuSans-434"/>
     <use x="237.304688" xlink:href="#DejaVuSans-43d"/>
     <use x="302.685547" xlink:href="#DejaVuSans-44f"/>
     <use x="362.841797" xlink:href="#DejaVuSans-43c"/>
    </g>
    <!-- Some days -->
    <g transform="translate(381.103125 483.370909)scale(0.1 -0.1)">
     <use xlink:href="#DejaVuSans-53"/>
     <use x="63.476562" xlink:href="#DejaVuSans-6f"/>
     <use x="124.658203" xlink:href="#DejaVuSans-6d"/>
     <use x="222.070312" xlink:href="#DejaVuSans-65"/>
     <use x="283.59375" xlink:href="#DejaVuSans-20"/>
     <use x="315.380859" xlink:href="#DejaVuSans-64"/>
     <use x="378.857422" xlink:href="#DejaVuSans-61"/>
     <use x="440.136719" xlink:href="#DejaVuSans-79"/>
     <use x="499.316406" xlink:href="#DejaVuSans-73"/>
    </g>
   </g>
   <g id="patch_10">
    <path d="M 249.550703 402.172144 
Q 239.422342 406.80092 230.310856 410.964973 
" style="fill:none;stroke:#000000;stroke-linecap:round;"/>
    <path d="M 234.780256 411.121369 
L 230.310856 410.964973 
L 233.117613 407.48329 
L 234.780256 411.121369 
z
" style="fill:#1f77b4;stroke:#000000;stroke-linecap:round;"/>
   </g>
   <g id="text_26">
    <!-- Каждый день -->
    <g transform="translate(242.475 386.063179)scale(0.1 -0.1)">
     <use xlink:href="#DejaVuSans-41a"/>
     <use x="70.996094" xlink:href="#DejaVuSans-430"/>
     <use x="132.275391" xlink:href="#DejaVuSans-436"/>
     <use x="222.363281" xlink:href="#DejaVuSans-434"/>
     <use x="291.503906" xlink:href="#DejaVuSans-44b"/>
     <use x="370.458984" xlink:href="#DejaVuSans-439"/>
     <use x="435.449219" xlink:href="#DejaVuSans-20"/>
     <use x="467.236328" xlink:href="#DejaVuSans-434"/>
     <use x="536.376953" xlink:href="#DejaVuSans-435"/>
     <use x="597.900391" xlink:href="#DejaVuSans-43d"/>
     <use x="663.28125" xlink:href="#DejaVuSans-44c"/>
    </g>
    <!-- every day -->
    <g transform="translate(242.475 397.260992)scale(0.1 -0.1)">
     <use xlink:href="#DejaVuSans-65"/>
     <use x="61.523438" xlink:href="#DejaVuSans-76"/>
     <use x="120.703125" xlink:href="#DejaVuSans-65"/>
     <use x="182.226562" xlink:href="#DejaVuSans-72"/>
     <use x="223.339844" xlink:href="#DejaVuSans-79"/>
     <use x="282.519531" xlink:href="#DejaVuSans-20"/>
     <use x="314.306641" xlink:href="#DejaVuSans-64"/>
     <use x="377.783203" xlink:href="#DejaVuSans-61"/>
     <use x="439.0625" xlink:href="#DejaVuSans-79"/>
    </g>
   </g>
   <g id="patch_11">
    <path d="M 397.33071 266.120125 
Q 389.132214 270.618465 381.913904 274.578998 
" style="fill:none;stroke:#000000;stroke-linecap:round;"/>
    <path d="M 386.382781 274.408291 
L 381.913904 274.578998 
L 384.458664 270.901472 
L 386.382781 274.408291 
z
" style="fill:#1f77b4;stroke:#000000;stroke-linecap:round;"/>
   </g>
   <g id="text_27">
    <!-- По дням -->
    <g transform="translate(394.18125 249.880535)scale(0.1 -0.1)">
     <use xlink:href="#DejaVuSans-41f"/>
     <use x="75.195312" xlink:href="#DejaVuSans-43e"/>
     <use x="136.376953" xlink:href="#DejaVuSans-20"/>
     <use x="168.164062" xlink:href="#DejaVuSans-434"/>
     <use x="237.304688" xlink:href="#DejaVuSans-43d"/>
     <use x="302.685547" xlink:href="#DejaVuSans-44f"/>
     <use x="362.841797" xlink:href="#DejaVuSans-43c"/>
    </g>
    <!-- Some days -->
    <g transform="translate(394.18125 261.078347)scale(0.1 -0.1)">
     <use xlink:href="#DejaVuSans-53"/>
     <use x="63.476562" xlink:href="#DejaVuSans-6f"/>
     <use x="124.658203" xlink:href="#DejaVuSans-6d"/>
     <use x="222.070312" xlink:href="#DejaVuSans-65"/>
     <use x="283.59375" xlink:href="#DejaVuSans-20"/>
     <use x="315.380859" xlink:href="#DejaVuSans-64"/>
     <use x="378.857422" xlink:href="#DejaVuSans-61"/>
     <use x="440.136719" xlink:href="#DejaVuSans-79"/>
     <use x="499.316406" xlink:href="#DejaVuSans-73"/>
    </g>
   </g>
   <g id="patch_12">
    <path d="M 177.126674 99.963051 
Q 132.019741 105.209146 88.023356 110.32608 
" style="fill:none;stroke:#000000;stroke-linecap:round;"/>
    <path d="M 92.227624 111.85059 
L 88.023356 110.32608 
L 91.765525 107.877372 
L 92.227624 111.85059 
z
" style="fill:#1f77b4;stroke:#000000;stroke-linecap:round;"/>
   </g>
   <g id="text_28">
    <!-- Летом - теплоход до речного вокзала, зимой автобус до 202 квартала -->
    <defs>
     <path d="M 4.109375 0 
L 4.109375 8.296875 
Q 14.703125 10.59375 17.71875 18.609375 
Q 21.96875 31.203125 21.96875 60.5 
L 21.96875 72.90625 
L 65.328125 72.90625 
L 65.328125 0 
L 55.46875 0 
L 55.46875 64.59375 
L 31.78125 64.59375 
L 31.78125 55.609375 
Q 31.78125 27.984375 26.8125 15.09375 
Q 22.015625 2.734375 4.109375 0 
z
" id="DejaVuSans-41b"/>
     <path d="M 4.890625 31.390625 
L 31.203125 31.390625 
L 31.203125 23.390625 
L 4.890625 23.390625 
z
" id="DejaVuSans-2d"/>
     <path d="M 56.296875 54.6875 
L 56.296875 0 
L 47.265625 0 
L 47.265625 47.515625 
L 18.109375 47.515625 
L 18.109375 0 
L 9.078125 0 
L 9.078125 54.6875 
z
" id="DejaVuSans-43f"/>
     <path d="M 3.71875 0 
L 3.71875 7.46875 
Q 12.59375 8.84375 15.328125 14.984375 
Q 18.65625 23.640625 18.65625 45.75 
L 18.65625 54.6875 
L 55.609375 54.6875 
L 55.609375 0 
L 46.625 0 
L 46.625 47.515625 
L 27.640625 47.515625 
L 27.640625 42.09375 
Q 27.640625 21 23.34375 11.53125 
Q 18.75 1.421875 3.71875 0 
z
" id="DejaVuSans-43b"/>
     <path d="M 41.015625 0 
L 41.015625 23 
L 24.265625 23 
Q 16.796875 23 11.8125 27.640625 
Q 7.328125 31.84375 7.328125 40.828125 
L 7.328125 54.6875 
L 16.3125 54.6875 
L 16.3125 41.65625 
Q 16.3125 35.9375 18.84375 33.0625 
Q 21.4375 30.171875 26.515625 30.171875 
L 41.015625 30.171875 
L 41.015625 54.6875 
L 50 54.6875 
L 50 0 
z
" id="DejaVuSans-447"/>
     <path d="M 18.0625 25.203125 
L 18.0625 7.171875 
L 30.859375 7.171875 
Q 37.015625 7.171875 40.234375 9.484375 
Q 43.453125 11.8125 43.453125 16.21875 
Q 43.453125 20.609375 40.234375 22.90625 
Q 37.015625 25.203125 30.859375 25.203125 
z
M 18.0625 47.515625 
L 18.0625 32.375 
L 29.890625 32.375 
Q 34.96875 32.375 38.1875 34.390625 
Q 41.40625 36.421875 41.40625 40.046875 
Q 41.40625 43.65625 38.1875 45.578125 
Q 34.96875 47.515625 29.890625 47.515625 
z
M 9.078125 54.6875 
L 30.46875 54.6875 
Q 40.09375 54.6875 45.265625 51.171875 
Q 50.4375 47.65625 50.4375 41.15625 
Q 50.4375 36.140625 47.796875 33.171875 
Q 45.171875 30.21875 39.984375 29.5 
Q 46.1875 28.328125 49.609375 24.609375 
Q 53.03125 20.90625 53.03125 15.328125 
Q 53.03125 8.015625 47.390625 4 
Q 41.75 0 31.296875 0 
L 9.078125 0 
z
" id="DejaVuSans-432"/>
     <path d="M 34.46875 29.5 
Q 40.53125 28.328125 43.890625 24.75 
Q 47.265625 21.1875 47.265625 15.921875 
Q 47.265625 7.46875 40.96875 3.015625 
Q 34.671875 -1.421875 23.046875 -1.421875 
Q 19.140625 -1.421875 15.015625 -0.734375 
Q 10.890625 -0.046875 6.5 1.3125 
L 6.5 9.671875 
Q 9.96875 7.859375 14.109375 6.953125 
Q 18.265625 6.0625 22.796875 6.0625 
Q 30.171875 6.0625 34.296875 8.796875 
Q 38.421875 11.53125 38.421875 15.921875 
Q 38.421875 20.21875 34.765625 22.828125 
Q 31.109375 25.4375 24.421875 25.4375 
L 17.1875 25.4375 
L 17.1875 32.859375 
L 24.75 32.859375 
Q 30.421875 32.859375 33.71875 35.03125 
Q 37.015625 37.203125 37.015625 40.625 
Q 37.015625 43.75 33.609375 46 
Q 30.21875 48.25 24.421875 48.25 
Q 20.953125 48.25 17.015625 47.609375 
Q 13.09375 46.96875 8.34375 45.5625 
L 8.34375 53.71875 
Q 13.140625 54.890625 17.28125 55.46875 
Q 21.4375 56.0625 25.140625 56.0625 
Q 34.71875 56.0625 40.25 52.21875 
Q 45.796875 48.390625 45.796875 41.5 
Q 45.796875 36.96875 42.859375 33.8125 
Q 39.9375 30.671875 34.46875 29.5 
z
" id="DejaVuSans-437"/>
     <path d="M 11.71875 12.40625 
L 22.015625 12.40625 
L 22.015625 4 
L 14.015625 -11.625 
L 7.71875 -11.625 
L 11.71875 4 
z
" id="DejaVuSans-2c"/>
     <path d="M 31.109375 56 
Q 42.828125 56 49.515625 48.375 
Q 56.203125 40.765625 56.203125 27.296875 
Q 56.203125 13.875 49.515625 6.21875 
Q 42.828125 -1.421875 31.109375 -1.421875 
Q 19.34375 -1.421875 12.84375 6 
Q 6.34375 13.421875 6 27.296875 
L 5.71875 38.484375 
Q 5.46875 44.28125 5.46875 46.296875 
Q 5.46875 54.109375 8.296875 59.859375 
Q 12.75 68.890625 20.4375 72.796875 
Q 28.125 76.703125 41.015625 76.8125 
Q 46.96875 76.859375 49.609375 77.6875 
L 52.09375 70.5625 
Q 49.703125 69.578125 47.515625 69.53125 
L 35.296875 68.703125 
Q 29.15625 68.265625 25.4375 66.109375 
Q 15.71875 60.40625 14.796875 52.9375 
L 14.453125 50.203125 
Q 20.796875 56 31.109375 56 
z
M 31.109375 48.390625 
Q 23.875 48.390625 19.671875 42.75 
Q 15.484375 37.109375 15.484375 27.296875 
Q 15.484375 17.484375 19.65625 11.84375 
Q 23.828125 6.203125 31.109375 6.203125 
Q 38.28125 6.203125 42.484375 11.859375 
Q 46.6875 17.53125 46.6875 27.296875 
Q 46.6875 37.015625 42.484375 42.703125 
Q 38.28125 48.390625 31.109375 48.390625 
z
" id="DejaVuSans-431"/>
    </defs>
    <g transform="translate(99.923437 84.454737)scale(0.1 -0.1)">
     <use xlink:href="#DejaVuSans-41b"/>
     <use x="75.195312" xlink:href="#DejaVuSans-435"/>
     <use x="136.71875" xlink:href="#DejaVuSans-442"/>
     <use x="194.970703" xlink:href="#DejaVuSans-43e"/>
     <use x="256.152344" xlink:href="#DejaVuSans-43c"/>
     <use x="331.591797" xlink:href="#DejaVuSans-20"/>
     <use x="363.378906" xlink:href="#DejaVuSans-2d"/>
     <use x="399.462891" xlink:href="#DejaVuSans-20"/>
     <use x="431.25" xlink:href="#DejaVuSans-442"/>
     <use x="489.501953" xlink:href="#DejaVuSans-435"/>
     <use x="551.025391" xlink:href="#DejaVuSans-43f"/>
     <use x="616.40625" xlink:href="#DejaVuSans-43b"/>
     <use x="680.322266" xlink:href="#DejaVuSans-43e"/>
     <use x="741.503906" xlink:href="#DejaVuSans-445"/>
     <use x="800.683594" xlink:href="#DejaVuSans-43e"/>
     <use x="861.865234" xlink:href="#DejaVuSans-434"/>
     <use x="931.005859" xlink:href="#DejaVuSans-20"/>
     <use x="962.792969" xlink:href="#DejaVuSans-434"/>
     <use x="1031.933594" xlink:href="#DejaVuSans-43e"/>
     <use x="1093.115234" xlink:href="#DejaVuSans-20"/>
     <use x="1124.902344" xlink:href="#DejaVuSans-440"/>
     <use x="1188.378906" xlink:href="#DejaVuSans-435"/>
     <use x="1249.902344" xlink:href="#DejaVuSans-447"/>
     <use x="1308.984375" xlink:href="#DejaVuSans-43d"/>
     <use x="1374.365234" xlink:href="#DejaVuSans-43e"/>
     <use x="1435.546875" xlink:href="#DejaVuSans-433"/>
     <use x="1488.085938" xlink:href="#DejaVuSans-43e"/>
     <use x="1549.267578" xlink:href="#DejaVuSans-20"/>
     <use x="1581.054688" xlink:href="#DejaVuSans-432"/>
     <use x="1639.990234" xlink:href="#DejaVuSans-43e"/>
     <use x="1701.171875" xlink:href="#DejaVuSans-43a"/>
     <use x="1761.572266" xlink:href="#DejaVuSans-437"/>
     <use x="1814.746094" xlink:href="#DejaVuSans-430"/>
     <use x="1876.025391" xlink:href="#DejaVuSans-43b"/>
     <use x="1939.941406" xlink:href="#DejaVuSans-430"/>
     <use x="2001.220703" xlink:href="#DejaVuSans-2c"/>
     <use x="2033.007812" xlink:href="#DejaVuSans-20"/>
     <use x="2064.794922" xlink:href="#DejaVuSans-437"/>
     <use x="2117.96875" xlink:href="#DejaVuSans-438"/>
     <use x="2182.958984" xlink:href="#DejaVuSans-43c"/>
     <use x="2258.398438" xlink:href="#DejaVuSans-43e"/>
     <use x="2319.580078" xlink:href="#DejaVuSans-439"/>
     <use x="2384.570312" xlink:href="#DejaVuSans-20"/>
     <use x="2416.357422" xlink:href="#DejaVuSans-430"/>
     <use x="2477.636719" xlink:href="#DejaVuSans-432"/>
     <use x="2536.572266" xlink:href="#DejaVuSans-442"/>
     <use x="2594.824219" xlink:href="#DejaVuSans-43e"/>
     <use x="2656.005859" xlink:href="#DejaVuSans-431"/>
     <use x="2717.675781" xlink:href="#DejaVuSans-443"/>
     <use x="2776.855469" xlink:href="#DejaVuSans-441"/>
     <use x="2831.835938" xlink:href="#DejaVuSans-20"/>
     <use x="2863.623047" xlink:href="#DejaVuSans-434"/>
     <use x="2932.763672" xlink:href="#DejaVuSans-43e"/>
     <use x="2993.945312" xlink:href="#DejaVuSans-20"/>
     <use x="3025.732422" xlink:href="#DejaVuSans-32"/>
     <use x="3089.355469" xlink:href="#DejaVuSans-30"/>
     <use x="3152.978516" xlink:href="#DejaVuSans-32"/>
     <use x="3216.601562" xlink:href="#DejaVuSans-20"/>
     <use x="3248.388672" xlink:href="#DejaVuSans-43a"/>
     <use x="3308.789062" xlink:href="#DejaVuSans-432"/>
     <use x="3367.724609" xlink:href="#DejaVuSans-430"/>
     <use x="3429.003906" xlink:href="#DejaVuSans-440"/>
     <use x="3492.480469" xlink:href="#DejaVuSans-442"/>
     <use x="3550.732422" xlink:href="#DejaVuSans-430"/>
     <use x="3612.011719" xlink:href="#DejaVuSans-43b"/>
     <use x="3675.927734" xlink:href="#DejaVuSans-430"/>
    </g>
    <!-- bus+ship to Yakutsk river terminal, at winter bus to Yakutsk 202 quarter -->
    <defs>
     <path d="M 48.6875 27.296875 
Q 48.6875 37.203125 44.609375 42.84375 
Q 40.53125 48.484375 33.40625 48.484375 
Q 26.265625 48.484375 22.1875 42.84375 
Q 18.109375 37.203125 18.109375 27.296875 
Q 18.109375 17.390625 22.1875 11.75 
Q 26.265625 6.109375 33.40625 6.109375 
Q 40.53125 6.109375 44.609375 11.75 
Q 48.6875 17.390625 48.6875 27.296875 
z
M 18.109375 46.390625 
Q 20.953125 51.265625 25.265625 53.625 
Q 29.59375 56 35.59375 56 
Q 45.5625 56 51.78125 48.09375 
Q 58.015625 40.1875 58.015625 27.296875 
Q 58.015625 14.40625 51.78125 6.484375 
Q 45.5625 -1.421875 35.59375 -1.421875 
Q 29.59375 -1.421875 25.265625 0.953125 
Q 20.953125 3.328125 18.109375 8.203125 
L 18.109375 0 
L 9.078125 0 
L 9.078125 75.984375 
L 18.109375 75.984375 
z
" id="DejaVuSans-62"/>
     <path d="M 46 62.703125 
L 46 35.5 
L 73.1875 35.5 
L 73.1875 27.203125 
L 46 27.203125 
L 46 0 
L 37.796875 0 
L 37.796875 27.203125 
L 10.59375 27.203125 
L 10.59375 35.5 
L 37.796875 35.5 
L 37.796875 62.703125 
z
" id="DejaVuSans-2b"/>
     <path d="M 18.109375 8.203125 
L 18.109375 -20.796875 
L 9.078125 -20.796875 
L 9.078125 54.6875 
L 18.109375 54.6875 
L 18.109375 46.390625 
Q 20.953125 51.265625 25.265625 53.625 
Q 29.59375 56 35.59375 56 
Q 45.5625 56 51.78125 48.09375 
Q 58.015625 40.1875 58.015625 27.296875 
Q 58.015625 14.40625 51.78125 6.484375 
Q 45.5625 -1.421875 35.59375 -1.421875 
Q 29.59375 -1.421875 25.265625 0.953125 
Q 20.953125 3.328125 18.109375 8.203125 
z
M 48.6875 27.296875 
Q 48.6875 37.203125 44.609375 42.84375 
Q 40.53125 48.484375 33.40625 48.484375 
Q 26.265625 48.484375 22.1875 42.84375 
Q 18.109375 37.203125 18.109375 27.296875 
Q 18.109375 17.390625 22.1875 11.75 
Q 26.265625 6.109375 33.40625 6.109375 
Q 40.53125 6.109375 44.609375 11.75 
Q 48.6875 17.390625 48.6875 27.296875 
z
" id="DejaVuSans-70"/>
     <path d="M -0.203125 72.90625 
L 10.40625 72.90625 
L 30.609375 42.921875 
L 50.6875 72.90625 
L 61.28125 72.90625 
L 35.5 34.71875 
L 35.5 0 
L 25.59375 0 
L 25.59375 34.71875 
z
" id="DejaVuSans-59"/>
     <path d="M 9.421875 75.984375 
L 18.40625 75.984375 
L 18.40625 0 
L 9.421875 0 
z
" id="DejaVuSans-6c"/>
     <path d="M 4.203125 54.6875 
L 13.1875 54.6875 
L 24.421875 12.015625 
L 35.59375 54.6875 
L 46.1875 54.6875 
L 57.421875 12.015625 
L 68.609375 54.6875 
L 77.59375 54.6875 
L 63.28125 0 
L 52.6875 0 
L 40.921875 44.828125 
L 29.109375 0 
L 18.5 0 
z
" id="DejaVuSans-77"/>
     <path d="M 14.796875 27.296875 
Q 14.796875 17.390625 18.875 11.75 
Q 22.953125 6.109375 30.078125 6.109375 
Q 37.203125 6.109375 41.296875 11.75 
Q 45.40625 17.390625 45.40625 27.296875 
Q 45.40625 37.203125 41.296875 42.84375 
Q 37.203125 48.484375 30.078125 48.484375 
Q 22.953125 48.484375 18.875 42.84375 
Q 14.796875 37.203125 14.796875 27.296875 
z
M 45.40625 8.203125 
Q 42.578125 3.328125 38.25 0.953125 
Q 33.9375 -1.421875 27.875 -1.421875 
Q 17.96875 -1.421875 11.734375 6.484375 
Q 5.515625 14.40625 5.515625 27.296875 
Q 5.515625 40.1875 11.734375 48.09375 
Q 17.96875 56 27.875 56 
Q 33.9375 56 38.25 53.625 
Q 42.578125 51.265625 45.40625 46.390625 
L 45.40625 54.6875 
L 54.390625 54.6875 
L 54.390625 -20.796875 
L 45.40625 -20.796875 
z
" id="DejaVuSans-71"/>
    </defs>
    <g transform="translate(99.923437 95.652549)scale(0.1 -0.1)">
     <use xlink:href="#DejaVuSans-62"/>
     <use x="63.476562" xlink:href="#DejaVuSans-75"/>
     <use x="126.855469" xlink:href="#DejaVuSans-73"/>
     <use x="178.955078" xlink:href="#DejaVuSans-2b"/>
     <use x="262.744141" xlink:href="#DejaVuSans-73"/>
     <use x="314.84375" xlink:href="#DejaVuSans-68"/>
     <use x="378.222656" xlink:href="#DejaVuSans-69"/>
     <use x="406.005859" xlink:href="#DejaVuSans-70"/>
     <use x="469.482422" xlink:href="#DejaVuSans-20"/>
     <use x="501.269531" xlink:href="#DejaVuSans-74"/>
     <use x="540.478516" xlink:href="#DejaVuSans-6f"/>
     <use x="601.660156" xlink:href="#DejaVuSans-20"/>
     <use x="633.447266" xlink:href="#DejaVuSans-59"/>
     <use x="694.328125" xlink:href="#DejaVuSans-61"/>
     <use x="755.607422" xlink:href="#DejaVuSans-6b"/>
     <use x="813.470703" xlink:href="#DejaVuSans-75"/>
     <use x="876.849609" xlink:href="#DejaVuSans-74"/>
     <use x="916.058594" xlink:href="#DejaVuSans-73"/>
     <use x="968.158203" xlink:href="#DejaVuSans-6b"/>
     <use x="1026.068359" xlink:href="#DejaVuSans-20"/>
     <use x="1057.855469" xlink:href="#DejaVuSans-72"/>
     <use x="1098.96875" xlink:href="#DejaVuSans-69"/>
     <use x="1126.751953" xlink:href="#DejaVuSans-76"/>
     <use x="1185.931641" xlink:href="#DejaVuSans-65"/>
     <use x="1247.455078" xlink:href="#DejaVuSans-72"/>
     <use x="1288.568359" xlink:href="#DejaVuSans-20"/>
     <use x="1320.355469" xlink:href="#DejaVuSans-74"/>
     <use x="1359.564453" xlink:href="#DejaVuSans-65"/>
     <use x="1421.087891" xlink:href="#DejaVuSans-72"/>
     <use x="1462.185547" xlink:href="#DejaVuSans-6d"/>
     <use x="1559.597656" xlink:href="#DejaVuSans-69"/>
     <use x="1587.380859" xlink:href="#DejaVuSans-6e"/>
     <use x="1650.759766" xlink:href="#DejaVuSans-61"/>
     <use x="1712.039062" xlink:href="#DejaVuSans-6c"/>
     <use x="1739.822266" xlink:href="#DejaVuSans-2c"/>
     <use x="1771.609375" xlink:href="#DejaVuSans-20"/>
     <use x="1803.396484" xlink:href="#DejaVuSans-61"/>
     <use x="1864.675781" xlink:href="#DejaVuSans-74"/>
     <use x="1903.884766" xlink:href="#DejaVuSans-20"/>
     <use x="1935.671875" xlink:href="#DejaVuSans-77"/>
     <use x="2017.458984" xlink:href="#DejaVuSans-69"/>
     <use x="2045.242188" xlink:href="#DejaVuSans-6e"/>
     <use x="2108.621094" xlink:href="#DejaVuSans-74"/>
     <use x="2147.830078" xlink:href="#DejaVuSans-65"/>
     <use x="2209.353516" xlink:href="#DejaVuSans-72"/>
     <use x="2250.466797" xlink:href="#DejaVuSans-20"/>
     <use x="2282.253906" xlink:href="#DejaVuSans-62"/>
     <use x="2345.730469" xlink:href="#DejaVuSans-75"/>
     <use x="2409.109375" xlink:href="#DejaVuSans-73"/>
     <use x="2461.208984" xlink:href="#DejaVuSans-20"/>
     <use x="2492.996094" xlink:href="#DejaVuSans-74"/>
     <use x="2532.205078" xlink:href="#DejaVuSans-6f"/>
     <use x="2593.386719" xlink:href="#DejaVuSans-20"/>
     <use x="2625.173828" xlink:href="#DejaVuSans-59"/>
     <use x="2686.054688" xlink:href="#DejaVuSans-61"/>
     <use x="2747.333984" xlink:href="#DejaVuSans-6b"/>
     <use x="2805.197266" xlink:href="#DejaVuSans-75"/>
     <use x="2868.576172" xlink:href="#DejaVuSans-74"/>
     <use x="2907.785156" xlink:href="#DejaVuSans-73"/>
     <use x="2959.884766" xlink:href="#DejaVuSans-6b"/>
     <use x="3017.794922" xlink:href="#DejaVuSans-20"/>
     <use x="3049.582031" xlink:href="#DejaVuSans-32"/>
     <use x="3113.205078" xlink:href="#DejaVuSans-30"/>
     <use x="3176.828125" xlink:href="#DejaVuSans-32"/>
     <use x="3240.451172" xlink:href="#DejaVuSans-20"/>
     <use x="3272.238281" xlink:href="#DejaVuSans-71"/>
     <use x="3335.714844" xlink:href="#DejaVuSans-75"/>
     <use x="3399.09375" xlink:href="#DejaVuSans-61"/>
     <use x="3460.373047" xlink:href="#DejaVuSans-72"/>
     <use x="3501.486328" xlink:href="#DejaVuSans-74"/>
     <use x="3540.695312" xlink:href="#DejaVuSans-65"/>
     <use x="3602.21875" xlink:href="#DejaVuSans-72"/>
    </g>
   </g>
   <g id="text_29">
    <!-- Тында - Нижний Бестях. График движения поездов на 2020 -->
    <defs>
     <path d="M 10.6875 12.40625 
L 21 12.40625 
L 21 0 
L 10.6875 0 
z
" id="DejaVuSans-2e"/>
     <path d="M 9.8125 0 
L 9.8125 72.90625 
L 55.171875 72.90625 
L 55.171875 64.59375 
L 19.671875 64.59375 
L 19.671875 0 
z
" id="DejaVuSans-413"/>
     <path d="M 14.796875 27.296875 
Q 14.796875 15.828125 18.328125 10.96875 
Q 21.875 6.109375 27.875 6.109375 
Q 32.671875 6.109375 38.234375 14.3125 
L 38.234375 40.28125 
Q 32.671875 48.484375 27.875 48.484375 
Q 21.875 48.484375 18.328125 43.625 
Q 14.796875 38.765625 14.796875 27.296875 
z
M 38.234375 -20.796875 
L 38.234375 6.984375 
Q 35.453125 2.390625 32.25 0.484375 
Q 29.046875 -1.421875 25 -1.421875 
Q 16.84375 -1.421875 11.15625 6.125 
Q 5.46875 13.671875 5.46875 27.09375 
Q 5.46875 40.53125 11.15625 48.265625 
Q 16.84375 56 25 56 
Q 29.046875 56 32.25 54.140625 
Q 35.453125 52.296875 38.234375 47.703125 
L 38.234375 72.90625 
L 47.265625 72.90625 
L 47.265625 47.703125 
Q 50.046875 52.296875 53.25 54.140625 
Q 56.453125 56 60.5 56 
Q 68.65625 56 74.34375 48.265625 
Q 80.03125 40.53125 80.03125 27.09375 
Q 80.03125 13.671875 74.34375 6.125 
Q 68.65625 -1.421875 60.5 -1.421875 
Q 56.453125 -1.421875 53.25 0.484375 
Q 50.046875 2.390625 47.265625 6.984375 
L 47.265625 -20.796875 
z
M 70.703125 27.296875 
Q 70.703125 38.765625 67.15625 43.625 
Q 63.625 48.484375 57.625 48.484375 
Q 52.828125 48.484375 47.265625 40.28125 
L 47.265625 14.3125 
Q 52.828125 6.109375 57.625 6.109375 
Q 63.625 6.109375 67.15625 10.96875 
Q 70.703125 15.828125 70.703125 27.296875 
z
" id="DejaVuSans-444"/>
    </defs>
    <g transform="translate(140.71125 57.988875)scale(0.12 -0.12)">
     <use xlink:href="#DejaVuSans-422"/>
     <use x="61.083984" xlink:href="#DejaVuSans-44b"/>
     <use x="140.039062" xlink:href="#DejaVuSans-43d"/>
     <use x="205.419922" xlink:href="#DejaVuSans-434"/>
     <use x="274.560547" xlink:href="#DejaVuSans-430"/>
     <use x="335.839844" xlink:href="#DejaVuSans-20"/>
     <use x="367.626953" xlink:href="#DejaVuSans-2d"/>
     <use x="403.710938" xlink:href="#DejaVuSans-20"/>
     <use x="435.498047" xlink:href="#DejaVuSans-41d"/>
     <use x="510.693359" xlink:href="#DejaVuSans-438"/>
     <use x="575.683594" xlink:href="#DejaVuSans-436"/>
     <use x="665.771484" xlink:href="#DejaVuSans-43d"/>
     <use x="731.152344" xlink:href="#DejaVuSans-438"/>
     <use x="796.142578" xlink:href="#DejaVuSans-439"/>
     <use x="861.132812" xlink:href="#DejaVuSans-20"/>
     <use x="892.919922" xlink:href="#DejaVuSans-411"/>
     <use x="961.523438" xlink:href="#DejaVuSans-435"/>
     <use x="1023.046875" xlink:href="#DejaVuSans-441"/>
     <use x="1078.027344" xlink:href="#DejaVuSans-442"/>
     <use x="1136.279297" xlink:href="#DejaVuSans-44f"/>
     <use x="1196.435547" xlink:href="#DejaVuSans-445"/>
     <use x="1255.615234" xlink:href="#DejaVuSans-2e"/>
     <use x="1287.402344" xlink:href="#DejaVuSans-20"/>
     <use x="1319.189453" xlink:href="#DejaVuSans-413"/>
     <use x="1380.175781" xlink:href="#DejaVuSans-440"/>
     <use x="1443.652344" xlink:href="#DejaVuSans-430"/>
     <use x="1504.931641" xlink:href="#DejaVuSans-444"/>
     <use x="1590.429688" xlink:href="#DejaVuSans-438"/>
     <use x="1655.419922" xlink:href="#DejaVuSans-43a"/>
     <use x="1715.820312" xlink:href="#DejaVuSans-20"/>
     <use x="1747.607422" xlink:href="#DejaVuSans-434"/>
     <use x="1816.748047" xlink:href="#DejaVuSans-432"/>
     <use x="1875.683594" xlink:href="#DejaVuSans-438"/>
     <use x="1940.673828" xlink:href="#DejaVuSans-436"/>
     <use x="2030.761719" xlink:href="#DejaVuSans-435"/>
     <use x="2092.285156" xlink:href="#DejaVuSans-43d"/>
     <use x="2157.666016" xlink:href="#DejaVuSans-438"/>
     <use x="2222.65625" xlink:href="#DejaVuSans-44f"/>
     <use x="2282.8125" xlink:href="#DejaVuSans-20"/>
     <use x="2314.599609" xlink:href="#DejaVuSans-43f"/>
     <use x="2379.980469" xlink:href="#DejaVuSans-43e"/>
     <use x="2441.162109" xlink:href="#DejaVuSans-435"/>
     <use x="2502.685547" xlink:href="#DejaVuSans-437"/>
     <use x="2555.859375" xlink:href="#DejaVuSans-434"/>
     <use x="2625" xlink:href="#DejaVuSans-43e"/>
     <use x="2686.181641" xlink:href="#DejaVuSans-432"/>
     <use x="2745.117188" xlink:href="#DejaVuSans-20"/>
     <use x="2776.904297" xlink:href="#DejaVuSans-43d"/>
     <use x="2842.285156" xlink:href="#DejaVuSans-430"/>
     <use x="2903.564453" xlink:href="#DejaVuSans-20"/>
     <use x="2935.351562" xlink:href="#DejaVuSans-32"/>
     <use x="2998.974609" xlink:href="#DejaVuSans-30"/>
     <use x="3062.597656" xlink:href="#DejaVuSans-32"/>
     <use x="3126.220703" xlink:href="#DejaVuSans-30"/>
    </g>
    <!-- Tynda-Nizniy_Bestyakh. Train diagram for 2020 -->
    <defs>
     <path d="M 50.984375 -16.609375 
L 50.984375 -23.578125 
L -0.984375 -23.578125 
L -0.984375 -16.609375 
z
" id="DejaVuSans-5f"/>
     <path d="M 37.109375 75.984375 
L 37.109375 68.5 
L 28.515625 68.5 
Q 23.6875 68.5 21.796875 66.546875 
Q 19.921875 64.59375 19.921875 59.515625 
L 19.921875 54.6875 
L 34.71875 54.6875 
L 34.71875 47.703125 
L 19.921875 47.703125 
L 19.921875 0 
L 10.890625 0 
L 10.890625 47.703125 
L 2.296875 47.703125 
L 2.296875 54.6875 
L 10.890625 54.6875 
L 10.890625 58.5 
Q 10.890625 67.625 15.140625 71.796875 
Q 19.390625 75.984375 28.609375 75.984375 
z
" id="DejaVuSans-66"/>
    </defs>
    <g transform="translate(189.06 71.42625)scale(0.12 -0.12)">
     <use xlink:href="#DejaVuSans-54"/>
     <use x="60.849609" xlink:href="#DejaVuSans-79"/>
     <use x="120.029297" xlink:href="#DejaVuSans-6e"/>
     <use x="183.408203" xlink:href="#DejaVuSans-64"/>
     <use x="246.884766" xlink:href="#DejaVuSans-61"/>
     <use x="308.164062" xlink:href="#DejaVuSans-2d"/>
     <use x="344.248047" xlink:href="#DejaVuSans-4e"/>
     <use x="419.052734" xlink:href="#DejaVuSans-69"/>
     <use x="446.835938" xlink:href="#DejaVuSans-7a"/>
     <use x="499.326172" xlink:href="#DejaVuSans-6e"/>
     <use x="562.705078" xlink:href="#DejaVuSans-69"/>
     <use x="590.488281" xlink:href="#DejaVuSans-79"/>
     <use x="649.667969" xlink:href="#DejaVuSans-5f"/>
     <use x="699.667969" xlink:href="#DejaVuSans-42"/>
     <use x="768.271484" xlink:href="#DejaVuSans-65"/>
     <use x="829.794922" xlink:href="#DejaVuSans-73"/>
     <use x="881.894531" xlink:href="#DejaVuSans-74"/>
     <use x="921.103516" xlink:href="#DejaVuSans-79"/>
     <use x="980.283203" xlink:href="#DejaVuSans-61"/>
     <use x="1041.5625" xlink:href="#DejaVuSans-6b"/>
     <use x="1099.472656" xlink:href="#DejaVuSans-68"/>
     <use x="1162.851562" xlink:href="#DejaVuSans-2e"/>
     <use x="1194.638672" xlink:href="#DejaVuSans-20"/>
     <use x="1226.425781" xlink:href="#DejaVuSans-54"/>
     <use x="1287.291016" xlink:href="#DejaVuSans-72"/>
     <use x="1328.404297" xlink:href="#DejaVuSans-61"/>
     <use x="1389.683594" xlink:href="#DejaVuSans-69"/>
     <use x="1417.466797" xlink:href="#DejaVuSans-6e"/>
     <use x="1480.845703" xlink:href="#DejaVuSans-20"/>
     <use x="1512.632812" xlink:href="#DejaVuSans-64"/>
     <use x="1576.109375" xlink:href="#DejaVuSans-69"/>
     <use x="1603.892578" xlink:href="#DejaVuSans-61"/>
     <use x="1665.171875" xlink:href="#DejaVuSans-67"/>
     <use x="1728.648438" xlink:href="#DejaVuSans-72"/>
     <use x="1769.761719" xlink:href="#DejaVuSans-61"/>
     <use x="1831.041016" xlink:href="#DejaVuSans-6d"/>
     <use x="1928.453125" xlink:href="#DejaVuSans-20"/>
     <use x="1960.240234" xlink:href="#DejaVuSans-66"/>
     <use x="1995.445312" xlink:href="#DejaVuSans-6f"/>
     <use x="2056.626953" xlink:href="#DejaVuSans-72"/>
     <use x="2097.740234" xlink:href="#DejaVuSans-20"/>
     <use x="2129.527344" xlink:href="#DejaVuSans-32"/>
     <use x="2193.150391" xlink:href="#DejaVuSans-30"/>
     <use x="2256.773438" xlink:href="#DejaVuSans-32"/>
     <use x="2320.396484" xlink:href="#DejaVuSans-30"/>
    </g>
   </g>
  </g>
 </g>
 <defs>
  <clipPath id="pc0abd200ac">
   <rect height="440.64" width="502.2" x="81" y="77.76"/>
  </clipPath>
 </defs>
</svg>
