<?xml version="1.0" encoding="utf-8" standalone="no"?>
<!DOCTYPE svg PUBLIC "-//W3C//DTD SVG 1.1//EN"
  "http://www.w3.org/Graphics/SVG/1.1/DTD/svg11.dtd">
<!-- Created with matplotlib (https://matplotlib.org/) -->
<svg height="648pt" version="1.1" viewBox="0 0 1368 648" width="1368pt" xmlns="http://www.w3.org/2000/svg" xmlns:xlink="http://www.w3.org/1999/xlink">
 <defs>
  <style type="text/css">
*{stroke-linecap:butt;stroke-linejoin:round;}
  </style>
 </defs>
 <g id="figure_1">
  <g id="patch_1">
   <path d="M 0 648 
L 1368 648 
L 1368 0 
L 0 0 
z
" style="fill:#ffffff;"/>
  </g>
  <g id="axes_1">
   <g id="patch_2">
    <path d="M 153.7 615.080464 
L 1302.885358 615.080464 
L 1302.885358 37.968 
L 153.7 37.968 
z
" style="fill:#ffffff;"/>
   </g>
   <g id="matplotlib.axis_1">
    <g id="xtick_1">
     <g id="line2d_1">
      <path clip-path="url(#p94345298d3)" d="M 153.7 615.080464 
L 153.7 37.968 
" style="fill:none;stroke:#b0b0b0;stroke-linecap:square;stroke-width:0.8;"/>
     </g>
     <g id="line2d_2">
      <defs>
       <path d="M 0 0 
L 0 3.5 
" id="mcde79165d2" style="stroke:#000000;stroke-width:0.8;"/>
      </defs>
      <g>
       <use style="stroke:#000000;stroke-width:0.8;" x="153.7" xlink:href="#mcde79165d2" y="615.080464"/>
      </g>
     </g>
     <g id="text_1">
      <!-- 03 -->
      <defs>
       <path d="M 31.78125 66.40625 
Q 24.171875 66.40625 20.328125 58.90625 
Q 16.5 51.421875 16.5 36.375 
Q 16.5 21.390625 20.328125 13.890625 
Q 24.171875 6.390625 31.78125 6.390625 
Q 39.453125 6.390625 43.28125 13.890625 
Q 47.125 21.390625 47.125 36.375 
Q 47.125 51.421875 43.28125 58.90625 
Q 39.453125 66.40625 31.78125 66.40625 
z
M 31.78125 74.21875 
Q 44.046875 74.21875 50.515625 64.515625 
Q 56.984375 54.828125 56.984375 36.375 
Q 56.984375 17.96875 50.515625 8.265625 
Q 44.046875 -1.421875 31.78125 -1.421875 
Q 19.53125 -1.421875 13.0625 8.265625 
Q 6.59375 17.96875 6.59375 36.375 
Q 6.59375 54.828125 13.0625 64.515625 
Q 19.53125 74.21875 31.78125 74.21875 
z
" id="DejaVuSans-48"/>
       <path d="M 40.578125 39.3125 
Q 47.65625 37.796875 51.625 33 
Q 55.609375 28.21875 55.609375 21.1875 
Q 55.609375 10.40625 48.1875 4.484375 
Q 40.765625 -1.421875 27.09375 -1.421875 
Q 22.515625 -1.421875 17.65625 -0.515625 
Q 12.796875 0.390625 7.625 2.203125 
L 7.625 11.71875 
Q 11.71875 9.328125 16.59375 8.109375 
Q 21.484375 6.890625 26.8125 6.890625 
Q 36.078125 6.890625 40.9375 10.546875 
Q 45.796875 14.203125 45.796875 21.1875 
Q 45.796875 27.640625 41.28125 31.265625 
Q 36.765625 34.90625 28.71875 34.90625 
L 20.21875 34.90625 
L 20.21875 43.015625 
L 29.109375 43.015625 
Q 36.375 43.015625 40.234375 45.921875 
Q 44.09375 48.828125 44.09375 54.296875 
Q 44.09375 59.90625 40.109375 62.90625 
Q 36.140625 65.921875 28.71875 65.921875 
Q 24.65625 65.921875 20.015625 65.03125 
Q 15.375 64.15625 9.8125 62.3125 
L 9.8125 71.09375 
Q 15.4375 72.65625 20.34375 73.4375 
Q 25.25 74.21875 29.59375 74.21875 
Q 40.828125 74.21875 47.359375 69.109375 
Q 53.90625 64.015625 53.90625 55.328125 
Q 53.90625 49.265625 50.4375 45.09375 
Q 46.96875 40.921875 40.578125 39.3125 
z
" id="DejaVuSans-51"/>
      </defs>
      <g transform="translate(141.639983 635.023404)rotate(-30)scale(0.1 -0.1)">
       <use xlink:href="#DejaVuSans-48"/>
       <use x="63.623047" xlink:href="#DejaVuSans-51"/>
      </g>
     </g>
    </g>
    <g id="xtick_2">
     <g id="line2d_3">
      <path clip-path="url(#p94345298d3)" d="M 210.920848 615.080464 
L 210.920848 37.968 
" style="fill:none;stroke:#b0b0b0;stroke-linecap:square;stroke-width:0.8;"/>
     </g>
     <g id="line2d_4">
      <g>
       <use style="stroke:#000000;stroke-width:0.8;" x="210.920848" xlink:href="#mcde79165d2" y="615.080464"/>
      </g>
     </g>
     <g id="text_2">
      <!-- 04 -->
      <defs>
       <path d="M 37.796875 64.3125 
L 12.890625 25.390625 
L 37.796875 25.390625 
z
M 35.203125 72.90625 
L 47.609375 72.90625 
L 47.609375 25.390625 
L 58.015625 25.390625 
L 58.015625 17.1875 
L 47.609375 17.1875 
L 47.609375 0 
L 37.796875 0 
L 37.796875 17.1875 
L 4.890625 17.1875 
L 4.890625 26.703125 
z
" id="DejaVuSans-52"/>
      </defs>
      <g transform="translate(198.860831 635.023404)rotate(-30)scale(0.1 -0.1)">
       <use xlink:href="#DejaVuSans-48"/>
       <use x="63.623047" xlink:href="#DejaVuSans-52"/>
      </g>
     </g>
    </g>
    <g id="xtick_3">
     <g id="line2d_5">
      <path clip-path="url(#p94345298d3)" d="M 268.141696 615.080464 
L 268.141696 37.968 
" style="fill:none;stroke:#b0b0b0;stroke-linecap:square;stroke-width:0.8;"/>
     </g>
     <g id="line2d_6">
      <g>
       <use style="stroke:#000000;stroke-width:0.8;" x="268.141696" xlink:href="#mcde79165d2" y="615.080464"/>
      </g>
     </g>
     <g id="text_3">
      <!-- 05 -->
      <defs>
       <path d="M 10.796875 72.90625 
L 49.515625 72.90625 
L 49.515625 64.59375 
L 19.828125 64.59375 
L 19.828125 46.734375 
Q 21.96875 47.46875 24.109375 47.828125 
Q 26.265625 48.1875 28.421875 48.1875 
Q 40.625 48.1875 47.75 41.5 
Q 54.890625 34.8125 54.890625 23.390625 
Q 54.890625 11.625 47.5625 5.09375 
Q 40.234375 -1.421875 26.90625 -1.421875 
Q 22.3125 -1.421875 17.546875 -0.640625 
Q 12.796875 0.140625 7.71875 1.703125 
L 7.71875 11.625 
Q 12.109375 9.234375 16.796875 8.0625 
Q 21.484375 6.890625 26.703125 6.890625 
Q 35.15625 6.890625 40.078125 11.328125 
Q 45.015625 15.765625 45.015625 23.390625 
Q 45.015625 31 40.078125 35.4375 
Q 35.15625 39.890625 26.703125 39.890625 
Q 22.75 39.890625 18.8125 39.015625 
Q 14.890625 38.140625 10.796875 36.28125 
z
" id="DejaVuSans-53"/>
      </defs>
      <g transform="translate(256.081679 635.023404)rotate(-30)scale(0.1 -0.1)">
       <use xlink:href="#DejaVuSans-48"/>
       <use x="63.623047" xlink:href="#DejaVuSans-53"/>
      </g>
     </g>
    </g>
    <g id="xtick_4">
     <g id="line2d_7">
      <path clip-path="url(#p94345298d3)" d="M 325.362543 615.080464 
L 325.362543 37.968 
" style="fill:none;stroke:#b0b0b0;stroke-linecap:square;stroke-width:0.8;"/>
     </g>
     <g id="line2d_8">
      <g>
       <use style="stroke:#000000;stroke-width:0.8;" x="325.362543" xlink:href="#mcde79165d2" y="615.080464"/>
      </g>
     </g>
     <g id="text_4">
      <!-- 06 -->
      <defs>
       <path d="M 33.015625 40.375 
Q 26.375 40.375 22.484375 35.828125 
Q 18.609375 31.296875 18.609375 23.390625 
Q 18.609375 15.53125 22.484375 10.953125 
Q 26.375 6.390625 33.015625 6.390625 
Q 39.65625 6.390625 43.53125 10.953125 
Q 47.40625 15.53125 47.40625 23.390625 
Q 47.40625 31.296875 43.53125 35.828125 
Q 39.65625 40.375 33.015625 40.375 
z
M 52.59375 71.296875 
L 52.59375 62.3125 
Q 48.875 64.0625 45.09375 64.984375 
Q 41.3125 65.921875 37.59375 65.921875 
Q 27.828125 65.921875 22.671875 59.328125 
Q 17.53125 52.734375 16.796875 39.40625 
Q 19.671875 43.65625 24.015625 45.921875 
Q 28.375 48.1875 33.59375 48.1875 
Q 44.578125 48.1875 50.953125 41.515625 
Q 57.328125 34.859375 57.328125 23.390625 
Q 57.328125 12.15625 50.6875 5.359375 
Q 44.046875 -1.421875 33.015625 -1.421875 
Q 20.359375 -1.421875 13.671875 8.265625 
Q 6.984375 17.96875 6.984375 36.375 
Q 6.984375 53.65625 15.1875 63.9375 
Q 23.390625 74.21875 37.203125 74.21875 
Q 40.921875 74.21875 44.703125 73.484375 
Q 48.484375 72.75 52.59375 71.296875 
z
" id="DejaVuSans-54"/>
      </defs>
      <g transform="translate(313.302526 635.023404)rotate(-30)scale(0.1 -0.1)">
       <use xlink:href="#DejaVuSans-48"/>
       <use x="63.623047" xlink:href="#DejaVuSans-54"/>
      </g>
     </g>
    </g>
    <g id="xtick_5">
     <g id="line2d_9">
      <path clip-path="url(#p94345298d3)" d="M 382.583391 615.080464 
L 382.583391 37.968 
" style="fill:none;stroke:#b0b0b0;stroke-linecap:square;stroke-width:0.8;"/>
     </g>
     <g id="line2d_10">
      <g>
       <use style="stroke:#000000;stroke-width:0.8;" x="382.583391" xlink:href="#mcde79165d2" y="615.080464"/>
      </g>
     </g>
     <g id="text_5">
      <!-- 07 -->
      <defs>
       <path d="M 8.203125 72.90625 
L 55.078125 72.90625 
L 55.078125 68.703125 
L 28.609375 0 
L 18.3125 0 
L 43.21875 64.59375 
L 8.203125 64.59375 
z
" id="DejaVuSans-55"/>
      </defs>
      <g transform="translate(370.523374 635.023404)rotate(-30)scale(0.1 -0.1)">
       <use xlink:href="#DejaVuSans-48"/>
       <use x="63.623047" xlink:href="#DejaVuSans-55"/>
      </g>
     </g>
    </g>
    <g id="xtick_6">
     <g id="line2d_11">
      <path clip-path="url(#p94345298d3)" d="M 439.804239 615.080464 
L 439.804239 37.968 
" style="fill:none;stroke:#b0b0b0;stroke-linecap:square;stroke-width:0.8;"/>
     </g>
     <g id="line2d_12">
      <g>
       <use style="stroke:#000000;stroke-width:0.8;" x="439.804239" xlink:href="#mcde79165d2" y="615.080464"/>
      </g>
     </g>
     <g id="text_6">
      <!-- 08 -->
      <defs>
       <path d="M 31.78125 34.625 
Q 24.75 34.625 20.71875 30.859375 
Q 16.703125 27.09375 16.703125 20.515625 
Q 16.703125 13.921875 20.71875 10.15625 
Q 24.75 6.390625 31.78125 6.390625 
Q 38.8125 6.390625 42.859375 10.171875 
Q 46.921875 13.96875 46.921875 20.515625 
Q 46.921875 27.09375 42.890625 30.859375 
Q 38.875 34.625 31.78125 34.625 
z
M 21.921875 38.8125 
Q 15.578125 40.375 12.03125 44.71875 
Q 8.5 49.078125 8.5 55.328125 
Q 8.5 64.0625 14.71875 69.140625 
Q 20.953125 74.21875 31.78125 74.21875 
Q 42.671875 74.21875 48.875 69.140625 
Q 55.078125 64.0625 55.078125 55.328125 
Q 55.078125 49.078125 51.53125 44.71875 
Q 48 40.375 41.703125 38.8125 
Q 48.828125 37.15625 52.796875 32.3125 
Q 56.78125 27.484375 56.78125 20.515625 
Q 56.78125 9.90625 50.3125 4.234375 
Q 43.84375 -1.421875 31.78125 -1.421875 
Q 19.734375 -1.421875 13.25 4.234375 
Q 6.78125 9.90625 6.78125 20.515625 
Q 6.78125 27.484375 10.78125 32.3125 
Q 14.796875 37.15625 21.921875 38.8125 
z
M 18.3125 54.390625 
Q 18.3125 48.734375 21.84375 45.5625 
Q 25.390625 42.390625 31.78125 42.390625 
Q 38.140625 42.390625 41.71875 45.5625 
Q 45.3125 48.734375 45.3125 54.390625 
Q 45.3125 60.0625 41.71875 63.234375 
Q 38.140625 66.40625 31.78125 66.40625 
Q 25.390625 66.40625 21.84375 63.234375 
Q 18.3125 60.0625 18.3125 54.390625 
z
" id="DejaVuSans-56"/>
      </defs>
      <g transform="translate(427.744222 635.023404)rotate(-30)scale(0.1 -0.1)">
       <use xlink:href="#DejaVuSans-48"/>
       <use x="63.623047" xlink:href="#DejaVuSans-56"/>
      </g>
     </g>
    </g>
    <g id="xtick_7">
     <g id="line2d_13">
      <path clip-path="url(#p94345298d3)" d="M 497.025086 615.080464 
L 497.025086 37.968 
" style="fill:none;stroke:#b0b0b0;stroke-linecap:square;stroke-width:0.8;"/>
     </g>
     <g id="line2d_14">
      <g>
       <use style="stroke:#000000;stroke-width:0.8;" x="497.025086" xlink:href="#mcde79165d2" y="615.080464"/>
      </g>
     </g>
     <g id="text_7">
      <!-- 09 -->
      <defs>
       <path d="M 10.984375 1.515625 
L 10.984375 10.5 
Q 14.703125 8.734375 18.5 7.8125 
Q 22.3125 6.890625 25.984375 6.890625 
Q 35.75 6.890625 40.890625 13.453125 
Q 46.046875 20.015625 46.78125 33.40625 
Q 43.953125 29.203125 39.59375 26.953125 
Q 35.25 24.703125 29.984375 24.703125 
Q 19.046875 24.703125 12.671875 31.3125 
Q 6.296875 37.9375 6.296875 49.421875 
Q 6.296875 60.640625 12.9375 67.421875 
Q 19.578125 74.21875 30.609375 74.21875 
Q 43.265625 74.21875 49.921875 64.515625 
Q 56.59375 54.828125 56.59375 36.375 
Q 56.59375 19.140625 48.40625 8.859375 
Q 40.234375 -1.421875 26.421875 -1.421875 
Q 22.703125 -1.421875 18.890625 -0.6875 
Q 15.09375 0.046875 10.984375 1.515625 
z
M 30.609375 32.421875 
Q 37.25 32.421875 41.125 36.953125 
Q 45.015625 41.5 45.015625 49.421875 
Q 45.015625 57.28125 41.125 61.84375 
Q 37.25 66.40625 30.609375 66.40625 
Q 23.96875 66.40625 20.09375 61.84375 
Q 16.21875 57.28125 16.21875 49.421875 
Q 16.21875 41.5 20.09375 36.953125 
Q 23.96875 32.421875 30.609375 32.421875 
z
" id="DejaVuSans-57"/>
      </defs>
      <g transform="translate(484.965069 635.023404)rotate(-30)scale(0.1 -0.1)">
       <use xlink:href="#DejaVuSans-48"/>
       <use x="63.623047" xlink:href="#DejaVuSans-57"/>
      </g>
     </g>
    </g>
    <g id="xtick_8">
     <g id="line2d_15">
      <path clip-path="url(#p94345298d3)" d="M 554.245934 615.080464 
L 554.245934 37.968 
" style="fill:none;stroke:#b0b0b0;stroke-linecap:square;stroke-width:0.8;"/>
     </g>
     <g id="line2d_16">
      <g>
       <use style="stroke:#000000;stroke-width:0.8;" x="554.245934" xlink:href="#mcde79165d2" y="615.080464"/>
      </g>
     </g>
     <g id="text_8">
      <!-- 10 -->
      <defs>
       <path d="M 12.40625 8.296875 
L 28.515625 8.296875 
L 28.515625 63.921875 
L 10.984375 60.40625 
L 10.984375 69.390625 
L 28.421875 72.90625 
L 38.28125 72.90625 
L 38.28125 8.296875 
L 54.390625 8.296875 
L 54.390625 0 
L 12.40625 0 
z
" id="DejaVuSans-49"/>
      </defs>
      <g transform="translate(542.185917 635.023404)rotate(-30)scale(0.1 -0.1)">
       <use xlink:href="#DejaVuSans-49"/>
       <use x="63.623047" xlink:href="#DejaVuSans-48"/>
      </g>
     </g>
    </g>
    <g id="xtick_9">
     <g id="line2d_17">
      <path clip-path="url(#p94345298d3)" d="M 611.466782 615.080464 
L 611.466782 37.968 
" style="fill:none;stroke:#b0b0b0;stroke-linecap:square;stroke-width:0.8;"/>
     </g>
     <g id="line2d_18">
      <g>
       <use style="stroke:#000000;stroke-width:0.8;" x="611.466782" xlink:href="#mcde79165d2" y="615.080464"/>
      </g>
     </g>
     <g id="text_9">
      <!-- 11 -->
      <g transform="translate(599.406765 635.023404)rotate(-30)scale(0.1 -0.1)">
       <use xlink:href="#DejaVuSans-49"/>
       <use x="63.623047" xlink:href="#DejaVuSans-49"/>
      </g>
     </g>
    </g>
    <g id="xtick_10">
     <g id="line2d_19">
      <path clip-path="url(#p94345298d3)" d="M 668.687629 615.080464 
L 668.687629 37.968 
" style="fill:none;stroke:#b0b0b0;stroke-linecap:square;stroke-width:0.8;"/>
     </g>
     <g id="line2d_20">
      <g>
       <use style="stroke:#000000;stroke-width:0.8;" x="668.687629" xlink:href="#mcde79165d2" y="615.080464"/>
      </g>
     </g>
     <g id="text_10">
      <!-- 12 -->
      <defs>
       <path d="M 19.1875 8.296875 
L 53.609375 8.296875 
L 53.609375 0 
L 7.328125 0 
L 7.328125 8.296875 
Q 12.9375 14.109375 22.625 23.890625 
Q 32.328125 33.6875 34.8125 36.53125 
Q 39.546875 41.84375 41.421875 45.53125 
Q 43.3125 49.21875 43.3125 52.78125 
Q 43.3125 58.59375 39.234375 62.25 
Q 35.15625 65.921875 28.609375 65.921875 
Q 23.96875 65.921875 18.8125 64.3125 
Q 13.671875 62.703125 7.8125 59.421875 
L 7.8125 69.390625 
Q 13.765625 71.78125 18.9375 73 
Q 24.125 74.21875 28.421875 74.21875 
Q 39.75 74.21875 46.484375 68.546875 
Q 53.21875 62.890625 53.21875 53.421875 
Q 53.21875 48.921875 51.53125 44.890625 
Q 49.859375 40.875 45.40625 35.40625 
Q 44.1875 33.984375 37.640625 27.21875 
Q 31.109375 20.453125 19.1875 8.296875 
z
" id="DejaVuSans-50"/>
      </defs>
      <g transform="translate(656.627612 635.023404)rotate(-30)scale(0.1 -0.1)">
       <use xlink:href="#DejaVuSans-49"/>
       <use x="63.623047" xlink:href="#DejaVuSans-50"/>
      </g>
     </g>
    </g>
    <g id="xtick_11">
     <g id="line2d_21">
      <path clip-path="url(#p94345298d3)" d="M 725.908477 615.080464 
L 725.908477 37.968 
" style="fill:none;stroke:#b0b0b0;stroke-linecap:square;stroke-width:0.8;"/>
     </g>
     <g id="line2d_22">
      <g>
       <use style="stroke:#000000;stroke-width:0.8;" x="725.908477" xlink:href="#mcde79165d2" y="615.080464"/>
      </g>
     </g>
     <g id="text_11">
      <!-- 13 -->
      <g transform="translate(713.84846 635.023404)rotate(-30)scale(0.1 -0.1)">
       <use xlink:href="#DejaVuSans-49"/>
       <use x="63.623047" xlink:href="#DejaVuSans-51"/>
      </g>
     </g>
    </g>
    <g id="xtick_12">
     <g id="line2d_23">
      <path clip-path="url(#p94345298d3)" d="M 783.129325 615.080464 
L 783.129325 37.968 
" style="fill:none;stroke:#b0b0b0;stroke-linecap:square;stroke-width:0.8;"/>
     </g>
     <g id="line2d_24">
      <g>
       <use style="stroke:#000000;stroke-width:0.8;" x="783.129325" xlink:href="#mcde79165d2" y="615.080464"/>
      </g>
     </g>
     <g id="text_12">
      <!-- 14 -->
      <g transform="translate(771.069308 635.023404)rotate(-30)scale(0.1 -0.1)">
       <use xlink:href="#DejaVuSans-49"/>
       <use x="63.623047" xlink:href="#DejaVuSans-52"/>
      </g>
     </g>
    </g>
    <g id="xtick_13">
     <g id="line2d_25">
      <path clip-path="url(#p94345298d3)" d="M 840.350173 615.080464 
L 840.350173 37.968 
" style="fill:none;stroke:#b0b0b0;stroke-linecap:square;stroke-width:0.8;"/>
     </g>
     <g id="line2d_26">
      <g>
       <use style="stroke:#000000;stroke-width:0.8;" x="840.350173" xlink:href="#mcde79165d2" y="615.080464"/>
      </g>
     </g>
     <g id="text_13">
      <!-- 15 -->
      <g transform="translate(828.290156 635.023404)rotate(-30)scale(0.1 -0.1)">
       <use xlink:href="#DejaVuSans-49"/>
       <use x="63.623047" xlink:href="#DejaVuSans-53"/>
      </g>
     </g>
    </g>
    <g id="xtick_14">
     <g id="line2d_27">
      <path clip-path="url(#p94345298d3)" d="M 897.57102 615.080464 
L 897.57102 37.968 
" style="fill:none;stroke:#b0b0b0;stroke-linecap:square;stroke-width:0.8;"/>
     </g>
     <g id="line2d_28">
      <g>
       <use style="stroke:#000000;stroke-width:0.8;" x="897.57102" xlink:href="#mcde79165d2" y="615.080464"/>
      </g>
     </g>
     <g id="text_14">
      <!-- 16 -->
      <g transform="translate(885.511003 635.023404)rotate(-30)scale(0.1 -0.1)">
       <use xlink:href="#DejaVuSans-49"/>
       <use x="63.623047" xlink:href="#DejaVuSans-54"/>
      </g>
     </g>
    </g>
    <g id="xtick_15">
     <g id="line2d_29">
      <path clip-path="url(#p94345298d3)" d="M 954.791868 615.080464 
L 954.791868 37.968 
" style="fill:none;stroke:#b0b0b0;stroke-linecap:square;stroke-width:0.8;"/>
     </g>
     <g id="line2d_30">
      <g>
       <use style="stroke:#000000;stroke-width:0.8;" x="954.791868" xlink:href="#mcde79165d2" y="615.080464"/>
      </g>
     </g>
     <g id="text_15">
      <!-- 17 -->
      <g transform="translate(942.731851 635.023404)rotate(-30)scale(0.1 -0.1)">
       <use xlink:href="#DejaVuSans-49"/>
       <use x="63.623047" xlink:href="#DejaVuSans-55"/>
      </g>
     </g>
    </g>
    <g id="xtick_16">
     <g id="line2d_31">
      <path clip-path="url(#p94345298d3)" d="M 1012.012716 615.080464 
L 1012.012716 37.968 
" style="fill:none;stroke:#b0b0b0;stroke-linecap:square;stroke-width:0.8;"/>
     </g>
     <g id="line2d_32">
      <g>
       <use style="stroke:#000000;stroke-width:0.8;" x="1012.012716" xlink:href="#mcde79165d2" y="615.080464"/>
      </g>
     </g>
     <g id="text_16">
      <!-- 18 -->
      <g transform="translate(999.952699 635.023404)rotate(-30)scale(0.1 -0.1)">
       <use xlink:href="#DejaVuSans-49"/>
       <use x="63.623047" xlink:href="#DejaVuSans-56"/>
      </g>
     </g>
    </g>
    <g id="xtick_17">
     <g id="line2d_33">
      <path clip-path="url(#p94345298d3)" d="M 1069.233563 615.080464 
L 1069.233563 37.968 
" style="fill:none;stroke:#b0b0b0;stroke-linecap:square;stroke-width:0.8;"/>
     </g>
     <g id="line2d_34">
      <g>
       <use style="stroke:#000000;stroke-width:0.8;" x="1069.233563" xlink:href="#mcde79165d2" y="615.080464"/>
      </g>
     </g>
     <g id="text_17">
      <!-- 19 -->
      <g transform="translate(1057.173546 635.023404)rotate(-30)scale(0.1 -0.1)">
       <use xlink:href="#DejaVuSans-49"/>
       <use x="63.623047" xlink:href="#DejaVuSans-57"/>
      </g>
     </g>
    </g>
    <g id="xtick_18">
     <g id="line2d_35">
      <path clip-path="url(#p94345298d3)" d="M 1126.454411 615.080464 
L 1126.454411 37.968 
" style="fill:none;stroke:#b0b0b0;stroke-linecap:square;stroke-width:0.8;"/>
     </g>
     <g id="line2d_36">
      <g>
       <use style="stroke:#000000;stroke-width:0.8;" x="1126.454411" xlink:href="#mcde79165d2" y="615.080464"/>
      </g>
     </g>
     <g id="text_18">
      <!-- 20 -->
      <g transform="translate(1114.394394 635.023404)rotate(-30)scale(0.1 -0.1)">
       <use xlink:href="#DejaVuSans-50"/>
       <use x="63.623047" xlink:href="#DejaVuSans-48"/>
      </g>
     </g>
    </g>
    <g id="xtick_19">
     <g id="line2d_37">
      <path clip-path="url(#p94345298d3)" d="M 1183.675259 615.080464 
L 1183.675259 37.968 
" style="fill:none;stroke:#b0b0b0;stroke-linecap:square;stroke-width:0.8;"/>
     </g>
     <g id="line2d_38">
      <g>
       <use style="stroke:#000000;stroke-width:0.8;" x="1183.675259" xlink:href="#mcde79165d2" y="615.080464"/>
      </g>
     </g>
     <g id="text_19">
      <!-- 21 -->
      <g transform="translate(1171.615242 635.023404)rotate(-30)scale(0.1 -0.1)">
       <use xlink:href="#DejaVuSans-50"/>
       <use x="63.623047" xlink:href="#DejaVuSans-49"/>
      </g>
     </g>
    </g>
    <g id="xtick_20">
     <g id="line2d_39">
      <path clip-path="url(#p94345298d3)" d="M 1240.896106 615.080464 
L 1240.896106 37.968 
" style="fill:none;stroke:#b0b0b0;stroke-linecap:square;stroke-width:0.8;"/>
     </g>
     <g id="line2d_40">
      <g>
       <use style="stroke:#000000;stroke-width:0.8;" x="1240.896106" xlink:href="#mcde79165d2" y="615.080464"/>
      </g>
     </g>
     <g id="text_20">
      <!-- 22 -->
      <g transform="translate(1228.836089 635.023404)rotate(-30)scale(0.1 -0.1)">
       <use xlink:href="#DejaVuSans-50"/>
       <use x="63.623047" xlink:href="#DejaVuSans-50"/>
      </g>
     </g>
    </g>
    <g id="xtick_21">
     <g id="line2d_41">
      <path clip-path="url(#p94345298d3)" d="M 1298.116954 615.080464 
L 1298.116954 37.968 
" style="fill:none;stroke:#b0b0b0;stroke-linecap:square;stroke-width:0.8;"/>
     </g>
     <g id="line2d_42">
      <g>
       <use style="stroke:#000000;stroke-width:0.8;" x="1298.116954" xlink:href="#mcde79165d2" y="615.080464"/>
      </g>
     </g>
     <g id="text_21">
      <!-- 23 -->
      <g transform="translate(1286.056937 635.023404)rotate(-30)scale(0.1 -0.1)">
       <use xlink:href="#DejaVuSans-50"/>
       <use x="63.623047" xlink:href="#DejaVuSans-51"/>
      </g>
     </g>
    </g>
   </g>
   <g id="matplotlib.axis_2">
    <g id="ytick_1">
     <g id="line2d_43">
      <path clip-path="url(#p94345298d3)" d="M 153.7 588.848079 
L 1302.885358 588.848079 
" style="fill:none;stroke:#b0b0b0;stroke-linecap:square;stroke-width:0.8;"/>
     </g>
     <g id="line2d_44">
      <defs>
       <path d="M 0 0 
L -3.5 0 
" id="me375efc05a" style="stroke:#000000;stroke-width:0.8;"/>
      </defs>
      <g>
       <use style="stroke:#000000;stroke-width:0.8;" x="153.7" xlink:href="#me375efc05a" y="588.848079"/>
      </g>
     </g>
     <g id="text_22">
      <!-- Чёртов мост /75 км ПК6 -->
      <defs>
       <path d="M 48.828125 0 
L 48.828125 29.890625 
L 28.46875 29.890625 
Q 19.390625 29.890625 13.96875 35.578125 
Q 8.546875 41.265625 8.546875 52.875 
L 8.546875 72.90625 
L 18.359375 72.90625 
L 18.359375 53.65625 
Q 18.359375 45.90625 21.390625 42.046875 
Q 24.421875 38.1875 30.46875 38.1875 
L 48.828125 38.1875 
L 48.828125 72.90625 
L 58.734375 72.90625 
L 58.734375 0 
z
" id="DejaVuSans-1063"/>
       <path d="M 56.203125 29.59375 
L 56.203125 25.203125 
L 14.890625 25.203125 
Q 15.484375 15.921875 20.484375 11.0625 
Q 25.484375 6.203125 34.421875 6.203125 
Q 39.59375 6.203125 44.453125 7.46875 
Q 49.3125 8.734375 54.109375 11.28125 
L 54.109375 2.78125 
Q 49.265625 0.734375 44.1875 -0.34375 
Q 39.109375 -1.421875 33.890625 -1.421875 
Q 20.796875 -1.421875 13.15625 6.1875 
Q 5.515625 13.8125 5.515625 26.8125 
Q 5.515625 40.234375 12.765625 48.109375 
Q 20.015625 56 32.328125 56 
Q 43.359375 56 49.78125 48.890625 
Q 56.203125 41.796875 56.203125 29.59375 
z
M 47.21875 32.234375 
Q 47.125 39.59375 43.09375 43.984375 
Q 39.0625 48.390625 32.421875 48.390625 
Q 24.90625 48.390625 20.390625 44.140625 
Q 15.875 39.890625 15.1875 32.171875 
z
M 36.921875 75.78125 
L 46.828125 75.78125 
L 46.828125 65.921875 
L 36.921875 65.921875 
z
M 17.828125 75.78125 
L 27.734375 75.78125 
L 27.734375 65.921875 
L 17.828125 65.921875 
z
" id="DejaVuSans-1105"/>
       <path d="M 18.109375 8.203125 
L 18.109375 -20.796875 
L 9.078125 -20.796875 
L 9.078125 54.6875 
L 18.109375 54.6875 
L 18.109375 46.390625 
Q 20.953125 51.265625 25.265625 53.625 
Q 29.59375 56 35.59375 56 
Q 45.5625 56 51.78125 48.09375 
Q 58.015625 40.1875 58.015625 27.296875 
Q 58.015625 14.40625 51.78125 6.484375 
Q 45.5625 -1.421875 35.59375 -1.421875 
Q 29.59375 -1.421875 25.265625 0.953125 
Q 20.953125 3.328125 18.109375 8.203125 
z
M 48.6875 27.296875 
Q 48.6875 37.203125 44.609375 42.84375 
Q 40.53125 48.484375 33.40625 48.484375 
Q 26.265625 48.484375 22.1875 42.84375 
Q 18.109375 37.203125 18.109375 27.296875 
Q 18.109375 17.390625 22.1875 11.75 
Q 26.265625 6.109375 33.40625 6.109375 
Q 40.53125 6.109375 44.609375 11.75 
Q 48.6875 17.390625 48.6875 27.296875 
z
" id="DejaVuSans-1088"/>
       <path d="M 2.9375 54.6875 
L 55.328125 54.6875 
L 55.328125 47.515625 
L 33.546875 47.515625 
L 33.546875 0 
L 24.703125 0 
L 24.703125 47.515625 
L 2.9375 47.515625 
z
" id="DejaVuSans-1090"/>
       <path d="M 30.609375 48.390625 
Q 23.390625 48.390625 19.1875 42.75 
Q 14.984375 37.109375 14.984375 27.296875 
Q 14.984375 17.484375 19.15625 11.84375 
Q 23.34375 6.203125 30.609375 6.203125 
Q 37.796875 6.203125 41.984375 11.859375 
Q 46.1875 17.53125 46.1875 27.296875 
Q 46.1875 37.015625 41.984375 42.703125 
Q 37.796875 48.390625 30.609375 48.390625 
z
M 30.609375 56 
Q 42.328125 56 49.015625 48.375 
Q 55.71875 40.765625 55.71875 27.296875 
Q 55.71875 13.875 49.015625 6.21875 
Q 42.328125 -1.421875 30.609375 -1.421875 
Q 18.84375 -1.421875 12.171875 6.21875 
Q 5.515625 13.875 5.515625 27.296875 
Q 5.515625 40.765625 12.171875 48.375 
Q 18.84375 56 30.609375 56 
z
" id="DejaVuSans-1086"/>
       <path d="M 18.0625 25.203125 
L 18.0625 7.171875 
L 30.859375 7.171875 
Q 37.015625 7.171875 40.234375 9.484375 
Q 43.453125 11.8125 43.453125 16.21875 
Q 43.453125 20.609375 40.234375 22.90625 
Q 37.015625 25.203125 30.859375 25.203125 
z
M 18.0625 47.515625 
L 18.0625 32.375 
L 29.890625 32.375 
Q 34.96875 32.375 38.1875 34.390625 
Q 41.40625 36.421875 41.40625 40.046875 
Q 41.40625 43.65625 38.1875 45.578125 
Q 34.96875 47.515625 29.890625 47.515625 
z
M 9.078125 54.6875 
L 30.46875 54.6875 
Q 40.09375 54.6875 45.265625 51.171875 
Q 50.4375 47.65625 50.4375 41.15625 
Q 50.4375 36.140625 47.796875 33.171875 
Q 45.171875 30.21875 39.984375 29.5 
Q 46.1875 28.328125 49.609375 24.609375 
Q 53.03125 20.90625 53.03125 15.328125 
Q 53.03125 8.015625 47.390625 4 
Q 41.75 0 31.296875 0 
L 9.078125 0 
z
" id="DejaVuSans-1074"/>
       <path id="DejaVuSans-32"/>
       <path d="M 9.078125 54.6875 
L 22.21875 54.6875 
L 37.75 18.0625 
L 53.328125 54.6875 
L 66.359375 54.6875 
L 66.359375 0 
L 57.328125 0 
L 57.328125 46.09375 
L 42.234375 10.5 
L 33.25 10.5 
L 18.109375 46.09375 
L 18.109375 0 
L 9.078125 0 
z
" id="DejaVuSans-1084"/>
       <path d="M 48.78125 52.59375 
L 48.78125 44.1875 
Q 44.96875 46.296875 41.140625 47.34375 
Q 37.3125 48.390625 33.40625 48.390625 
Q 24.65625 48.390625 19.8125 42.84375 
Q 14.984375 37.3125 14.984375 27.296875 
Q 14.984375 17.28125 19.8125 11.734375 
Q 24.65625 6.203125 33.40625 6.203125 
Q 37.3125 6.203125 41.140625 7.25 
Q 44.96875 8.296875 48.78125 10.40625 
L 48.78125 2.09375 
Q 45.015625 0.34375 40.984375 -0.53125 
Q 36.96875 -1.421875 32.421875 -1.421875 
Q 20.0625 -1.421875 12.78125 6.34375 
Q 5.515625 14.109375 5.515625 27.296875 
Q 5.515625 40.671875 12.859375 48.328125 
Q 20.21875 56 33.015625 56 
Q 37.15625 56 41.109375 55.140625 
Q 45.0625 54.296875 48.78125 52.59375 
z
" id="DejaVuSans-1089"/>
       <path d="M 25.390625 72.90625 
L 33.6875 72.90625 
L 8.296875 -9.28125 
L 0 -9.28125 
z
" id="DejaVuSans-47"/>
       <path d="M 9.078125 54.6875 
L 18.015625 54.6875 
L 18.015625 29 
L 43.359375 54.6875 
L 54.390625 54.6875 
L 33.5 33.546875 
L 57.078125 0 
L 47.015625 0 
L 27.640625 27.59375 
L 18.015625 17.828125 
L 18.015625 0 
L 9.078125 0 
z
" id="DejaVuSans-1082"/>
       <path d="M 65.375 72.90625 
L 65.375 0 
L 55.515625 0 
L 55.515625 64.59375 
L 19.671875 64.59375 
L 19.671875 0 
L 9.8125 0 
L 9.8125 72.90625 
z
" id="DejaVuSans-1055"/>
       <path d="M 9.8125 72.90625 
L 19.671875 72.90625 
L 19.671875 36.859375 
L 54.9375 72.90625 
L 67.578125 72.90625 
L 39.40625 44.09375 
L 69.046875 0 
L 58.296875 0 
L 33.015625 37.546875 
L 19.671875 23.921875 
L 19.671875 0 
L 9.8125 0 
z
" id="DejaVuSans-1050"/>
      </defs>
      <g transform="translate(21.145313 592.647298)scale(0.1 -0.1)">
       <use xlink:href="#DejaVuSans-1063"/>
       <use x="68.554688" xlink:href="#DejaVuSans-1105"/>
       <use x="130.078125" xlink:href="#DejaVuSans-1088"/>
       <use x="193.554688" xlink:href="#DejaVuSans-1090"/>
       <use x="251.806641" xlink:href="#DejaVuSans-1086"/>
       <use x="312.988281" xlink:href="#DejaVuSans-1074"/>
       <use x="371.923828" xlink:href="#DejaVuSans-32"/>
       <use x="403.710938" xlink:href="#DejaVuSans-1084"/>
       <use x="479.150391" xlink:href="#DejaVuSans-1086"/>
       <use x="540.332031" xlink:href="#DejaVuSans-1089"/>
       <use x="595.3125" xlink:href="#DejaVuSans-1090"/>
       <use x="653.564453" xlink:href="#DejaVuSans-32"/>
       <use x="685.351562" xlink:href="#DejaVuSans-47"/>
       <use x="719.042969" xlink:href="#DejaVuSans-55"/>
       <use x="782.666016" xlink:href="#DejaVuSans-53"/>
       <use x="846.289062" xlink:href="#DejaVuSans-32"/>
       <use x="878.076172" xlink:href="#DejaVuSans-1082"/>
       <use x="938.476562" xlink:href="#DejaVuSans-1084"/>
       <use x="1013.916016" xlink:href="#DejaVuSans-32"/>
       <use x="1045.703125" xlink:href="#DejaVuSans-1055"/>
       <use x="1120.898438" xlink:href="#DejaVuSans-1050"/>
       <use x="1191.894531" xlink:href="#DejaVuSans-54"/>
      </g>
     </g>
    </g>
    <g id="ytick_2">
     <g id="line2d_45">
      <path clip-path="url(#p94345298d3)" d="M 153.7 528.311807 
L 1302.885358 528.311807 
" style="fill:none;stroke:#b0b0b0;stroke-linecap:square;stroke-width:0.8;"/>
     </g>
     <g id="line2d_46">
      <g>
       <use style="stroke:#000000;stroke-width:0.8;" x="153.7" xlink:href="#me375efc05a" y="528.311807"/>
      </g>
     </g>
     <g id="text_23">
      <!-- Холмск -->
      <defs>
       <path d="M 6.296875 72.90625 
L 16.890625 72.90625 
L 35.015625 45.796875 
L 53.21875 72.90625 
L 63.8125 72.90625 
L 40.375 37.890625 
L 65.375 0 
L 54.78125 0 
L 34.28125 31 
L 13.625 0 
L 2.984375 0 
L 29 38.921875 
z
" id="DejaVuSans-1061"/>
       <path d="M 3.71875 0 
L 3.71875 7.46875 
Q 12.59375 8.84375 15.328125 14.984375 
Q 18.65625 23.640625 18.65625 45.75 
L 18.65625 54.6875 
L 55.609375 54.6875 
L 55.609375 0 
L 46.625 0 
L 46.625 47.515625 
L 27.640625 47.515625 
L 27.640625 42.09375 
Q 27.640625 21 23.34375 11.53125 
Q 18.75 1.421875 3.71875 0 
z
" id="DejaVuSans-1083"/>
      </defs>
      <g transform="translate(108.25625 527.271963)scale(0.1 -0.1)">
       <use xlink:href="#DejaVuSans-1061"/>
       <use x="68.505859" xlink:href="#DejaVuSans-1086"/>
       <use x="129.6875" xlink:href="#DejaVuSans-1083"/>
       <use x="193.603516" xlink:href="#DejaVuSans-1084"/>
       <use x="269.042969" xlink:href="#DejaVuSans-1089"/>
       <use x="324.023438" xlink:href="#DejaVuSans-1082"/>
      </g>
      <!-- Holmsk 87 km -->
      <defs>
       <path d="M 9.8125 72.90625 
L 19.671875 72.90625 
L 19.671875 43.015625 
L 55.515625 43.015625 
L 55.515625 72.90625 
L 65.375 72.90625 
L 65.375 0 
L 55.515625 0 
L 55.515625 34.71875 
L 19.671875 34.71875 
L 19.671875 0 
L 9.8125 0 
z
" id="DejaVuSans-72"/>
       <path d="M 30.609375 48.390625 
Q 23.390625 48.390625 19.1875 42.75 
Q 14.984375 37.109375 14.984375 27.296875 
Q 14.984375 17.484375 19.15625 11.84375 
Q 23.34375 6.203125 30.609375 6.203125 
Q 37.796875 6.203125 41.984375 11.859375 
Q 46.1875 17.53125 46.1875 27.296875 
Q 46.1875 37.015625 41.984375 42.703125 
Q 37.796875 48.390625 30.609375 48.390625 
z
M 30.609375 56 
Q 42.328125 56 49.015625 48.375 
Q 55.71875 40.765625 55.71875 27.296875 
Q 55.71875 13.875 49.015625 6.21875 
Q 42.328125 -1.421875 30.609375 -1.421875 
Q 18.84375 -1.421875 12.171875 6.21875 
Q 5.515625 13.875 5.515625 27.296875 
Q 5.515625 40.765625 12.171875 48.375 
Q 18.84375 56 30.609375 56 
z
" id="DejaVuSans-111"/>
       <path d="M 9.421875 75.984375 
L 18.40625 75.984375 
L 18.40625 0 
L 9.421875 0 
z
" id="DejaVuSans-108"/>
       <path d="M 52 44.1875 
Q 55.375 50.25 60.0625 53.125 
Q 64.75 56 71.09375 56 
Q 79.640625 56 84.28125 50.015625 
Q 88.921875 44.046875 88.921875 33.015625 
L 88.921875 0 
L 79.890625 0 
L 79.890625 32.71875 
Q 79.890625 40.578125 77.09375 44.375 
Q 74.3125 48.1875 68.609375 48.1875 
Q 61.625 48.1875 57.5625 43.546875 
Q 53.515625 38.921875 53.515625 30.90625 
L 53.515625 0 
L 44.484375 0 
L 44.484375 32.71875 
Q 44.484375 40.625 41.703125 44.40625 
Q 38.921875 48.1875 33.109375 48.1875 
Q 26.21875 48.1875 22.15625 43.53125 
Q 18.109375 38.875 18.109375 30.90625 
L 18.109375 0 
L 9.078125 0 
L 9.078125 54.6875 
L 18.109375 54.6875 
L 18.109375 46.1875 
Q 21.1875 51.21875 25.484375 53.609375 
Q 29.78125 56 35.6875 56 
Q 41.65625 56 45.828125 52.96875 
Q 50 49.953125 52 44.1875 
z
" id="DejaVuSans-109"/>
       <path d="M 44.28125 53.078125 
L 44.28125 44.578125 
Q 40.484375 46.53125 36.375 47.5 
Q 32.28125 48.484375 27.875 48.484375 
Q 21.1875 48.484375 17.84375 46.4375 
Q 14.5 44.390625 14.5 40.28125 
Q 14.5 37.15625 16.890625 35.375 
Q 19.28125 33.59375 26.515625 31.984375 
L 29.59375 31.296875 
Q 39.15625 29.25 43.1875 25.515625 
Q 47.21875 21.78125 47.21875 15.09375 
Q 47.21875 7.46875 41.1875 3.015625 
Q 35.15625 -1.421875 24.609375 -1.421875 
Q 20.21875 -1.421875 15.453125 -0.5625 
Q 10.6875 0.296875 5.421875 2 
L 5.421875 11.28125 
Q 10.40625 8.6875 15.234375 7.390625 
Q 20.0625 6.109375 24.8125 6.109375 
Q 31.15625 6.109375 34.5625 8.28125 
Q 37.984375 10.453125 37.984375 14.40625 
Q 37.984375 18.0625 35.515625 20.015625 
Q 33.0625 21.96875 24.703125 23.78125 
L 21.578125 24.515625 
Q 13.234375 26.265625 9.515625 29.90625 
Q 5.8125 33.546875 5.8125 39.890625 
Q 5.8125 47.609375 11.28125 51.796875 
Q 16.75 56 26.8125 56 
Q 31.78125 56 36.171875 55.265625 
Q 40.578125 54.546875 44.28125 53.078125 
z
" id="DejaVuSans-115"/>
       <path d="M 9.078125 75.984375 
L 18.109375 75.984375 
L 18.109375 31.109375 
L 44.921875 54.6875 
L 56.390625 54.6875 
L 27.390625 29.109375 
L 57.625 0 
L 45.90625 0 
L 18.109375 26.703125 
L 18.109375 0 
L 9.078125 0 
z
" id="DejaVuSans-107"/>
      </defs>
      <g transform="translate(74.929688 538.469776)scale(0.1 -0.1)">
       <use xlink:href="#DejaVuSans-72"/>
       <use x="75.195312" xlink:href="#DejaVuSans-111"/>
       <use x="136.376953" xlink:href="#DejaVuSans-108"/>
       <use x="164.160156" xlink:href="#DejaVuSans-109"/>
       <use x="261.572266" xlink:href="#DejaVuSans-115"/>
       <use x="313.671875" xlink:href="#DejaVuSans-107"/>
       <use x="371.582031" xlink:href="#DejaVuSans-32"/>
       <use x="403.369141" xlink:href="#DejaVuSans-56"/>
       <use x="466.992188" xlink:href="#DejaVuSans-55"/>
       <use x="530.615234" xlink:href="#DejaVuSans-32"/>
       <use x="562.402344" xlink:href="#DejaVuSans-107"/>
       <use x="620.3125" xlink:href="#DejaVuSans-109"/>
      </g>
     </g>
    </g>
    <g id="ytick_3">
     <g id="line2d_47">
      <path clip-path="url(#p94345298d3)" d="M 153.7 513.177739 
L 1302.885358 513.177739 
" style="fill:none;stroke:#b0b0b0;stroke-linecap:square;stroke-width:0.8;"/>
     </g>
     <g id="line2d_48">
      <g>
       <use style="stroke:#000000;stroke-width:0.8;" x="153.7" xlink:href="#me375efc05a" y="513.177739"/>
      </g>
     </g>
     <g id="text_24">
      <!-- Холмск-Северный -->
      <defs>
       <path d="M 4.890625 31.390625 
L 31.203125 31.390625 
L 31.203125 23.390625 
L 4.890625 23.390625 
z
" id="DejaVuSans-45"/>
       <path d="M 64.40625 67.28125 
L 64.40625 56.890625 
Q 59.421875 61.53125 53.78125 63.8125 
Q 48.140625 66.109375 41.796875 66.109375 
Q 29.296875 66.109375 22.65625 58.46875 
Q 16.015625 50.828125 16.015625 36.375 
Q 16.015625 21.96875 22.65625 14.328125 
Q 29.296875 6.6875 41.796875 6.6875 
Q 48.140625 6.6875 53.78125 8.984375 
Q 59.421875 11.28125 64.40625 15.921875 
L 64.40625 5.609375 
Q 59.234375 2.09375 53.4375 0.328125 
Q 47.65625 -1.421875 41.21875 -1.421875 
Q 24.65625 -1.421875 15.125 8.703125 
Q 5.609375 18.84375 5.609375 36.375 
Q 5.609375 53.953125 15.125 64.078125 
Q 24.65625 74.21875 41.21875 74.21875 
Q 47.75 74.21875 53.53125 72.484375 
Q 59.328125 70.75 64.40625 67.28125 
z
" id="DejaVuSans-1057"/>
       <path d="M 56.203125 29.59375 
L 56.203125 25.203125 
L 14.890625 25.203125 
Q 15.484375 15.921875 20.484375 11.0625 
Q 25.484375 6.203125 34.421875 6.203125 
Q 39.59375 6.203125 44.453125 7.46875 
Q 49.3125 8.734375 54.109375 11.28125 
L 54.109375 2.78125 
Q 49.265625 0.734375 44.1875 -0.34375 
Q 39.109375 -1.421875 33.890625 -1.421875 
Q 20.796875 -1.421875 13.15625 6.1875 
Q 5.515625 13.8125 5.515625 26.8125 
Q 5.515625 40.234375 12.765625 48.109375 
Q 20.015625 56 32.328125 56 
Q 43.359375 56 49.78125 48.890625 
Q 56.203125 41.796875 56.203125 29.59375 
z
M 47.21875 32.234375 
Q 47.125 39.59375 43.09375 43.984375 
Q 39.0625 48.390625 32.421875 48.390625 
Q 24.90625 48.390625 20.390625 44.140625 
Q 15.875 39.890625 15.1875 32.171875 
z
" id="DejaVuSans-1077"/>
       <path d="M 9.078125 54.6875 
L 18.109375 54.6875 
L 18.109375 32.375 
L 47.265625 32.375 
L 47.265625 54.6875 
L 56.296875 54.6875 
L 56.296875 0 
L 47.265625 0 
L 47.265625 25.203125 
L 18.109375 25.203125 
L 18.109375 0 
L 9.078125 0 
z
" id="DejaVuSans-1085"/>
       <path d="M 61.078125 54.6875 
L 70.0625 54.6875 
L 70.0625 0 
L 61.078125 0 
z
M 65.578125 56 
z
M 43.453125 16.21875 
Q 43.453125 20.609375 40.25 22.90625 
Q 37.0625 25.203125 30.90625 25.203125 
L 18.109375 25.203125 
L 18.109375 7.171875 
L 30.90625 7.171875 
Q 37.0625 7.171875 40.25 9.484375 
Q 43.453125 11.8125 43.453125 16.21875 
z
M 9.078125 54.6875 
L 18.109375 54.6875 
L 18.109375 32.375 
L 31.296875 32.375 
Q 41.75 32.375 47.390625 28.390625 
Q 53.03125 24.421875 53.03125 16.21875 
Q 53.03125 8.015625 47.390625 4 
Q 41.75 0 31.296875 0 
L 9.078125 0 
z
" id="DejaVuSans-1099"/>
       <path d="M 55.90625 54.6875 
L 55.90625 0 
L 46.96875 0 
L 46.96875 43.890625 
L 20.609375 0 
L 9.078125 0 
L 9.078125 54.6875 
L 18.015625 54.6875 
L 18.015625 10.890625 
L 44.34375 54.6875 
z
M 17.234375 75.96875 
L 23 75.96875 
Q 23.53125 72.3125 25.890625 70.46875 
Q 28.265625 68.640625 32.515625 68.640625 
Q 36.71875 68.640625 39.0625 70.453125 
Q 41.40625 72.265625 42.046875 75.96875 
L 47.796875 75.96875 
Q 47.3125 68.984375 43.453125 65.46875 
Q 39.59375 61.953125 32.515625 61.953125 
Q 25.4375 61.953125 21.578125 65.46875 
Q 17.71875 68.984375 17.234375 75.96875 
z
" id="DejaVuSans-1081"/>
      </defs>
      <g transform="translate(52.185938 512.137895)scale(0.1 -0.1)">
       <use xlink:href="#DejaVuSans-1061"/>
       <use x="68.505859" xlink:href="#DejaVuSans-1086"/>
       <use x="129.6875" xlink:href="#DejaVuSans-1083"/>
       <use x="193.603516" xlink:href="#DejaVuSans-1084"/>
       <use x="269.042969" xlink:href="#DejaVuSans-1089"/>
       <use x="324.023438" xlink:href="#DejaVuSans-1082"/>
       <use x="384.423828" xlink:href="#DejaVuSans-45"/>
       <use x="420.507812" xlink:href="#DejaVuSans-1057"/>
       <use x="490.332031" xlink:href="#DejaVuSans-1077"/>
       <use x="551.855469" xlink:href="#DejaVuSans-1074"/>
       <use x="610.791016" xlink:href="#DejaVuSans-1077"/>
       <use x="672.314453" xlink:href="#DejaVuSans-1088"/>
       <use x="735.791016" xlink:href="#DejaVuSans-1085"/>
       <use x="801.171875" xlink:href="#DejaVuSans-1099"/>
       <use x="880.126953" xlink:href="#DejaVuSans-1081"/>
      </g>
      <!-- Holmsk-Severnyj 90 km -->
      <defs>
       <path d="M 53.515625 70.515625 
L 53.515625 60.890625 
Q 47.90625 63.578125 42.921875 64.890625 
Q 37.9375 66.21875 33.296875 66.21875 
Q 25.25 66.21875 20.875 63.09375 
Q 16.5 59.96875 16.5 54.203125 
Q 16.5 49.359375 19.40625 46.890625 
Q 22.3125 44.4375 30.421875 42.921875 
L 36.375 41.703125 
Q 47.40625 39.59375 52.65625 34.296875 
Q 57.90625 29 57.90625 20.125 
Q 57.90625 9.515625 50.796875 4.046875 
Q 43.703125 -1.421875 29.984375 -1.421875 
Q 24.8125 -1.421875 18.96875 -0.25 
Q 13.140625 0.921875 6.890625 3.21875 
L 6.890625 13.375 
Q 12.890625 10.015625 18.65625 8.296875 
Q 24.421875 6.59375 29.984375 6.59375 
Q 38.421875 6.59375 43.015625 9.90625 
Q 47.609375 13.234375 47.609375 19.390625 
Q 47.609375 24.75 44.3125 27.78125 
Q 41.015625 30.8125 33.5 32.328125 
L 27.484375 33.5 
Q 16.453125 35.6875 11.515625 40.375 
Q 6.59375 45.0625 6.59375 53.421875 
Q 6.59375 63.09375 13.40625 68.65625 
Q 20.21875 74.21875 32.171875 74.21875 
Q 37.3125 74.21875 42.625 73.28125 
Q 47.953125 72.359375 53.515625 70.515625 
z
" id="DejaVuSans-83"/>
       <path d="M 56.203125 29.59375 
L 56.203125 25.203125 
L 14.890625 25.203125 
Q 15.484375 15.921875 20.484375 11.0625 
Q 25.484375 6.203125 34.421875 6.203125 
Q 39.59375 6.203125 44.453125 7.46875 
Q 49.3125 8.734375 54.109375 11.28125 
L 54.109375 2.78125 
Q 49.265625 0.734375 44.1875 -0.34375 
Q 39.109375 -1.421875 33.890625 -1.421875 
Q 20.796875 -1.421875 13.15625 6.1875 
Q 5.515625 13.8125 5.515625 26.8125 
Q 5.515625 40.234375 12.765625 48.109375 
Q 20.015625 56 32.328125 56 
Q 43.359375 56 49.78125 48.890625 
Q 56.203125 41.796875 56.203125 29.59375 
z
M 47.21875 32.234375 
Q 47.125 39.59375 43.09375 43.984375 
Q 39.0625 48.390625 32.421875 48.390625 
Q 24.90625 48.390625 20.390625 44.140625 
Q 15.875 39.890625 15.1875 32.171875 
z
" id="DejaVuSans-101"/>
       <path d="M 2.984375 54.6875 
L 12.5 54.6875 
L 29.59375 8.796875 
L 46.6875 54.6875 
L 56.203125 54.6875 
L 35.6875 0 
L 23.484375 0 
z
" id="DejaVuSans-118"/>
       <path d="M 41.109375 46.296875 
Q 39.59375 47.171875 37.8125 47.578125 
Q 36.03125 48 33.890625 48 
Q 26.265625 48 22.1875 43.046875 
Q 18.109375 38.09375 18.109375 28.8125 
L 18.109375 0 
L 9.078125 0 
L 9.078125 54.6875 
L 18.109375 54.6875 
L 18.109375 46.1875 
Q 20.953125 51.171875 25.484375 53.578125 
Q 30.03125 56 36.53125 56 
Q 37.453125 56 38.578125 55.875 
Q 39.703125 55.765625 41.0625 55.515625 
z
" id="DejaVuSans-114"/>
       <path d="M 54.890625 33.015625 
L 54.890625 0 
L 45.90625 0 
L 45.90625 32.71875 
Q 45.90625 40.484375 42.875 44.328125 
Q 39.84375 48.1875 33.796875 48.1875 
Q 26.515625 48.1875 22.3125 43.546875 
Q 18.109375 38.921875 18.109375 30.90625 
L 18.109375 0 
L 9.078125 0 
L 9.078125 54.6875 
L 18.109375 54.6875 
L 18.109375 46.1875 
Q 21.34375 51.125 25.703125 53.5625 
Q 30.078125 56 35.796875 56 
Q 45.21875 56 50.046875 50.171875 
Q 54.890625 44.34375 54.890625 33.015625 
z
" id="DejaVuSans-110"/>
       <path d="M 32.171875 -5.078125 
Q 28.375 -14.84375 24.75 -17.8125 
Q 21.140625 -20.796875 15.09375 -20.796875 
L 7.90625 -20.796875 
L 7.90625 -13.28125 
L 13.1875 -13.28125 
Q 16.890625 -13.28125 18.9375 -11.515625 
Q 21 -9.765625 23.484375 -3.21875 
L 25.09375 0.875 
L 2.984375 54.6875 
L 12.5 54.6875 
L 29.59375 11.921875 
L 46.6875 54.6875 
L 56.203125 54.6875 
z
" id="DejaVuSans-121"/>
       <path d="M 9.421875 54.6875 
L 18.40625 54.6875 
L 18.40625 -0.984375 
Q 18.40625 -11.421875 14.421875 -16.109375 
Q 10.453125 -20.796875 1.609375 -20.796875 
L -1.8125 -20.796875 
L -1.8125 -13.1875 
L 0.59375 -13.1875 
Q 5.71875 -13.1875 7.5625 -10.8125 
Q 9.421875 -8.453125 9.421875 -0.984375 
z
M 9.421875 75.984375 
L 18.40625 75.984375 
L 18.40625 64.59375 
L 9.421875 64.59375 
z
" id="DejaVuSans-106"/>
      </defs>
      <g transform="translate(27.604688 523.335707)scale(0.1 -0.1)">
       <use xlink:href="#DejaVuSans-72"/>
       <use x="75.195312" xlink:href="#DejaVuSans-111"/>
       <use x="136.376953" xlink:href="#DejaVuSans-108"/>
       <use x="164.160156" xlink:href="#DejaVuSans-109"/>
       <use x="261.572266" xlink:href="#DejaVuSans-115"/>
       <use x="313.671875" xlink:href="#DejaVuSans-107"/>
       <use x="371.582031" xlink:href="#DejaVuSans-45"/>
       <use x="407.666016" xlink:href="#DejaVuSans-83"/>
       <use x="471.142578" xlink:href="#DejaVuSans-101"/>
       <use x="532.666016" xlink:href="#DejaVuSans-118"/>
       <use x="591.845703" xlink:href="#DejaVuSans-101"/>
       <use x="653.369141" xlink:href="#DejaVuSans-114"/>
       <use x="694.466797" xlink:href="#DejaVuSans-110"/>
       <use x="757.845703" xlink:href="#DejaVuSans-121"/>
       <use x="817.025391" xlink:href="#DejaVuSans-106"/>
       <use x="844.808594" xlink:href="#DejaVuSans-32"/>
       <use x="876.595703" xlink:href="#DejaVuSans-57"/>
       <use x="940.21875" xlink:href="#DejaVuSans-48"/>
       <use x="1003.841797" xlink:href="#DejaVuSans-32"/>
       <use x="1035.628906" xlink:href="#DejaVuSans-107"/>
       <use x="1093.539062" xlink:href="#DejaVuSans-109"/>
      </g>
     </g>
    </g>
    <g id="ytick_4">
     <g id="line2d_49">
      <path clip-path="url(#p94345298d3)" d="M 153.7 442.552087 
L 1302.885358 442.552087 
" style="fill:none;stroke:#b0b0b0;stroke-linecap:square;stroke-width:0.8;"/>
     </g>
     <g id="line2d_50">
      <g>
       <use style="stroke:#000000;stroke-width:0.8;" x="153.7" xlink:href="#me375efc05a" y="442.552087"/>
      </g>
     </g>
     <g id="text_25">
      <!-- Чехов-Сахалинский -->
      <defs>
       <path d="M 54.890625 54.6875 
L 35.109375 28.078125 
L 55.90625 0 
L 45.3125 0 
L 29.390625 21.484375 
L 13.484375 0 
L 2.875 0 
L 24.125 28.609375 
L 4.6875 54.6875 
L 15.28125 54.6875 
L 29.78125 35.203125 
L 44.28125 54.6875 
z
" id="DejaVuSans-1093"/>
       <path d="M 34.28125 27.484375 
Q 23.390625 27.484375 19.1875 25 
Q 14.984375 22.515625 14.984375 16.5 
Q 14.984375 11.71875 18.140625 8.90625 
Q 21.296875 6.109375 26.703125 6.109375 
Q 34.1875 6.109375 38.703125 11.40625 
Q 43.21875 16.703125 43.21875 25.484375 
L 43.21875 27.484375 
z
M 52.203125 31.203125 
L 52.203125 0 
L 43.21875 0 
L 43.21875 8.296875 
Q 40.140625 3.328125 35.546875 0.953125 
Q 30.953125 -1.421875 24.3125 -1.421875 
Q 15.921875 -1.421875 10.953125 3.296875 
Q 6 8.015625 6 15.921875 
Q 6 25.140625 12.171875 29.828125 
Q 18.359375 34.515625 30.609375 34.515625 
L 43.21875 34.515625 
L 43.21875 35.40625 
Q 43.21875 41.609375 39.140625 45 
Q 35.0625 48.390625 27.6875 48.390625 
Q 23 48.390625 18.546875 47.265625 
Q 14.109375 46.140625 10.015625 43.890625 
L 10.015625 52.203125 
Q 14.9375 54.109375 19.578125 55.046875 
Q 24.21875 56 28.609375 56 
Q 40.484375 56 46.34375 49.84375 
Q 52.203125 43.703125 52.203125 31.203125 
z
" id="DejaVuSans-1072"/>
       <path d="M 55.90625 54.6875 
L 55.90625 0 
L 46.96875 0 
L 46.96875 43.890625 
L 20.609375 0 
L 9.078125 0 
L 9.078125 54.6875 
L 18.015625 54.6875 
L 18.015625 10.890625 
L 44.34375 54.6875 
z
" id="DejaVuSans-1080"/>
      </defs>
      <g transform="translate(43.029688 441.512244)scale(0.1 -0.1)">
       <use xlink:href="#DejaVuSans-1063"/>
       <use x="68.554688" xlink:href="#DejaVuSans-1077"/>
       <use x="130.078125" xlink:href="#DejaVuSans-1093"/>
       <use x="189.257812" xlink:href="#DejaVuSans-1086"/>
       <use x="250.439453" xlink:href="#DejaVuSans-1074"/>
       <use x="309.375" xlink:href="#DejaVuSans-45"/>
       <use x="345.458984" xlink:href="#DejaVuSans-1057"/>
       <use x="415.283203" xlink:href="#DejaVuSans-1072"/>
       <use x="476.5625" xlink:href="#DejaVuSans-1093"/>
       <use x="535.742188" xlink:href="#DejaVuSans-1072"/>
       <use x="597.021484" xlink:href="#DejaVuSans-1083"/>
       <use x="660.9375" xlink:href="#DejaVuSans-1080"/>
       <use x="725.927734" xlink:href="#DejaVuSans-1085"/>
       <use x="791.308594" xlink:href="#DejaVuSans-1089"/>
       <use x="846.289062" xlink:href="#DejaVuSans-1082"/>
       <use x="906.689453" xlink:href="#DejaVuSans-1080"/>
       <use x="971.679688" xlink:href="#DejaVuSans-1081"/>
      </g>
      <!-- Chehov-Sahalinskij 104 km -->
      <defs>
       <path d="M 64.40625 67.28125 
L 64.40625 56.890625 
Q 59.421875 61.53125 53.78125 63.8125 
Q 48.140625 66.109375 41.796875 66.109375 
Q 29.296875 66.109375 22.65625 58.46875 
Q 16.015625 50.828125 16.015625 36.375 
Q 16.015625 21.96875 22.65625 14.328125 
Q 29.296875 6.6875 41.796875 6.6875 
Q 48.140625 6.6875 53.78125 8.984375 
Q 59.421875 11.28125 64.40625 15.921875 
L 64.40625 5.609375 
Q 59.234375 2.09375 53.4375 0.328125 
Q 47.65625 -1.421875 41.21875 -1.421875 
Q 24.65625 -1.421875 15.125 8.703125 
Q 5.609375 18.84375 5.609375 36.375 
Q 5.609375 53.953125 15.125 64.078125 
Q 24.65625 74.21875 41.21875 74.21875 
Q 47.75 74.21875 53.53125 72.484375 
Q 59.328125 70.75 64.40625 67.28125 
z
" id="DejaVuSans-67"/>
       <path d="M 54.890625 33.015625 
L 54.890625 0 
L 45.90625 0 
L 45.90625 32.71875 
Q 45.90625 40.484375 42.875 44.328125 
Q 39.84375 48.1875 33.796875 48.1875 
Q 26.515625 48.1875 22.3125 43.546875 
Q 18.109375 38.921875 18.109375 30.90625 
L 18.109375 0 
L 9.078125 0 
L 9.078125 75.984375 
L 18.109375 75.984375 
L 18.109375 46.1875 
Q 21.34375 51.125 25.703125 53.5625 
Q 30.078125 56 35.796875 56 
Q 45.21875 56 50.046875 50.171875 
Q 54.890625 44.34375 54.890625 33.015625 
z
" id="DejaVuSans-104"/>
       <path d="M 34.28125 27.484375 
Q 23.390625 27.484375 19.1875 25 
Q 14.984375 22.515625 14.984375 16.5 
Q 14.984375 11.71875 18.140625 8.90625 
Q 21.296875 6.109375 26.703125 6.109375 
Q 34.1875 6.109375 38.703125 11.40625 
Q 43.21875 16.703125 43.21875 25.484375 
L 43.21875 27.484375 
z
M 52.203125 31.203125 
L 52.203125 0 
L 43.21875 0 
L 43.21875 8.296875 
Q 40.140625 3.328125 35.546875 0.953125 
Q 30.953125 -1.421875 24.3125 -1.421875 
Q 15.921875 -1.421875 10.953125 3.296875 
Q 6 8.015625 6 15.921875 
Q 6 25.140625 12.171875 29.828125 
Q 18.359375 34.515625 30.609375 34.515625 
L 43.21875 34.515625 
L 43.21875 35.40625 
Q 43.21875 41.609375 39.140625 45 
Q 35.0625 48.390625 27.6875 48.390625 
Q 23 48.390625 18.546875 47.265625 
Q 14.109375 46.140625 10.015625 43.890625 
L 10.015625 52.203125 
Q 14.9375 54.109375 19.578125 55.046875 
Q 24.21875 56 28.609375 56 
Q 40.484375 56 46.34375 49.84375 
Q 52.203125 43.703125 52.203125 31.203125 
z
" id="DejaVuSans-97"/>
       <path d="M 9.421875 54.6875 
L 18.40625 54.6875 
L 18.40625 0 
L 9.421875 0 
z
M 9.421875 75.984375 
L 18.40625 75.984375 
L 18.40625 64.59375 
L 9.421875 64.59375 
z
" id="DejaVuSans-105"/>
      </defs>
      <g transform="translate(10.879688 452.710056)scale(0.1 -0.1)">
       <use xlink:href="#DejaVuSans-67"/>
       <use x="69.824219" xlink:href="#DejaVuSans-104"/>
       <use x="133.203125" xlink:href="#DejaVuSans-101"/>
       <use x="194.726562" xlink:href="#DejaVuSans-104"/>
       <use x="258.105469" xlink:href="#DejaVuSans-111"/>
       <use x="319.287109" xlink:href="#DejaVuSans-118"/>
       <use x="378.435547" xlink:href="#DejaVuSans-45"/>
       <use x="414.519531" xlink:href="#DejaVuSans-83"/>
       <use x="477.996094" xlink:href="#DejaVuSans-97"/>
       <use x="539.275391" xlink:href="#DejaVuSans-104"/>
       <use x="602.654297" xlink:href="#DejaVuSans-97"/>
       <use x="663.933594" xlink:href="#DejaVuSans-108"/>
       <use x="691.716797" xlink:href="#DejaVuSans-105"/>
       <use x="719.5" xlink:href="#DejaVuSans-110"/>
       <use x="782.878906" xlink:href="#DejaVuSans-115"/>
       <use x="834.978516" xlink:href="#DejaVuSans-107"/>
       <use x="892.888672" xlink:href="#DejaVuSans-105"/>
       <use x="920.671875" xlink:href="#DejaVuSans-106"/>
       <use x="948.455078" xlink:href="#DejaVuSans-32"/>
       <use x="980.242188" xlink:href="#DejaVuSans-49"/>
       <use x="1043.865234" xlink:href="#DejaVuSans-48"/>
       <use x="1107.488281" xlink:href="#DejaVuSans-52"/>
       <use x="1171.111328" xlink:href="#DejaVuSans-32"/>
       <use x="1202.898438" xlink:href="#DejaVuSans-107"/>
       <use x="1260.808594" xlink:href="#DejaVuSans-109"/>
      </g>
     </g>
    </g>
    <g id="ytick_5">
     <g id="line2d_51">
      <path clip-path="url(#p94345298d3)" d="M 153.7 230.675134 
L 1302.885358 230.675134 
" style="fill:none;stroke:#b0b0b0;stroke-linecap:square;stroke-width:0.8;"/>
     </g>
     <g id="line2d_52">
      <g>
       <use style="stroke:#000000;stroke-width:0.8;" x="153.7" xlink:href="#me375efc05a" y="230.675134"/>
      </g>
     </g>
     <g id="text_26">
      <!-- Томари -->
      <defs>
       <path d="M -0.296875 72.90625 
L 61.375 72.90625 
L 61.375 64.59375 
L 35.5 64.59375 
L 35.5 0 
L 25.59375 0 
L 25.59375 64.59375 
L -0.296875 64.59375 
z
" id="DejaVuSans-1058"/>
      </defs>
      <g transform="translate(107.954688 229.63529)scale(0.1 -0.1)">
       <use xlink:href="#DejaVuSans-1058"/>
       <use x="61.083984" xlink:href="#DejaVuSans-1086"/>
       <use x="122.265625" xlink:href="#DejaVuSans-1084"/>
       <use x="197.705078" xlink:href="#DejaVuSans-1072"/>
       <use x="258.984375" xlink:href="#DejaVuSans-1088"/>
       <use x="322.460938" xlink:href="#DejaVuSans-1080"/>
      </g>
      <!-- Tomari 146 km -->
      <defs>
       <path d="M -0.296875 72.90625 
L 61.375 72.90625 
L 61.375 64.59375 
L 35.5 64.59375 
L 35.5 0 
L 25.59375 0 
L 25.59375 64.59375 
L -0.296875 64.59375 
z
" id="DejaVuSans-84"/>
      </defs>
      <g transform="translate(70.767188 240.833103)scale(0.1 -0.1)">
       <use xlink:href="#DejaVuSans-84"/>
       <use x="60.818359" xlink:href="#DejaVuSans-111"/>
       <use x="122" xlink:href="#DejaVuSans-109"/>
       <use x="219.412109" xlink:href="#DejaVuSans-97"/>
       <use x="280.691406" xlink:href="#DejaVuSans-114"/>
       <use x="321.804688" xlink:href="#DejaVuSans-105"/>
       <use x="349.587891" xlink:href="#DejaVuSans-32"/>
       <use x="381.375" xlink:href="#DejaVuSans-49"/>
       <use x="444.998047" xlink:href="#DejaVuSans-52"/>
       <use x="508.621094" xlink:href="#DejaVuSans-54"/>
       <use x="572.244141" xlink:href="#DejaVuSans-32"/>
       <use x="604.03125" xlink:href="#DejaVuSans-107"/>
       <use x="661.941406" xlink:href="#DejaVuSans-109"/>
      </g>
     </g>
    </g>
    <g id="ytick_6">
     <g id="line2d_53">
      <path clip-path="url(#p94345298d3)" d="M 153.7 64.200385 
L 1302.885358 64.200385 
" style="fill:none;stroke:#b0b0b0;stroke-linecap:square;stroke-width:0.8;"/>
     </g>
     <g id="line2d_54">
      <g>
       <use style="stroke:#000000;stroke-width:0.8;" x="153.7" xlink:href="#me375efc05a" y="64.200385"/>
      </g>
     </g>
     <g id="text_27">
      <!-- Ильинск-Сахалинский -->
      <defs>
       <path d="M 64.984375 72.90625 
L 64.984375 0 
L 55.421875 0 
L 55.421875 60.984375 
L 23.09375 0 
L 9.8125 0 
L 9.8125 72.90625 
L 19.390625 72.90625 
L 19.390625 11.921875 
L 51.703125 72.90625 
z
" id="DejaVuSans-1048"/>
       <path d="M 43.453125 16.21875 
Q 43.453125 20.609375 40.25 22.90625 
Q 37.0625 25.203125 30.90625 25.203125 
L 18.109375 25.203125 
L 18.109375 7.171875 
L 30.90625 7.171875 
Q 37.0625 7.171875 40.25 9.484375 
Q 43.453125 11.8125 43.453125 16.21875 
z
M 9.078125 54.6875 
L 18.109375 54.6875 
L 18.109375 32.375 
L 31.296875 32.375 
Q 41.75 32.375 47.390625 28.390625 
Q 53.03125 24.421875 53.03125 16.21875 
Q 53.03125 8.015625 47.390625 4 
Q 41.75 0 31.296875 0 
L 9.078125 0 
z
" id="DejaVuSans-1100"/>
      </defs>
      <g transform="translate(29.628125 63.160541)scale(0.1 -0.1)">
       <use xlink:href="#DejaVuSans-1048"/>
       <use x="74.804688" xlink:href="#DejaVuSans-1083"/>
       <use x="138.720703" xlink:href="#DejaVuSans-1100"/>
       <use x="197.65625" xlink:href="#DejaVuSans-1080"/>
       <use x="262.646484" xlink:href="#DejaVuSans-1085"/>
       <use x="328.027344" xlink:href="#DejaVuSans-1089"/>
       <use x="383.007812" xlink:href="#DejaVuSans-1082"/>
       <use x="443.408203" xlink:href="#DejaVuSans-45"/>
       <use x="479.492188" xlink:href="#DejaVuSans-1057"/>
       <use x="549.316406" xlink:href="#DejaVuSans-1072"/>
       <use x="610.595703" xlink:href="#DejaVuSans-1093"/>
       <use x="669.775391" xlink:href="#DejaVuSans-1072"/>
       <use x="731.054688" xlink:href="#DejaVuSans-1083"/>
       <use x="794.970703" xlink:href="#DejaVuSans-1080"/>
       <use x="859.960938" xlink:href="#DejaVuSans-1085"/>
       <use x="925.341797" xlink:href="#DejaVuSans-1089"/>
       <use x="980.322266" xlink:href="#DejaVuSans-1082"/>
       <use x="1040.722656" xlink:href="#DejaVuSans-1080"/>
       <use x="1105.712891" xlink:href="#DejaVuSans-1081"/>
      </g>
      <!-- Il'insk-Sahalinskij 179 km -->
      <defs>
       <path d="M 9.8125 72.90625 
L 19.671875 72.90625 
L 19.671875 0 
L 9.8125 0 
z
" id="DejaVuSans-73"/>
       <path d="M 17.921875 72.90625 
L 17.921875 45.796875 
L 9.625 45.796875 
L 9.625 72.90625 
z
" id="DejaVuSans-39"/>
      </defs>
      <g transform="translate(20.132813 74.358353)scale(0.1 -0.1)">
       <use xlink:href="#DejaVuSans-73"/>
       <use x="29.492188" xlink:href="#DejaVuSans-108"/>
       <use x="57.275391" xlink:href="#DejaVuSans-39"/>
       <use x="84.765625" xlink:href="#DejaVuSans-105"/>
       <use x="112.548828" xlink:href="#DejaVuSans-110"/>
       <use x="175.927734" xlink:href="#DejaVuSans-115"/>
       <use x="228.027344" xlink:href="#DejaVuSans-107"/>
       <use x="285.9375" xlink:href="#DejaVuSans-45"/>
       <use x="322.021484" xlink:href="#DejaVuSans-83"/>
       <use x="385.498047" xlink:href="#DejaVuSans-97"/>
       <use x="446.777344" xlink:href="#DejaVuSans-104"/>
       <use x="510.15625" xlink:href="#DejaVuSans-97"/>
       <use x="571.435547" xlink:href="#DejaVuSans-108"/>
       <use x="599.21875" xlink:href="#DejaVuSans-105"/>
       <use x="627.001953" xlink:href="#DejaVuSans-110"/>
       <use x="690.380859" xlink:href="#DejaVuSans-115"/>
       <use x="742.480469" xlink:href="#DejaVuSans-107"/>
       <use x="800.390625" xlink:href="#DejaVuSans-105"/>
       <use x="828.173828" xlink:href="#DejaVuSans-106"/>
       <use x="855.957031" xlink:href="#DejaVuSans-32"/>
       <use x="887.744141" xlink:href="#DejaVuSans-49"/>
       <use x="951.367188" xlink:href="#DejaVuSans-55"/>
       <use x="1014.990234" xlink:href="#DejaVuSans-57"/>
       <use x="1078.613281" xlink:href="#DejaVuSans-32"/>
       <use x="1110.400391" xlink:href="#DejaVuSans-107"/>
       <use x="1168.310547" xlink:href="#DejaVuSans-109"/>
      </g>
     </g>
    </g>
   </g>
   <g id="line2d_55">
    <path clip-path="url(#p94345298d3)" d="M 300.566843 528.311807 
L 366.370817 442.552087 
" style="fill:none;stroke:#b10026;stroke-linecap:square;stroke-width:1.5;"/>
   </g>
   <g id="line2d_56">
    <path clip-path="url(#p94345298d3)" d="M 375.907625 442.552087 
L 458.877855 528.311807 
L 460.785216 528.311807 
L 487.488278 588.848079 
L 506.561894 588.848079 
L 535.172318 528.311807 
L 543.755445 513.177739 
" style="fill:none;stroke:#b10026;stroke-linecap:square;stroke-width:1.5;"/>
   </g>
   <g id="line2d_57">
    <path clip-path="url(#p94345298d3)" d="M 748.796816 528.311807 
L 833.674407 442.552087 
L 843.211215 442.552087 
L 928.088806 528.311807 
L 954.791868 588.848079 
" style="fill:none;stroke:#b10026;stroke-linecap:square;stroke-width:1.5;"/>
   </g>
   <g id="line2d_58">
    <path clip-path="url(#p94345298d3)" d="M 970.050761 588.848079 
L 997.707504 528.311807 
L 1002.475908 528.311807 
L 1084.492456 442.552087 
" style="fill:none;stroke:#b10026;stroke-linecap:square;stroke-width:1.5;"/>
   </g>
   <g id="line2d_59">
    <path clip-path="url(#p94345298d3)" d="M 1094.029264 442.552087 
L 1171.277408 528.311807 
" style="fill:none;stroke:#b10026;stroke-linecap:square;stroke-width:1.5;"/>
   </g>
   <g id="line2d_60">
    <path clip-path="url(#p94345298d3)" d="M 194.708274 528.311807 
L 261.46593 442.552087 
L 310.10365 230.675134 
" style="fill:none;stroke:#b10026;stroke-linecap:square;stroke-width:1.5;"/>
   </g>
   <g id="line2d_61">
    <path clip-path="url(#p94345298d3)" d="M 319.640458 230.675134 
L 375.907625 442.552087 
" style="fill:none;stroke:#b10026;stroke-linecap:square;stroke-width:1.5;"/>
   </g>
   <g id="line2d_62">
    <path clip-path="url(#p94345298d3)" d="M 1087.353498 442.552087 
L 1139.805942 230.675134 
" style="fill:none;stroke:#b10026;stroke-linecap:square;stroke-width:1.5;"/>
   </g>
   <g id="line2d_63">
    <path clip-path="url(#p94345298d3)" d="M 1149.34275 230.675134 
L 1199.887832 442.552087 
L 1276.182296 528.311807 
" style="fill:none;stroke:#b10026;stroke-linecap:square;stroke-width:1.5;"/>
   </g>
   <g id="line2d_64">
    <path clip-path="url(#p94345298d3)" d="M 221.411337 230.675134 
L 262.419611 64.200385 
L 271.956419 64.200385 
" style="fill:none;stroke:#b10026;stroke-linecap:square;stroke-width:1.5;"/>
   </g>
   <g id="line2d_65">
    <path clip-path="url(#p94345298d3)" d="M 1154.111154 64.200385 
L 1163.647962 64.200385 
L 1206.563598 230.675134 
" style="fill:none;stroke:#b10026;stroke-linecap:square;stroke-width:1.5;"/>
   </g>
   <g id="patch_3">
    <path d="M 153.7 615.080464 
L 153.7 37.968 
" style="fill:none;stroke:#000000;stroke-linecap:square;stroke-linejoin:miter;stroke-width:0.8;"/>
   </g>
   <g id="patch_4">
    <path d="M 1302.885358 615.080464 
L 1302.885358 37.968 
" style="fill:none;stroke:#000000;stroke-linecap:square;stroke-linejoin:miter;stroke-width:0.8;"/>
   </g>
   <g id="patch_5">
    <path d="M 153.7 615.080464 
L 1302.885358 615.080464 
" style="fill:none;stroke:#000000;stroke-linecap:square;stroke-linejoin:miter;stroke-width:0.8;"/>
   </g>
   <g id="patch_6">
    <path d="M 153.7 37.968 
L 1302.885358 37.968 
" style="fill:none;stroke:#000000;stroke-linecap:square;stroke-linejoin:miter;stroke-width:0.8;"/>
   </g>
   <g id="patch_7">
    <path d="M 384.466646 477.449316 
Q 360.661698 482.494384 337.950492 487.307653 
" style="fill:none;stroke:#000000;stroke-linecap:round;"/>
    <path d="M 342.278234 488.434881 
L 337.950492 487.307653 
L 341.44892 484.521795 
L 342.278234 488.434881 
z
" style="fill:#1f77b4;stroke:#000000;stroke-linecap:round;"/>
   </g>
   <g id="text_28">
    <!-- Tue, We, Thursday, Sunday -->
    <defs>
     <path d="M 8.5 21.578125 
L 8.5 54.6875 
L 17.484375 54.6875 
L 17.484375 21.921875 
Q 17.484375 14.15625 20.5 10.265625 
Q 23.53125 6.390625 29.59375 6.390625 
Q 36.859375 6.390625 41.078125 11.03125 
Q 45.3125 15.671875 45.3125 23.6875 
L 45.3125 54.6875 
L 54.296875 54.6875 
L 54.296875 0 
L 45.3125 0 
L 45.3125 8.40625 
Q 42.046875 3.421875 37.71875 1 
Q 33.40625 -1.421875 27.6875 -1.421875 
Q 18.265625 -1.421875 13.375 4.4375 
Q 8.5 10.296875 8.5 21.578125 
z
M 31.109375 56 
z
" id="DejaVuSans-117"/>
     <path d="M 11.71875 12.40625 
L 22.015625 12.40625 
L 22.015625 4 
L 14.015625 -11.625 
L 7.71875 -11.625 
L 11.71875 4 
z
" id="DejaVuSans-44"/>
     <path d="M 3.328125 72.90625 
L 13.28125 72.90625 
L 28.609375 11.28125 
L 43.890625 72.90625 
L 54.984375 72.90625 
L 70.3125 11.28125 
L 85.59375 72.90625 
L 95.609375 72.90625 
L 77.296875 0 
L 64.890625 0 
L 49.515625 63.28125 
L 33.984375 0 
L 21.578125 0 
z
" id="DejaVuSans-87"/>
     <path d="M 45.40625 46.390625 
L 45.40625 75.984375 
L 54.390625 75.984375 
L 54.390625 0 
L 45.40625 0 
L 45.40625 8.203125 
Q 42.578125 3.328125 38.25 0.953125 
Q 33.9375 -1.421875 27.875 -1.421875 
Q 17.96875 -1.421875 11.734375 6.484375 
Q 5.515625 14.40625 5.515625 27.296875 
Q 5.515625 40.1875 11.734375 48.09375 
Q 17.96875 56 27.875 56 
Q 33.9375 56 38.25 53.625 
Q 42.578125 51.265625 45.40625 46.390625 
z
M 14.796875 27.296875 
Q 14.796875 17.390625 18.875 11.75 
Q 22.953125 6.109375 30.078125 6.109375 
Q 37.203125 6.109375 41.296875 11.75 
Q 45.40625 17.390625 45.40625 27.296875 
Q 45.40625 37.203125 41.296875 42.84375 
Q 37.203125 48.484375 30.078125 48.484375 
Q 22.953125 48.484375 18.875 42.84375 
Q 14.796875 37.203125 14.796875 27.296875 
z
" id="DejaVuSans-100"/>
    </defs>
    <g transform="translate(349.899351 472.954292)scale(0.1 -0.1)">
     <use xlink:href="#DejaVuSans-84"/>
     <use x="60.849609" xlink:href="#DejaVuSans-117"/>
     <use x="124.228516" xlink:href="#DejaVuSans-101"/>
     <use x="185.751953" xlink:href="#DejaVuSans-44"/>
     <use x="217.539062" xlink:href="#DejaVuSans-32"/>
     <use x="249.326172" xlink:href="#DejaVuSans-87"/>
     <use x="348.125" xlink:href="#DejaVuSans-101"/>
     <use x="409.648438" xlink:href="#DejaVuSans-44"/>
     <use x="441.435547" xlink:href="#DejaVuSans-32"/>
     <use x="473.222656" xlink:href="#DejaVuSans-84"/>
     <use x="534.306641" xlink:href="#DejaVuSans-104"/>
     <use x="597.685547" xlink:href="#DejaVuSans-117"/>
     <use x="661.064453" xlink:href="#DejaVuSans-114"/>
     <use x="702.177734" xlink:href="#DejaVuSans-115"/>
     <use x="754.277344" xlink:href="#DejaVuSans-100"/>
     <use x="817.753906" xlink:href="#DejaVuSans-97"/>
     <use x="879.033203" xlink:href="#DejaVuSans-121"/>
     <use x="938.212891" xlink:href="#DejaVuSans-44"/>
     <use x="970" xlink:href="#DejaVuSans-32"/>
     <use x="1001.787109" xlink:href="#DejaVuSans-83"/>
     <use x="1065.263672" xlink:href="#DejaVuSans-117"/>
     <use x="1128.642578" xlink:href="#DejaVuSans-110"/>
     <use x="1192.021484" xlink:href="#DejaVuSans-100"/>
     <use x="1255.498047" xlink:href="#DejaVuSans-97"/>
     <use x="1316.777344" xlink:href="#DejaVuSans-121"/>
    </g>
   </g>
   <g id="patch_8">
    <path d="M 414.887014 452.621945 
Q 404.416558 457.271027 394.967936 461.466396 
" style="fill:none;stroke:#000000;stroke-linecap:round;"/>
    <path d="M 399.435386 461.671052 
L 394.967936 461.466396 
L 397.812131 458.015229 
L 399.435386 461.671052 
z
" style="fill:#1f77b4;stroke:#000000;stroke-linecap:round;"/>
   </g>
   <g id="text_29">
    <!-- Every day -->
    <defs>
     <path d="M 9.8125 72.90625 
L 55.90625 72.90625 
L 55.90625 64.59375 
L 19.671875 64.59375 
L 19.671875 43.015625 
L 54.390625 43.015625 
L 54.390625 34.71875 
L 19.671875 34.71875 
L 19.671875 8.296875 
L 56.78125 8.296875 
L 56.78125 0 
L 9.8125 0 
z
" id="DejaVuSans-69"/>
    </defs>
    <g transform="translate(407.120199 447.730845)scale(0.1 -0.1)">
     <use xlink:href="#DejaVuSans-69"/>
     <use x="63.183594" xlink:href="#DejaVuSans-118"/>
     <use x="122.363281" xlink:href="#DejaVuSans-101"/>
     <use x="183.886719" xlink:href="#DejaVuSans-114"/>
     <use x="225" xlink:href="#DejaVuSans-121"/>
     <use x="284.179688" xlink:href="#DejaVuSans-32"/>
     <use x="315.966797" xlink:href="#DejaVuSans-100"/>
     <use x="379.443359" xlink:href="#DejaVuSans-97"/>
     <use x="440.722656" xlink:href="#DejaVuSans-121"/>
    </g>
   </g>
   <g id="patch_9">
    <path d="M 1143.596558 432.047111 
Q 1119.791611 437.09218 1097.080404 441.905448 
" style="fill:none;stroke:#000000;stroke-linecap:round;"/>
    <path d="M 1101.408147 443.032677 
L 1097.080404 441.905448 
L 1100.578833 439.119591 
L 1101.408147 443.032677 
z
" style="fill:#1f77b4;stroke:#000000;stroke-linecap:round;"/>
   </g>
   <g id="text_30">
    <!-- Tue, We, Thursday, Sunday -->
    <g transform="translate(1109.029264 427.552087)scale(0.1 -0.1)">
     <use xlink:href="#DejaVuSans-84"/>
     <use x="60.849609" xlink:href="#DejaVuSans-117"/>
     <use x="124.228516" xlink:href="#DejaVuSans-101"/>
     <use x="185.751953" xlink:href="#DejaVuSans-44"/>
     <use x="217.539062" xlink:href="#DejaVuSans-32"/>
     <use x="249.326172" xlink:href="#DejaVuSans-87"/>
     <use x="348.125" xlink:href="#DejaVuSans-101"/>
     <use x="409.648438" xlink:href="#DejaVuSans-44"/>
     <use x="441.435547" xlink:href="#DejaVuSans-32"/>
     <use x="473.222656" xlink:href="#DejaVuSans-84"/>
     <use x="534.306641" xlink:href="#DejaVuSans-104"/>
     <use x="597.685547" xlink:href="#DejaVuSans-117"/>
     <use x="661.064453" xlink:href="#DejaVuSans-114"/>
     <use x="702.177734" xlink:href="#DejaVuSans-115"/>
     <use x="754.277344" xlink:href="#DejaVuSans-100"/>
     <use x="817.753906" xlink:href="#DejaVuSans-97"/>
     <use x="879.033203" xlink:href="#DejaVuSans-121"/>
     <use x="938.212891" xlink:href="#DejaVuSans-44"/>
     <use x="970" xlink:href="#DejaVuSans-32"/>
     <use x="1001.787109" xlink:href="#DejaVuSans-83"/>
     <use x="1065.263672" xlink:href="#DejaVuSans-117"/>
     <use x="1128.642578" xlink:href="#DejaVuSans-110"/>
     <use x="1192.021484" xlink:href="#DejaVuSans-100"/>
     <use x="1255.498047" xlink:href="#DejaVuSans-97"/>
     <use x="1316.777344" xlink:href="#DejaVuSans-121"/>
    </g>
   </g>
   <g id="patch_10">
    <path d="M 308.231953 432.069253 
Q 285.823709 437.092171 264.506428 441.870545 
" style="fill:none;stroke:#000000;stroke-linecap:round;"/>
    <path d="M 268.847026 442.947208 
L 264.506428 441.870545 
L 267.972117 439.044064 
L 268.847026 442.947208 
z
" style="fill:#1f77b4;stroke:#000000;stroke-linecap:round;"/>
   </g>
   <g id="text_31">
    <!-- Monday, Friday, Saturday -->
    <defs>
     <path d="M 9.8125 72.90625 
L 24.515625 72.90625 
L 43.109375 23.296875 
L 61.8125 72.90625 
L 76.515625 72.90625 
L 76.515625 0 
L 66.890625 0 
L 66.890625 64.015625 
L 48.09375 14.015625 
L 38.1875 14.015625 
L 19.390625 64.015625 
L 19.390625 0 
L 9.8125 0 
z
" id="DejaVuSans-77"/>
     <path d="M 9.8125 72.90625 
L 51.703125 72.90625 
L 51.703125 64.59375 
L 19.671875 64.59375 
L 19.671875 43.109375 
L 48.578125 43.109375 
L 48.578125 34.8125 
L 19.671875 34.8125 
L 19.671875 0 
L 9.8125 0 
z
" id="DejaVuSans-70"/>
     <path d="M 18.3125 70.21875 
L 18.3125 54.6875 
L 36.8125 54.6875 
L 36.8125 47.703125 
L 18.3125 47.703125 
L 18.3125 18.015625 
Q 18.3125 11.328125 20.140625 9.421875 
Q 21.96875 7.515625 27.59375 7.515625 
L 36.8125 7.515625 
L 36.8125 0 
L 27.59375 0 
Q 17.1875 0 13.234375 3.875 
Q 9.28125 7.765625 9.28125 18.015625 
L 9.28125 47.703125 
L 2.6875 47.703125 
L 2.6875 54.6875 
L 9.28125 54.6875 
L 9.28125 70.21875 
z
" id="DejaVuSans-116"/>
    </defs>
    <g transform="translate(276.46593 427.552087)scale(0.1 -0.1)">
     <use xlink:href="#DejaVuSans-77"/>
     <use x="86.279297" xlink:href="#DejaVuSans-111"/>
     <use x="147.460938" xlink:href="#DejaVuSans-110"/>
     <use x="210.839844" xlink:href="#DejaVuSans-100"/>
     <use x="274.316406" xlink:href="#DejaVuSans-97"/>
     <use x="335.595703" xlink:href="#DejaVuSans-121"/>
     <use x="394.775391" xlink:href="#DejaVuSans-44"/>
     <use x="426.5625" xlink:href="#DejaVuSans-32"/>
     <use x="458.349609" xlink:href="#DejaVuSans-70"/>
     <use x="515.759766" xlink:href="#DejaVuSans-114"/>
     <use x="556.873047" xlink:href="#DejaVuSans-105"/>
     <use x="584.65625" xlink:href="#DejaVuSans-100"/>
     <use x="648.132812" xlink:href="#DejaVuSans-97"/>
     <use x="709.412109" xlink:href="#DejaVuSans-121"/>
     <use x="768.591797" xlink:href="#DejaVuSans-44"/>
     <use x="800.378906" xlink:href="#DejaVuSans-32"/>
     <use x="832.166016" xlink:href="#DejaVuSans-83"/>
     <use x="895.642578" xlink:href="#DejaVuSans-97"/>
     <use x="956.921875" xlink:href="#DejaVuSans-116"/>
     <use x="996.130859" xlink:href="#DejaVuSans-117"/>
     <use x="1059.509766" xlink:href="#DejaVuSans-114"/>
     <use x="1100.607422" xlink:href="#DejaVuSans-100"/>
     <use x="1164.083984" xlink:href="#DejaVuSans-97"/>
     <use x="1225.363281" xlink:href="#DejaVuSans-121"/>
    </g>
   </g>
   <g id="patch_11">
    <path d="M 405.507394 351.354223 
Q 383.099151 356.377141 361.781869 361.155515 
" style="fill:none;stroke:#000000;stroke-linecap:round;"/>
    <path d="M 366.122467 362.232178 
L 361.781869 361.155515 
L 365.247558 358.329034 
L 366.122467 362.232178 
z
" style="fill:#1f77b4;stroke:#000000;stroke-linecap:round;"/>
   </g>
   <g id="text_32">
    <!-- Monday, Friday, Saturday -->
    <g transform="translate(373.741371 346.837058)scale(0.1 -0.1)">
     <use xlink:href="#DejaVuSans-77"/>
     <use x="86.279297" xlink:href="#DejaVuSans-111"/>
     <use x="147.460938" xlink:href="#DejaVuSans-110"/>
     <use x="210.839844" xlink:href="#DejaVuSans-100"/>
     <use x="274.316406" xlink:href="#DejaVuSans-97"/>
     <use x="335.595703" xlink:href="#DejaVuSans-121"/>
     <use x="394.775391" xlink:href="#DejaVuSans-44"/>
     <use x="426.5625" xlink:href="#DejaVuSans-32"/>
     <use x="458.349609" xlink:href="#DejaVuSans-70"/>
     <use x="515.759766" xlink:href="#DejaVuSans-114"/>
     <use x="556.873047" xlink:href="#DejaVuSans-105"/>
     <use x="584.65625" xlink:href="#DejaVuSans-100"/>
     <use x="648.132812" xlink:href="#DejaVuSans-97"/>
     <use x="709.412109" xlink:href="#DejaVuSans-121"/>
     <use x="768.591797" xlink:href="#DejaVuSans-44"/>
     <use x="800.378906" xlink:href="#DejaVuSans-32"/>
     <use x="832.166016" xlink:href="#DejaVuSans-83"/>
     <use x="895.642578" xlink:href="#DejaVuSans-97"/>
     <use x="956.921875" xlink:href="#DejaVuSans-116"/>
     <use x="996.130859" xlink:href="#DejaVuSans-117"/>
     <use x="1059.509766" xlink:href="#DejaVuSans-114"/>
     <use x="1100.607422" xlink:href="#DejaVuSans-100"/>
     <use x="1164.083984" xlink:href="#DejaVuSans-97"/>
     <use x="1225.363281" xlink:href="#DejaVuSans-121"/>
    </g>
   </g>
   <g id="patch_12">
    <path d="M 1172.266753 250.460435 
Q 1149.85851 255.483354 1128.541228 260.261728 
" style="fill:none;stroke:#000000;stroke-linecap:round;"/>
    <path d="M 1132.881826 261.338391 
L 1128.541228 260.261728 
L 1132.006917 257.435247 
L 1132.881826 261.338391 
z
" style="fill:#1f77b4;stroke:#000000;stroke-linecap:round;"/>
   </g>
   <g id="text_33">
    <!-- Monday, Friday, Saturday -->
    <g transform="translate(1140.50073 245.94327)scale(0.1 -0.1)">
     <use xlink:href="#DejaVuSans-77"/>
     <use x="86.279297" xlink:href="#DejaVuSans-111"/>
     <use x="147.460938" xlink:href="#DejaVuSans-110"/>
     <use x="210.839844" xlink:href="#DejaVuSans-100"/>
     <use x="274.316406" xlink:href="#DejaVuSans-97"/>
     <use x="335.595703" xlink:href="#DejaVuSans-121"/>
     <use x="394.775391" xlink:href="#DejaVuSans-44"/>
     <use x="426.5625" xlink:href="#DejaVuSans-32"/>
     <use x="458.349609" xlink:href="#DejaVuSans-70"/>
     <use x="515.759766" xlink:href="#DejaVuSans-114"/>
     <use x="556.873047" xlink:href="#DejaVuSans-105"/>
     <use x="584.65625" xlink:href="#DejaVuSans-100"/>
     <use x="648.132812" xlink:href="#DejaVuSans-97"/>
     <use x="709.412109" xlink:href="#DejaVuSans-121"/>
     <use x="768.591797" xlink:href="#DejaVuSans-44"/>
     <use x="800.378906" xlink:href="#DejaVuSans-32"/>
     <use x="832.166016" xlink:href="#DejaVuSans-83"/>
     <use x="895.642578" xlink:href="#DejaVuSans-97"/>
     <use x="956.921875" xlink:href="#DejaVuSans-116"/>
     <use x="996.130859" xlink:href="#DejaVuSans-117"/>
     <use x="1059.509766" xlink:href="#DejaVuSans-114"/>
     <use x="1100.607422" xlink:href="#DejaVuSans-100"/>
     <use x="1164.083984" xlink:href="#DejaVuSans-97"/>
     <use x="1225.363281" xlink:href="#DejaVuSans-121"/>
    </g>
   </g>
   <g id="patch_13">
    <path d="M 1230.441282 351.354223 
Q 1208.033038 356.377141 1186.715756 361.155515 
" style="fill:none;stroke:#000000;stroke-linecap:round;"/>
    <path d="M 1191.056355 362.232178 
L 1186.715756 361.155515 
L 1190.181446 358.329034 
L 1191.056355 362.232178 
z
" style="fill:#1f77b4;stroke:#000000;stroke-linecap:round;"/>
   </g>
   <g id="text_34">
    <!-- Monday, Friday, Saturday -->
    <g transform="translate(1198.675259 346.837058)scale(0.1 -0.1)">
     <use xlink:href="#DejaVuSans-77"/>
     <use x="86.279297" xlink:href="#DejaVuSans-111"/>
     <use x="147.460938" xlink:href="#DejaVuSans-110"/>
     <use x="210.839844" xlink:href="#DejaVuSans-100"/>
     <use x="274.316406" xlink:href="#DejaVuSans-97"/>
     <use x="335.595703" xlink:href="#DejaVuSans-121"/>
     <use x="394.775391" xlink:href="#DejaVuSans-44"/>
     <use x="426.5625" xlink:href="#DejaVuSans-32"/>
     <use x="458.349609" xlink:href="#DejaVuSans-70"/>
     <use x="515.759766" xlink:href="#DejaVuSans-114"/>
     <use x="556.873047" xlink:href="#DejaVuSans-105"/>
     <use x="584.65625" xlink:href="#DejaVuSans-100"/>
     <use x="648.132812" xlink:href="#DejaVuSans-97"/>
     <use x="709.412109" xlink:href="#DejaVuSans-121"/>
     <use x="768.591797" xlink:href="#DejaVuSans-44"/>
     <use x="800.378906" xlink:href="#DejaVuSans-32"/>
     <use x="832.166016" xlink:href="#DejaVuSans-83"/>
     <use x="895.642578" xlink:href="#DejaVuSans-97"/>
     <use x="956.921875" xlink:href="#DejaVuSans-116"/>
     <use x="996.130859" xlink:href="#DejaVuSans-117"/>
     <use x="1059.509766" xlink:href="#DejaVuSans-114"/>
     <use x="1100.607422" xlink:href="#DejaVuSans-100"/>
     <use x="1164.083984" xlink:href="#DejaVuSans-97"/>
     <use x="1225.363281" xlink:href="#DejaVuSans-121"/>
    </g>
   </g>
   <g id="patch_14">
    <path d="M 330.25152 53.642087 
Q 302.566016 58.73983 275.980061 63.635112 
" style="fill:none;stroke:#000000;stroke-linecap:round;"/>
    <path d="M 280.276102 64.877701 
L 275.980061 63.635112 
L 279.551757 60.943832 
L 280.276102 64.877701 
z
" style="fill:#1f77b4;stroke:#000000;stroke-linecap:round;"/>
   </g>
   <g id="text_35">
    <!-- To Uyzhno-Sakhalinsk every day -->
    <defs>
     <path d="M 8.6875 72.90625 
L 18.609375 72.90625 
L 18.609375 28.609375 
Q 18.609375 16.890625 22.84375 11.734375 
Q 27.09375 6.59375 36.625 6.59375 
Q 46.09375 6.59375 50.34375 11.734375 
Q 54.59375 16.890625 54.59375 28.609375 
L 54.59375 72.90625 
L 64.5 72.90625 
L 64.5 27.390625 
Q 64.5 13.140625 57.4375 5.859375 
Q 50.390625 -1.421875 36.625 -1.421875 
Q 22.796875 -1.421875 15.734375 5.859375 
Q 8.6875 13.140625 8.6875 27.390625 
z
" id="DejaVuSans-85"/>
     <path d="M 5.515625 54.6875 
L 48.1875 54.6875 
L 48.1875 46.484375 
L 14.40625 7.171875 
L 48.1875 7.171875 
L 48.1875 0 
L 4.296875 0 
L 4.296875 8.203125 
L 38.09375 47.515625 
L 5.515625 47.515625 
z
" id="DejaVuSans-122"/>
    </defs>
    <g transform="translate(287.9101 49.200385)scale(0.1 -0.1)">
     <use xlink:href="#DejaVuSans-84"/>
     <use x="60.818359" xlink:href="#DejaVuSans-111"/>
     <use x="122" xlink:href="#DejaVuSans-32"/>
     <use x="153.787109" xlink:href="#DejaVuSans-85"/>
     <use x="226.980469" xlink:href="#DejaVuSans-121"/>
     <use x="286.160156" xlink:href="#DejaVuSans-122"/>
     <use x="338.650391" xlink:href="#DejaVuSans-104"/>
     <use x="402.029297" xlink:href="#DejaVuSans-110"/>
     <use x="465.408203" xlink:href="#DejaVuSans-111"/>
     <use x="526.605469" xlink:href="#DejaVuSans-45"/>
     <use x="562.689453" xlink:href="#DejaVuSans-83"/>
     <use x="626.166016" xlink:href="#DejaVuSans-97"/>
     <use x="687.445312" xlink:href="#DejaVuSans-107"/>
     <use x="745.355469" xlink:href="#DejaVuSans-104"/>
     <use x="808.734375" xlink:href="#DejaVuSans-97"/>
     <use x="870.013672" xlink:href="#DejaVuSans-108"/>
     <use x="897.796875" xlink:href="#DejaVuSans-105"/>
     <use x="925.580078" xlink:href="#DejaVuSans-110"/>
     <use x="988.958984" xlink:href="#DejaVuSans-115"/>
     <use x="1041.058594" xlink:href="#DejaVuSans-107"/>
     <use x="1098.96875" xlink:href="#DejaVuSans-32"/>
     <use x="1130.755859" xlink:href="#DejaVuSans-101"/>
     <use x="1192.279297" xlink:href="#DejaVuSans-118"/>
     <use x="1251.458984" xlink:href="#DejaVuSans-101"/>
     <use x="1312.982422" xlink:href="#DejaVuSans-114"/>
     <use x="1354.095703" xlink:href="#DejaVuSans-121"/>
     <use x="1413.275391" xlink:href="#DejaVuSans-32"/>
     <use x="1445.0625" xlink:href="#DejaVuSans-100"/>
     <use x="1508.539062" xlink:href="#DejaVuSans-97"/>
     <use x="1569.818359" xlink:href="#DejaVuSans-121"/>
    </g>
   </g>
   <g id="patch_15">
    <path d="M 1215.599596 53.619426 
Q 1185.840526 58.74038 1157.183296 63.671729 
" style="fill:none;stroke:#000000;stroke-linecap:round;"/>
    <path d="M 1161.464532 64.964408 
L 1157.183296 63.671729 
L 1160.78618 61.022348 
L 1161.464532 64.964408 
z
" style="fill:#1f77b4;stroke:#000000;stroke-linecap:round;"/>
   </g>
   <g id="text_36">
    <!-- From Uyzhno-Sakhalinsk every day -->
    <g transform="translate(1169.111154 49.200385)scale(0.1 -0.1)">
     <use xlink:href="#DejaVuSans-70"/>
     <use x="57.410156" xlink:href="#DejaVuSans-114"/>
     <use x="98.492188" xlink:href="#DejaVuSans-111"/>
     <use x="159.673828" xlink:href="#DejaVuSans-109"/>
     <use x="257.085938" xlink:href="#DejaVuSans-32"/>
     <use x="288.873047" xlink:href="#DejaVuSans-85"/>
     <use x="362.066406" xlink:href="#DejaVuSans-121"/>
     <use x="421.246094" xlink:href="#DejaVuSans-122"/>
     <use x="473.736328" xlink:href="#DejaVuSans-104"/>
     <use x="537.115234" xlink:href="#DejaVuSans-110"/>
     <use x="600.494141" xlink:href="#DejaVuSans-111"/>
     <use x="661.691406" xlink:href="#DejaVuSans-45"/>
     <use x="697.775391" xlink:href="#DejaVuSans-83"/>
     <use x="761.251953" xlink:href="#DejaVuSans-97"/>
     <use x="822.53125" xlink:href="#DejaVuSans-107"/>
     <use x="880.441406" xlink:href="#DejaVuSans-104"/>
     <use x="943.820312" xlink:href="#DejaVuSans-97"/>
     <use x="1005.099609" xlink:href="#DejaVuSans-108"/>
     <use x="1032.882812" xlink:href="#DejaVuSans-105"/>
     <use x="1060.666016" xlink:href="#DejaVuSans-110"/>
     <use x="1124.044922" xlink:href="#DejaVuSans-115"/>
     <use x="1176.144531" xlink:href="#DejaVuSans-107"/>
     <use x="1234.054688" xlink:href="#DejaVuSans-32"/>
     <use x="1265.841797" xlink:href="#DejaVuSans-101"/>
     <use x="1327.365234" xlink:href="#DejaVuSans-118"/>
     <use x="1386.544922" xlink:href="#DejaVuSans-101"/>
     <use x="1448.068359" xlink:href="#DejaVuSans-114"/>
     <use x="1489.181641" xlink:href="#DejaVuSans-121"/>
     <use x="1548.361328" xlink:href="#DejaVuSans-32"/>
     <use x="1580.148438" xlink:href="#DejaVuSans-100"/>
     <use x="1643.625" xlink:href="#DejaVuSans-97"/>
     <use x="1704.904297" xlink:href="#DejaVuSans-121"/>
    </g>
   </g>
   <g id="text_37">
    <!-- Сахалинская железная дорога. Западная линия. График движения поездов на 2022  -->
    <defs>
     <path d="M 18.453125 38.921875 
Q 18.453125 34.859375 21.578125 32.5625 
Q 24.703125 30.28125 30.515625 30.28125 
L 42.625 30.28125 
L 42.625 47.515625 
L 30.515625 47.515625 
Q 24.703125 47.515625 21.578125 45.265625 
Q 18.453125 43.015625 18.453125 38.921875 
z
M 5.671875 0 
L 22.359375 23.96875 
Q 16.703125 25.25 12.9375 28.59375 
Q 9.1875 31.9375 9.1875 38.921875 
Q 9.1875 46.828125 14.421875 50.75 
Q 19.671875 54.6875 30.28125 54.6875 
L 51.65625 54.6875 
L 51.65625 0 
L 42.625 0 
L 42.625 23.09375 
L 31.453125 23.09375 
L 15.328125 0 
z
" id="DejaVuSans-1103"/>
     <path d="M 40.578125 54.6875 
L 49.515625 54.6875 
L 49.515625 29 
L 73.390625 54.6875 
L 83.84375 54.6875 
L 64.203125 33.640625 
L 86.671875 0 
L 77.046875 0 
L 58.640625 27.640625 
L 49.515625 17.828125 
L 49.515625 0 
L 40.578125 0 
L 40.578125 17.828125 
L 31.453125 27.640625 
L 13.03125 0 
L 3.421875 0 
L 25.875 33.640625 
L 6.25 54.6875 
L 16.703125 54.6875 
L 40.578125 29 
z
" id="DejaVuSans-1078"/>
     <path d="M 34.46875 29.5 
Q 40.53125 28.328125 43.890625 24.75 
Q 47.265625 21.1875 47.265625 15.921875 
Q 47.265625 7.46875 40.96875 3.015625 
Q 34.671875 -1.421875 23.046875 -1.421875 
Q 19.140625 -1.421875 15.015625 -0.734375 
Q 10.890625 -0.046875 6.5 1.3125 
L 6.5 9.671875 
Q 9.96875 7.859375 14.109375 6.953125 
Q 18.265625 6.0625 22.796875 6.0625 
Q 30.171875 6.0625 34.296875 8.796875 
Q 38.421875 11.53125 38.421875 15.921875 
Q 38.421875 20.21875 34.765625 22.828125 
Q 31.109375 25.4375 24.421875 25.4375 
L 17.1875 25.4375 
L 17.1875 32.859375 
L 24.75 32.859375 
Q 30.421875 32.859375 33.71875 35.03125 
Q 37.015625 37.203125 37.015625 40.625 
Q 37.015625 43.75 33.609375 46 
Q 30.21875 48.25 24.421875 48.25 
Q 20.953125 48.25 17.015625 47.609375 
Q 13.09375 46.96875 8.34375 45.5625 
L 8.34375 53.71875 
Q 13.140625 54.890625 17.28125 55.46875 
Q 21.4375 56.0625 25.140625 56.0625 
Q 34.71875 56.0625 40.25 52.21875 
Q 45.796875 48.390625 45.796875 41.5 
Q 45.796875 36.96875 42.859375 33.8125 
Q 39.9375 30.671875 34.46875 29.5 
z
" id="DejaVuSans-1079"/>
     <path d="M 21.625 7.171875 
L 47.703125 7.171875 
L 47.703125 47.515625 
L 28.8125 47.515625 
L 28.8125 40.671875 
Q 28.8125 20.5625 23.046875 9.8125 
z
M 8.59375 7.171875 
Q 13.03125 9.125 14.984375 13.28125 
Q 19.78125 23.578125 19.78125 44.34375 
L 19.78125 54.6875 
L 56.734375 54.6875 
L 56.734375 7.171875 
L 63.921875 7.171875 
L 63.921875 -13.8125 
L 56.734375 -13.8125 
L 56.734375 0 
L 12.40625 0 
L 12.40625 -13.8125 
L 5.21875 -13.8125 
L 5.21875 7.171875 
z
" id="DejaVuSans-1076"/>
     <path d="M 9.078125 0 
L 9.078125 54.6875 
L 47.65625 54.6875 
L 47.65625 47.515625 
L 18.109375 47.515625 
L 18.109375 0 
z
" id="DejaVuSans-1075"/>
     <path d="M 10.6875 12.40625 
L 21 12.40625 
L 21 0 
L 10.6875 0 
z
" id="DejaVuSans-46"/>
     <path d="M 28.5625 74.21875 
Q 40.578125 74.21875 48.1875 69.109375 
Q 55.8125 64.015625 55.8125 55.328125 
Q 55.8125 49.265625 52.34375 45.09375 
Q 48.875 40.921875 42.484375 39.3125 
Q 49.5625 37.796875 53.53125 33 
Q 57.515625 28.21875 57.515625 21.1875 
Q 57.515625 9.96875 48.84375 4.265625 
Q 40.1875 -1.421875 28.5625 -1.421875 
Q 22.609375 -1.421875 15.671875 0.1875 
Q 8.734375 1.8125 6.59375 3.171875 
L 6.59375 13.328125 
Q 14.0625 8.984375 18.1875 7.9375 
Q 22.3125 6.890625 28.375 6.890625 
Q 37.546875 6.890625 42.625 10.40625 
Q 47.703125 13.921875 47.703125 21.1875 
Q 47.703125 27.640625 43.1875 31.265625 
Q 38.671875 34.90625 29.15625 34.90625 
L 19.1875 34.90625 
L 19.1875 43.015625 
L 29.546875 43.015625 
Q 38.28125 43.015625 42.140625 45.921875 
Q 46 48.828125 46 54.296875 
Q 46 59.90625 42.015625 62.90625 
Q 38.03125 65.921875 28.375 65.921875 
Q 21.828125 65.921875 19.578125 65.328125 
Q 17.328125 64.75 7.328125 60.984375 
L 7.328125 70.609375 
Q 12.84375 72.5625 18.59375 73.390625 
Q 24.359375 74.21875 28.5625 74.21875 
z
" id="DejaVuSans-1047"/>
     <path d="M 56.296875 54.6875 
L 56.296875 0 
L 47.265625 0 
L 47.265625 47.515625 
L 18.109375 47.515625 
L 18.109375 0 
L 9.078125 0 
L 9.078125 54.6875 
z
" id="DejaVuSans-1087"/>
     <path d="M 9.8125 0 
L 9.8125 72.90625 
L 55.171875 72.90625 
L 55.171875 64.59375 
L 19.671875 64.59375 
L 19.671875 0 
z
" id="DejaVuSans-1043"/>
     <path d="M 14.796875 27.296875 
Q 14.796875 15.828125 18.328125 10.96875 
Q 21.875 6.109375 27.875 6.109375 
Q 32.671875 6.109375 38.234375 14.3125 
L 38.234375 40.28125 
Q 32.671875 48.484375 27.875 48.484375 
Q 21.875 48.484375 18.328125 43.625 
Q 14.796875 38.765625 14.796875 27.296875 
z
M 38.234375 -20.796875 
L 38.234375 6.984375 
Q 35.453125 2.390625 32.25 0.484375 
Q 29.046875 -1.421875 25 -1.421875 
Q 16.84375 -1.421875 11.15625 6.125 
Q 5.46875 13.671875 5.46875 27.09375 
Q 5.46875 40.53125 11.15625 48.265625 
Q 16.84375 56 25 56 
Q 29.046875 56 32.25 54.140625 
Q 35.453125 52.296875 38.234375 47.703125 
L 38.234375 72.90625 
L 47.265625 72.90625 
L 47.265625 47.703125 
Q 50.046875 52.296875 53.25 54.140625 
Q 56.453125 56 60.5 56 
Q 68.65625 56 74.34375 48.265625 
Q 80.03125 40.53125 80.03125 27.09375 
Q 80.03125 13.671875 74.34375 6.125 
Q 68.65625 -1.421875 60.5 -1.421875 
Q 56.453125 -1.421875 53.25 0.484375 
Q 50.046875 2.390625 47.265625 6.984375 
L 47.265625 -20.796875 
z
M 70.703125 27.296875 
Q 70.703125 38.765625 67.15625 43.625 
Q 63.625 48.484375 57.625 48.484375 
Q 52.828125 48.484375 47.265625 40.28125 
L 47.265625 14.3125 
Q 52.828125 6.109375 57.625 6.109375 
Q 63.625 6.109375 67.15625 10.96875 
Q 70.703125 15.828125 70.703125 27.296875 
z
" id="DejaVuSans-1092"/>
    </defs>
    <g transform="translate(457.038304 18.530625)scale(0.12 -0.12)">
     <use xlink:href="#DejaVuSans-1057"/>
     <use x="69.824219" xlink:href="#DejaVuSans-1072"/>
     <use x="131.103516" xlink:href="#DejaVuSans-1093"/>
     <use x="190.283203" xlink:href="#DejaVuSans-1072"/>
     <use x="251.5625" xlink:href="#DejaVuSans-1083"/>
     <use x="315.478516" xlink:href="#DejaVuSans-1080"/>
     <use x="380.46875" xlink:href="#DejaVuSans-1085"/>
     <use x="445.849609" xlink:href="#DejaVuSans-1089"/>
     <use x="500.830078" xlink:href="#DejaVuSans-1082"/>
     <use x="561.230469" xlink:href="#DejaVuSans-1072"/>
     <use x="622.509766" xlink:href="#DejaVuSans-1103"/>
     <use x="682.666016" xlink:href="#DejaVuSans-32"/>
     <use x="714.453125" xlink:href="#DejaVuSans-1078"/>
     <use x="804.541016" xlink:href="#DejaVuSans-1077"/>
     <use x="866.064453" xlink:href="#DejaVuSans-1083"/>
     <use x="929.980469" xlink:href="#DejaVuSans-1077"/>
     <use x="991.503906" xlink:href="#DejaVuSans-1079"/>
     <use x="1044.677734" xlink:href="#DejaVuSans-1085"/>
     <use x="1110.058594" xlink:href="#DejaVuSans-1072"/>
     <use x="1171.337891" xlink:href="#DejaVuSans-1103"/>
     <use x="1231.494141" xlink:href="#DejaVuSans-32"/>
     <use x="1263.28125" xlink:href="#DejaVuSans-1076"/>
     <use x="1332.421875" xlink:href="#DejaVuSans-1086"/>
     <use x="1393.603516" xlink:href="#DejaVuSans-1088"/>
     <use x="1457.080078" xlink:href="#DejaVuSans-1086"/>
     <use x="1518.261719" xlink:href="#DejaVuSans-1075"/>
     <use x="1570.800781" xlink:href="#DejaVuSans-1072"/>
     <use x="1632.080078" xlink:href="#DejaVuSans-46"/>
     <use x="1663.867188" xlink:href="#DejaVuSans-32"/>
     <use x="1695.654297" xlink:href="#DejaVuSans-1047"/>
     <use x="1759.765625" xlink:href="#DejaVuSans-1072"/>
     <use x="1821.044922" xlink:href="#DejaVuSans-1087"/>
     <use x="1886.425781" xlink:href="#DejaVuSans-1072"/>
     <use x="1947.705078" xlink:href="#DejaVuSans-1076"/>
     <use x="2016.845703" xlink:href="#DejaVuSans-1085"/>
     <use x="2082.226562" xlink:href="#DejaVuSans-1072"/>
     <use x="2143.505859" xlink:href="#DejaVuSans-1103"/>
     <use x="2203.662109" xlink:href="#DejaVuSans-32"/>
     <use x="2235.449219" xlink:href="#DejaVuSans-1083"/>
     <use x="2299.365234" xlink:href="#DejaVuSans-1080"/>
     <use x="2364.355469" xlink:href="#DejaVuSans-1085"/>
     <use x="2429.736328" xlink:href="#DejaVuSans-1080"/>
     <use x="2494.726562" xlink:href="#DejaVuSans-1103"/>
     <use x="2554.882812" xlink:href="#DejaVuSans-46"/>
     <use x="2586.669922" xlink:href="#DejaVuSans-32"/>
     <use x="2618.457031" xlink:href="#DejaVuSans-1043"/>
     <use x="2679.443359" xlink:href="#DejaVuSans-1088"/>
     <use x="2742.919922" xlink:href="#DejaVuSans-1072"/>
     <use x="2804.199219" xlink:href="#DejaVuSans-1092"/>
     <use x="2889.697266" xlink:href="#DejaVuSans-1080"/>
     <use x="2954.6875" xlink:href="#DejaVuSans-1082"/>
     <use x="3015.087891" xlink:href="#DejaVuSans-32"/>
     <use x="3046.875" xlink:href="#DejaVuSans-1076"/>
     <use x="3116.015625" xlink:href="#DejaVuSans-1074"/>
     <use x="3174.951172" xlink:href="#DejaVuSans-1080"/>
     <use x="3239.941406" xlink:href="#DejaVuSans-1078"/>
     <use x="3330.029297" xlink:href="#DejaVuSans-1077"/>
     <use x="3391.552734" xlink:href="#DejaVuSans-1085"/>
     <use x="3456.933594" xlink:href="#DejaVuSans-1080"/>
     <use x="3521.923828" xlink:href="#DejaVuSans-1103"/>
     <use x="3582.080078" xlink:href="#DejaVuSans-32"/>
     <use x="3613.867188" xlink:href="#DejaVuSans-1087"/>
     <use x="3679.248047" xlink:href="#DejaVuSans-1086"/>
     <use x="3740.429688" xlink:href="#DejaVuSans-1077"/>
     <use x="3801.953125" xlink:href="#DejaVuSans-1079"/>
     <use x="3855.126953" xlink:href="#DejaVuSans-1076"/>
     <use x="3924.267578" xlink:href="#DejaVuSans-1086"/>
     <use x="3985.449219" xlink:href="#DejaVuSans-1074"/>
     <use x="4044.384766" xlink:href="#DejaVuSans-32"/>
     <use x="4076.171875" xlink:href="#DejaVuSans-1085"/>
     <use x="4141.552734" xlink:href="#DejaVuSans-1072"/>
     <use x="4202.832031" xlink:href="#DejaVuSans-32"/>
     <use x="4234.619141" xlink:href="#DejaVuSans-50"/>
     <use x="4298.242188" xlink:href="#DejaVuSans-48"/>
     <use x="4361.865234" xlink:href="#DejaVuSans-50"/>
     <use x="4425.488281" xlink:href="#DejaVuSans-50"/>
     <use x="4489.111328" xlink:href="#DejaVuSans-32"/>
    </g>
    <!-- Sakhalin railway, West coast line. Train diagram for 2022. Local time  -->
    <defs>
     <path d="M 4.203125 54.6875 
L 13.1875 54.6875 
L 24.421875 12.015625 
L 35.59375 54.6875 
L 46.1875 54.6875 
L 57.421875 12.015625 
L 68.609375 54.6875 
L 77.59375 54.6875 
L 63.28125 0 
L 52.6875 0 
L 40.921875 44.828125 
L 29.109375 0 
L 18.5 0 
z
" id="DejaVuSans-119"/>
     <path d="M 48.78125 52.59375 
L 48.78125 44.1875 
Q 44.96875 46.296875 41.140625 47.34375 
Q 37.3125 48.390625 33.40625 48.390625 
Q 24.65625 48.390625 19.8125 42.84375 
Q 14.984375 37.3125 14.984375 27.296875 
Q 14.984375 17.28125 19.8125 11.734375 
Q 24.65625 6.203125 33.40625 6.203125 
Q 37.3125 6.203125 41.140625 7.25 
Q 44.96875 8.296875 48.78125 10.40625 
L 48.78125 2.09375 
Q 45.015625 0.34375 40.984375 -0.53125 
Q 36.96875 -1.421875 32.421875 -1.421875 
Q 20.0625 -1.421875 12.78125 6.34375 
Q 5.515625 14.109375 5.515625 27.296875 
Q 5.515625 40.671875 12.859375 48.328125 
Q 20.21875 56 33.015625 56 
Q 37.15625 56 41.109375 55.140625 
Q 45.0625 54.296875 48.78125 52.59375 
z
" id="DejaVuSans-99"/>
     <path d="M 45.40625 27.984375 
Q 45.40625 37.75 41.375 43.109375 
Q 37.359375 48.484375 30.078125 48.484375 
Q 22.859375 48.484375 18.828125 43.109375 
Q 14.796875 37.75 14.796875 27.984375 
Q 14.796875 18.265625 18.828125 12.890625 
Q 22.859375 7.515625 30.078125 7.515625 
Q 37.359375 7.515625 41.375 12.890625 
Q 45.40625 18.265625 45.40625 27.984375 
z
M 54.390625 6.78125 
Q 54.390625 -7.171875 48.1875 -13.984375 
Q 42 -20.796875 29.203125 -20.796875 
Q 24.46875 -20.796875 20.265625 -20.09375 
Q 16.0625 -19.390625 12.109375 -17.921875 
L 12.109375 -9.1875 
Q 16.0625 -11.328125 19.921875 -12.34375 
Q 23.78125 -13.375 27.78125 -13.375 
Q 36.625 -13.375 41.015625 -8.765625 
Q 45.40625 -4.15625 45.40625 5.171875 
L 45.40625 9.625 
Q 42.625 4.78125 38.28125 2.390625 
Q 33.9375 0 27.875 0 
Q 17.828125 0 11.671875 7.65625 
Q 5.515625 15.328125 5.515625 27.984375 
Q 5.515625 40.671875 11.671875 48.328125 
Q 17.828125 56 27.875 56 
Q 33.9375 56 38.28125 53.609375 
Q 42.625 51.21875 45.40625 46.390625 
L 45.40625 54.6875 
L 54.390625 54.6875 
z
" id="DejaVuSans-103"/>
     <path d="M 37.109375 75.984375 
L 37.109375 68.5 
L 28.515625 68.5 
Q 23.6875 68.5 21.796875 66.546875 
Q 19.921875 64.59375 19.921875 59.515625 
L 19.921875 54.6875 
L 34.71875 54.6875 
L 34.71875 47.703125 
L 19.921875 47.703125 
L 19.921875 0 
L 10.890625 0 
L 10.890625 47.703125 
L 2.296875 47.703125 
L 2.296875 54.6875 
L 10.890625 54.6875 
L 10.890625 58.5 
Q 10.890625 67.625 15.140625 71.796875 
Q 19.390625 75.984375 28.609375 75.984375 
z
" id="DejaVuSans-102"/>
     <path d="M 9.8125 72.90625 
L 19.671875 72.90625 
L 19.671875 8.296875 
L 55.171875 8.296875 
L 55.171875 0 
L 9.8125 0 
z
" id="DejaVuSans-76"/>
    </defs>
    <g transform="translate(519.412054 31.968)scale(0.12 -0.12)">
     <use xlink:href="#DejaVuSans-83"/>
     <use x="63.476562" xlink:href="#DejaVuSans-97"/>
     <use x="124.755859" xlink:href="#DejaVuSans-107"/>
     <use x="182.666016" xlink:href="#DejaVuSans-104"/>
     <use x="246.044922" xlink:href="#DejaVuSans-97"/>
     <use x="307.324219" xlink:href="#DejaVuSans-108"/>
     <use x="335.107422" xlink:href="#DejaVuSans-105"/>
     <use x="362.890625" xlink:href="#DejaVuSans-110"/>
     <use x="426.269531" xlink:href="#DejaVuSans-32"/>
     <use x="458.056641" xlink:href="#DejaVuSans-114"/>
     <use x="499.169922" xlink:href="#DejaVuSans-97"/>
     <use x="560.449219" xlink:href="#DejaVuSans-105"/>
     <use x="588.232422" xlink:href="#DejaVuSans-108"/>
     <use x="616.015625" xlink:href="#DejaVuSans-119"/>
     <use x="697.802734" xlink:href="#DejaVuSans-97"/>
     <use x="759.082031" xlink:href="#DejaVuSans-121"/>
     <use x="818.261719" xlink:href="#DejaVuSans-44"/>
     <use x="850.048828" xlink:href="#DejaVuSans-32"/>
     <use x="881.835938" xlink:href="#DejaVuSans-87"/>
     <use x="980.634766" xlink:href="#DejaVuSans-101"/>
     <use x="1042.158203" xlink:href="#DejaVuSans-115"/>
     <use x="1094.257812" xlink:href="#DejaVuSans-116"/>
     <use x="1133.466797" xlink:href="#DejaVuSans-32"/>
     <use x="1165.253906" xlink:href="#DejaVuSans-99"/>
     <use x="1220.234375" xlink:href="#DejaVuSans-111"/>
     <use x="1281.416016" xlink:href="#DejaVuSans-97"/>
     <use x="1342.695312" xlink:href="#DejaVuSans-115"/>
     <use x="1394.794922" xlink:href="#DejaVuSans-116"/>
     <use x="1434.003906" xlink:href="#DejaVuSans-32"/>
     <use x="1465.791016" xlink:href="#DejaVuSans-108"/>
     <use x="1493.574219" xlink:href="#DejaVuSans-105"/>
     <use x="1521.357422" xlink:href="#DejaVuSans-110"/>
     <use x="1584.736328" xlink:href="#DejaVuSans-101"/>
     <use x="1646.259766" xlink:href="#DejaVuSans-46"/>
     <use x="1678.046875" xlink:href="#DejaVuSans-32"/>
     <use x="1709.833984" xlink:href="#DejaVuSans-84"/>
     <use x="1770.699219" xlink:href="#DejaVuSans-114"/>
     <use x="1811.8125" xlink:href="#DejaVuSans-97"/>
     <use x="1873.091797" xlink:href="#DejaVuSans-105"/>
     <use x="1900.875" xlink:href="#DejaVuSans-110"/>
     <use x="1964.253906" xlink:href="#DejaVuSans-32"/>
     <use x="1996.041016" xlink:href="#DejaVuSans-100"/>
     <use x="2059.517578" xlink:href="#DejaVuSans-105"/>
     <use x="2087.300781" xlink:href="#DejaVuSans-97"/>
     <use x="2148.580078" xlink:href="#DejaVuSans-103"/>
     <use x="2212.056641" xlink:href="#DejaVuSans-114"/>
     <use x="2253.169922" xlink:href="#DejaVuSans-97"/>
     <use x="2314.449219" xlink:href="#DejaVuSans-109"/>
     <use x="2411.861328" xlink:href="#DejaVuSans-32"/>
     <use x="2443.648438" xlink:href="#DejaVuSans-102"/>
     <use x="2478.853516" xlink:href="#DejaVuSans-111"/>
     <use x="2540.035156" xlink:href="#DejaVuSans-114"/>
     <use x="2581.148438" xlink:href="#DejaVuSans-32"/>
     <use x="2612.935547" xlink:href="#DejaVuSans-50"/>
     <use x="2676.558594" xlink:href="#DejaVuSans-48"/>
     <use x="2740.181641" xlink:href="#DejaVuSans-50"/>
     <use x="2803.804688" xlink:href="#DejaVuSans-50"/>
     <use x="2867.427734" xlink:href="#DejaVuSans-46"/>
     <use x="2899.214844" xlink:href="#DejaVuSans-32"/>
     <use x="2931.001953" xlink:href="#DejaVuSans-76"/>
     <use x="2986.699219" xlink:href="#DejaVuSans-111"/>
     <use x="3047.880859" xlink:href="#DejaVuSans-99"/>
     <use x="3102.861328" xlink:href="#DejaVuSans-97"/>
     <use x="3164.140625" xlink:href="#DejaVuSans-108"/>
     <use x="3191.923828" xlink:href="#DejaVuSans-32"/>
     <use x="3223.710938" xlink:href="#DejaVuSans-116"/>
     <use x="3262.919922" xlink:href="#DejaVuSans-105"/>
     <use x="3290.703125" xlink:href="#DejaVuSans-109"/>
     <use x="3388.115234" xlink:href="#DejaVuSans-101"/>
     <use x="3449.638672" xlink:href="#DejaVuSans-32"/>
    </g>
   </g>
  </g>
 </g>
 <defs>
  <clipPath id="p94345298d3">
   <rect height="577.112464" width="1149.185358" x="153.7" y="37.968"/>
  </clipPath>
 </defs>
</svg>
