<?xml version="1.0" encoding="utf-8" standalone="no"?>
<!DOCTYPE svg PUBLIC "-//W3C//DTD SVG 1.1//EN"
  "http://www.w3.org/Graphics/SVG/1.1/DTD/svg11.dtd">
<!-- Created with matplotlib (http://matplotlib.org/) -->
<svg height="648pt" version="1.1" viewBox="0 0 1296 648" width="1296pt" xmlns="http://www.w3.org/2000/svg" xmlns:xlink="http://www.w3.org/1999/xlink">
 <defs>
  <style type="text/css">
*{stroke-linecap:butt;stroke-linejoin:round;}
  </style>
 </defs>
 <g id="figure_1">
  <g id="patch_1">
   <path d="M 0 648 
L 1296 648 
L 1296 0 
L 0 0 
z
" style="fill:#ffffff;"/>
  </g>
  <g id="axes_1">
   <g id="patch_2">
    <path d="M 162 518.4 
L 1166.4 518.4 
L 1166.4 77.76 
L 162 77.76 
z
" style="fill:#ffffff;"/>
   </g>
   <g id="matplotlib.axis_1">
    <g id="xtick_1">
     <g id="line2d_1">
      <path clip-path="url(#pa01d4c155b)" d="M 182.497959 518.4 
L 182.497959 77.76 
" style="fill:none;stroke:#b0b0b0;stroke-linecap:square;stroke-width:0.8;"/>
     </g>
     <g id="line2d_2">
      <defs>
       <path d="M 0 0 
L 0 3.5 
" id="mcfa7a3de99" style="stroke:#000000;stroke-width:0.8;"/>
      </defs>
      <g>
       <use style="stroke:#000000;stroke-width:0.8;" x="182.497959" xlink:href="#mcfa7a3de99" y="518.4"/>
      </g>
     </g>
     <g id="text_1">
      <!-- 01 07:00 -->
      <defs>
       <path d="M 31.78125 66.40625 
Q 24.171875 66.40625 20.328125 58.90625 
Q 16.5 51.421875 16.5 36.375 
Q 16.5 21.390625 20.328125 13.890625 
Q 24.171875 6.390625 31.78125 6.390625 
Q 39.453125 6.390625 43.28125 13.890625 
Q 47.125 21.390625 47.125 36.375 
Q 47.125 51.421875 43.28125 58.90625 
Q 39.453125 66.40625 31.78125 66.40625 
z
M 31.78125 74.21875 
Q 44.046875 74.21875 50.515625 64.515625 
Q 56.984375 54.828125 56.984375 36.375 
Q 56.984375 17.96875 50.515625 8.265625 
Q 44.046875 -1.421875 31.78125 -1.421875 
Q 19.53125 -1.421875 13.0625 8.265625 
Q 6.59375 17.96875 6.59375 36.375 
Q 6.59375 54.828125 13.0625 64.515625 
Q 19.53125 74.21875 31.78125 74.21875 
z
" id="DejaVuSans-30"/>
       <path d="M 12.40625 8.296875 
L 28.515625 8.296875 
L 28.515625 63.921875 
L 10.984375 60.40625 
L 10.984375 69.390625 
L 28.421875 72.90625 
L 38.28125 72.90625 
L 38.28125 8.296875 
L 54.390625 8.296875 
L 54.390625 0 
L 12.40625 0 
z
" id="DejaVuSans-31"/>
       <path id="DejaVuSans-20"/>
       <path d="M 8.203125 72.90625 
L 55.078125 72.90625 
L 55.078125 68.703125 
L 28.609375 0 
L 18.3125 0 
L 43.21875 64.59375 
L 8.203125 64.59375 
z
" id="DejaVuSans-37"/>
       <path d="M 11.71875 12.40625 
L 22.015625 12.40625 
L 22.015625 0 
L 11.71875 0 
z
M 11.71875 51.703125 
L 22.015625 51.703125 
L 22.015625 39.3125 
L 11.71875 39.3125 
z
" id="DejaVuSans-3a"/>
      </defs>
      <g transform="translate(142.727836 554.341377)rotate(-30)scale(0.1 -0.1)">
       <use xlink:href="#DejaVuSans-30"/>
       <use x="63.623047" xlink:href="#DejaVuSans-31"/>
       <use x="127.246094" xlink:href="#DejaVuSans-20"/>
       <use x="159.033203" xlink:href="#DejaVuSans-30"/>
       <use x="222.65625" xlink:href="#DejaVuSans-37"/>
       <use x="286.279297" xlink:href="#DejaVuSans-3a"/>
       <use x="319.970703" xlink:href="#DejaVuSans-30"/>
       <use x="383.59375" xlink:href="#DejaVuSans-30"/>
      </g>
     </g>
    </g>
    <g id="xtick_2">
     <g id="line2d_3">
      <path clip-path="url(#pa01d4c155b)" d="M 243.991837 518.4 
L 243.991837 77.76 
" style="fill:none;stroke:#b0b0b0;stroke-linecap:square;stroke-width:0.8;"/>
     </g>
     <g id="line2d_4">
      <g>
       <use style="stroke:#000000;stroke-width:0.8;" x="243.991837" xlink:href="#mcfa7a3de99" y="518.4"/>
      </g>
     </g>
     <g id="text_2">
      <!-- 01 08:00 -->
      <defs>
       <path d="M 31.78125 34.625 
Q 24.75 34.625 20.71875 30.859375 
Q 16.703125 27.09375 16.703125 20.515625 
Q 16.703125 13.921875 20.71875 10.15625 
Q 24.75 6.390625 31.78125 6.390625 
Q 38.8125 6.390625 42.859375 10.171875 
Q 46.921875 13.96875 46.921875 20.515625 
Q 46.921875 27.09375 42.890625 30.859375 
Q 38.875 34.625 31.78125 34.625 
z
M 21.921875 38.8125 
Q 15.578125 40.375 12.03125 44.71875 
Q 8.5 49.078125 8.5 55.328125 
Q 8.5 64.0625 14.71875 69.140625 
Q 20.953125 74.21875 31.78125 74.21875 
Q 42.671875 74.21875 48.875 69.140625 
Q 55.078125 64.0625 55.078125 55.328125 
Q 55.078125 49.078125 51.53125 44.71875 
Q 48 40.375 41.703125 38.8125 
Q 48.828125 37.15625 52.796875 32.3125 
Q 56.78125 27.484375 56.78125 20.515625 
Q 56.78125 9.90625 50.3125 4.234375 
Q 43.84375 -1.421875 31.78125 -1.421875 
Q 19.734375 -1.421875 13.25 4.234375 
Q 6.78125 9.90625 6.78125 20.515625 
Q 6.78125 27.484375 10.78125 32.3125 
Q 14.796875 37.15625 21.921875 38.8125 
z
M 18.3125 54.390625 
Q 18.3125 48.734375 21.84375 45.5625 
Q 25.390625 42.390625 31.78125 42.390625 
Q 38.140625 42.390625 41.71875 45.5625 
Q 45.3125 48.734375 45.3125 54.390625 
Q 45.3125 60.0625 41.71875 63.234375 
Q 38.140625 66.40625 31.78125 66.40625 
Q 25.390625 66.40625 21.84375 63.234375 
Q 18.3125 60.0625 18.3125 54.390625 
z
" id="DejaVuSans-38"/>
      </defs>
      <g transform="translate(204.221713 554.341377)rotate(-30)scale(0.1 -0.1)">
       <use xlink:href="#DejaVuSans-30"/>
       <use x="63.623047" xlink:href="#DejaVuSans-31"/>
       <use x="127.246094" xlink:href="#DejaVuSans-20"/>
       <use x="159.033203" xlink:href="#DejaVuSans-30"/>
       <use x="222.65625" xlink:href="#DejaVuSans-38"/>
       <use x="286.279297" xlink:href="#DejaVuSans-3a"/>
       <use x="319.970703" xlink:href="#DejaVuSans-30"/>
       <use x="383.59375" xlink:href="#DejaVuSans-30"/>
      </g>
     </g>
    </g>
    <g id="xtick_3">
     <g id="line2d_5">
      <path clip-path="url(#pa01d4c155b)" d="M 305.485714 518.4 
L 305.485714 77.76 
" style="fill:none;stroke:#b0b0b0;stroke-linecap:square;stroke-width:0.8;"/>
     </g>
     <g id="line2d_6">
      <g>
       <use style="stroke:#000000;stroke-width:0.8;" x="305.485714" xlink:href="#mcfa7a3de99" y="518.4"/>
      </g>
     </g>
     <g id="text_3">
      <!-- 01 09:00 -->
      <defs>
       <path d="M 10.984375 1.515625 
L 10.984375 10.5 
Q 14.703125 8.734375 18.5 7.8125 
Q 22.3125 6.890625 25.984375 6.890625 
Q 35.75 6.890625 40.890625 13.453125 
Q 46.046875 20.015625 46.78125 33.40625 
Q 43.953125 29.203125 39.59375 26.953125 
Q 35.25 24.703125 29.984375 24.703125 
Q 19.046875 24.703125 12.671875 31.3125 
Q 6.296875 37.9375 6.296875 49.421875 
Q 6.296875 60.640625 12.9375 67.421875 
Q 19.578125 74.21875 30.609375 74.21875 
Q 43.265625 74.21875 49.921875 64.515625 
Q 56.59375 54.828125 56.59375 36.375 
Q 56.59375 19.140625 48.40625 8.859375 
Q 40.234375 -1.421875 26.421875 -1.421875 
Q 22.703125 -1.421875 18.890625 -0.6875 
Q 15.09375 0.046875 10.984375 1.515625 
z
M 30.609375 32.421875 
Q 37.25 32.421875 41.125 36.953125 
Q 45.015625 41.5 45.015625 49.421875 
Q 45.015625 57.28125 41.125 61.84375 
Q 37.25 66.40625 30.609375 66.40625 
Q 23.96875 66.40625 20.09375 61.84375 
Q 16.21875 57.28125 16.21875 49.421875 
Q 16.21875 41.5 20.09375 36.953125 
Q 23.96875 32.421875 30.609375 32.421875 
z
" id="DejaVuSans-39"/>
      </defs>
      <g transform="translate(265.715591 554.341377)rotate(-30)scale(0.1 -0.1)">
       <use xlink:href="#DejaVuSans-30"/>
       <use x="63.623047" xlink:href="#DejaVuSans-31"/>
       <use x="127.246094" xlink:href="#DejaVuSans-20"/>
       <use x="159.033203" xlink:href="#DejaVuSans-30"/>
       <use x="222.65625" xlink:href="#DejaVuSans-39"/>
       <use x="286.279297" xlink:href="#DejaVuSans-3a"/>
       <use x="319.970703" xlink:href="#DejaVuSans-30"/>
       <use x="383.59375" xlink:href="#DejaVuSans-30"/>
      </g>
     </g>
    </g>
    <g id="xtick_4">
     <g id="line2d_7">
      <path clip-path="url(#pa01d4c155b)" d="M 366.979592 518.4 
L 366.979592 77.76 
" style="fill:none;stroke:#b0b0b0;stroke-linecap:square;stroke-width:0.8;"/>
     </g>
     <g id="line2d_8">
      <g>
       <use style="stroke:#000000;stroke-width:0.8;" x="366.979592" xlink:href="#mcfa7a3de99" y="518.4"/>
      </g>
     </g>
     <g id="text_4">
      <!-- 01 10:00 -->
      <g transform="translate(327.209468 554.341377)rotate(-30)scale(0.1 -0.1)">
       <use xlink:href="#DejaVuSans-30"/>
       <use x="63.623047" xlink:href="#DejaVuSans-31"/>
       <use x="127.246094" xlink:href="#DejaVuSans-20"/>
       <use x="159.033203" xlink:href="#DejaVuSans-31"/>
       <use x="222.65625" xlink:href="#DejaVuSans-30"/>
       <use x="286.279297" xlink:href="#DejaVuSans-3a"/>
       <use x="319.970703" xlink:href="#DejaVuSans-30"/>
       <use x="383.59375" xlink:href="#DejaVuSans-30"/>
      </g>
     </g>
    </g>
    <g id="xtick_5">
     <g id="line2d_9">
      <path clip-path="url(#pa01d4c155b)" d="M 428.473469 518.4 
L 428.473469 77.76 
" style="fill:none;stroke:#b0b0b0;stroke-linecap:square;stroke-width:0.8;"/>
     </g>
     <g id="line2d_10">
      <g>
       <use style="stroke:#000000;stroke-width:0.8;" x="428.473469" xlink:href="#mcfa7a3de99" y="518.4"/>
      </g>
     </g>
     <g id="text_5">
      <!-- 01 11:00 -->
      <g transform="translate(388.703346 554.341377)rotate(-30)scale(0.1 -0.1)">
       <use xlink:href="#DejaVuSans-30"/>
       <use x="63.623047" xlink:href="#DejaVuSans-31"/>
       <use x="127.246094" xlink:href="#DejaVuSans-20"/>
       <use x="159.033203" xlink:href="#DejaVuSans-31"/>
       <use x="222.65625" xlink:href="#DejaVuSans-31"/>
       <use x="286.279297" xlink:href="#DejaVuSans-3a"/>
       <use x="319.970703" xlink:href="#DejaVuSans-30"/>
       <use x="383.59375" xlink:href="#DejaVuSans-30"/>
      </g>
     </g>
    </g>
    <g id="xtick_6">
     <g id="line2d_11">
      <path clip-path="url(#pa01d4c155b)" d="M 489.967347 518.4 
L 489.967347 77.76 
" style="fill:none;stroke:#b0b0b0;stroke-linecap:square;stroke-width:0.8;"/>
     </g>
     <g id="line2d_12">
      <g>
       <use style="stroke:#000000;stroke-width:0.8;" x="489.967347" xlink:href="#mcfa7a3de99" y="518.4"/>
      </g>
     </g>
     <g id="text_6">
      <!-- 01 12:00 -->
      <defs>
       <path d="M 19.1875 8.296875 
L 53.609375 8.296875 
L 53.609375 0 
L 7.328125 0 
L 7.328125 8.296875 
Q 12.9375 14.109375 22.625 23.890625 
Q 32.328125 33.6875 34.8125 36.53125 
Q 39.546875 41.84375 41.421875 45.53125 
Q 43.3125 49.21875 43.3125 52.78125 
Q 43.3125 58.59375 39.234375 62.25 
Q 35.15625 65.921875 28.609375 65.921875 
Q 23.96875 65.921875 18.8125 64.3125 
Q 13.671875 62.703125 7.8125 59.421875 
L 7.8125 69.390625 
Q 13.765625 71.78125 18.9375 73 
Q 24.125 74.21875 28.421875 74.21875 
Q 39.75 74.21875 46.484375 68.546875 
Q 53.21875 62.890625 53.21875 53.421875 
Q 53.21875 48.921875 51.53125 44.890625 
Q 49.859375 40.875 45.40625 35.40625 
Q 44.1875 33.984375 37.640625 27.21875 
Q 31.109375 20.453125 19.1875 8.296875 
z
" id="DejaVuSans-32"/>
      </defs>
      <g transform="translate(450.197223 554.341377)rotate(-30)scale(0.1 -0.1)">
       <use xlink:href="#DejaVuSans-30"/>
       <use x="63.623047" xlink:href="#DejaVuSans-31"/>
       <use x="127.246094" xlink:href="#DejaVuSans-20"/>
       <use x="159.033203" xlink:href="#DejaVuSans-31"/>
       <use x="222.65625" xlink:href="#DejaVuSans-32"/>
       <use x="286.279297" xlink:href="#DejaVuSans-3a"/>
       <use x="319.970703" xlink:href="#DejaVuSans-30"/>
       <use x="383.59375" xlink:href="#DejaVuSans-30"/>
      </g>
     </g>
    </g>
    <g id="xtick_7">
     <g id="line2d_13">
      <path clip-path="url(#pa01d4c155b)" d="M 551.461224 518.4 
L 551.461224 77.76 
" style="fill:none;stroke:#b0b0b0;stroke-linecap:square;stroke-width:0.8;"/>
     </g>
     <g id="line2d_14">
      <g>
       <use style="stroke:#000000;stroke-width:0.8;" x="551.461224" xlink:href="#mcfa7a3de99" y="518.4"/>
      </g>
     </g>
     <g id="text_7">
      <!-- 01 13:00 -->
      <defs>
       <path d="M 40.578125 39.3125 
Q 47.65625 37.796875 51.625 33 
Q 55.609375 28.21875 55.609375 21.1875 
Q 55.609375 10.40625 48.1875 4.484375 
Q 40.765625 -1.421875 27.09375 -1.421875 
Q 22.515625 -1.421875 17.65625 -0.515625 
Q 12.796875 0.390625 7.625 2.203125 
L 7.625 11.71875 
Q 11.71875 9.328125 16.59375 8.109375 
Q 21.484375 6.890625 26.8125 6.890625 
Q 36.078125 6.890625 40.9375 10.546875 
Q 45.796875 14.203125 45.796875 21.1875 
Q 45.796875 27.640625 41.28125 31.265625 
Q 36.765625 34.90625 28.71875 34.90625 
L 20.21875 34.90625 
L 20.21875 43.015625 
L 29.109375 43.015625 
Q 36.375 43.015625 40.234375 45.921875 
Q 44.09375 48.828125 44.09375 54.296875 
Q 44.09375 59.90625 40.109375 62.90625 
Q 36.140625 65.921875 28.71875 65.921875 
Q 24.65625 65.921875 20.015625 65.03125 
Q 15.375 64.15625 9.8125 62.3125 
L 9.8125 71.09375 
Q 15.4375 72.65625 20.34375 73.4375 
Q 25.25 74.21875 29.59375 74.21875 
Q 40.828125 74.21875 47.359375 69.109375 
Q 53.90625 64.015625 53.90625 55.328125 
Q 53.90625 49.265625 50.4375 45.09375 
Q 46.96875 40.921875 40.578125 39.3125 
z
" id="DejaVuSans-33"/>
      </defs>
      <g transform="translate(511.691101 554.341377)rotate(-30)scale(0.1 -0.1)">
       <use xlink:href="#DejaVuSans-30"/>
       <use x="63.623047" xlink:href="#DejaVuSans-31"/>
       <use x="127.246094" xlink:href="#DejaVuSans-20"/>
       <use x="159.033203" xlink:href="#DejaVuSans-31"/>
       <use x="222.65625" xlink:href="#DejaVuSans-33"/>
       <use x="286.279297" xlink:href="#DejaVuSans-3a"/>
       <use x="319.970703" xlink:href="#DejaVuSans-30"/>
       <use x="383.59375" xlink:href="#DejaVuSans-30"/>
      </g>
     </g>
    </g>
    <g id="xtick_8">
     <g id="line2d_15">
      <path clip-path="url(#pa01d4c155b)" d="M 612.955102 518.4 
L 612.955102 77.76 
" style="fill:none;stroke:#b0b0b0;stroke-linecap:square;stroke-width:0.8;"/>
     </g>
     <g id="line2d_16">
      <g>
       <use style="stroke:#000000;stroke-width:0.8;" x="612.955102" xlink:href="#mcfa7a3de99" y="518.4"/>
      </g>
     </g>
     <g id="text_8">
      <!-- 01 14:00 -->
      <defs>
       <path d="M 37.796875 64.3125 
L 12.890625 25.390625 
L 37.796875 25.390625 
z
M 35.203125 72.90625 
L 47.609375 72.90625 
L 47.609375 25.390625 
L 58.015625 25.390625 
L 58.015625 17.1875 
L 47.609375 17.1875 
L 47.609375 0 
L 37.796875 0 
L 37.796875 17.1875 
L 4.890625 17.1875 
L 4.890625 26.703125 
z
" id="DejaVuSans-34"/>
      </defs>
      <g transform="translate(573.184978 554.341377)rotate(-30)scale(0.1 -0.1)">
       <use xlink:href="#DejaVuSans-30"/>
       <use x="63.623047" xlink:href="#DejaVuSans-31"/>
       <use x="127.246094" xlink:href="#DejaVuSans-20"/>
       <use x="159.033203" xlink:href="#DejaVuSans-31"/>
       <use x="222.65625" xlink:href="#DejaVuSans-34"/>
       <use x="286.279297" xlink:href="#DejaVuSans-3a"/>
       <use x="319.970703" xlink:href="#DejaVuSans-30"/>
       <use x="383.59375" xlink:href="#DejaVuSans-30"/>
      </g>
     </g>
    </g>
    <g id="xtick_9">
     <g id="line2d_17">
      <path clip-path="url(#pa01d4c155b)" d="M 674.44898 518.4 
L 674.44898 77.76 
" style="fill:none;stroke:#b0b0b0;stroke-linecap:square;stroke-width:0.8;"/>
     </g>
     <g id="line2d_18">
      <g>
       <use style="stroke:#000000;stroke-width:0.8;" x="674.44898" xlink:href="#mcfa7a3de99" y="518.4"/>
      </g>
     </g>
     <g id="text_9">
      <!-- 01 15:00 -->
      <defs>
       <path d="M 10.796875 72.90625 
L 49.515625 72.90625 
L 49.515625 64.59375 
L 19.828125 64.59375 
L 19.828125 46.734375 
Q 21.96875 47.46875 24.109375 47.828125 
Q 26.265625 48.1875 28.421875 48.1875 
Q 40.625 48.1875 47.75 41.5 
Q 54.890625 34.8125 54.890625 23.390625 
Q 54.890625 11.625 47.5625 5.09375 
Q 40.234375 -1.421875 26.90625 -1.421875 
Q 22.3125 -1.421875 17.546875 -0.640625 
Q 12.796875 0.140625 7.71875 1.703125 
L 7.71875 11.625 
Q 12.109375 9.234375 16.796875 8.0625 
Q 21.484375 6.890625 26.703125 6.890625 
Q 35.15625 6.890625 40.078125 11.328125 
Q 45.015625 15.765625 45.015625 23.390625 
Q 45.015625 31 40.078125 35.4375 
Q 35.15625 39.890625 26.703125 39.890625 
Q 22.75 39.890625 18.8125 39.015625 
Q 14.890625 38.140625 10.796875 36.28125 
z
" id="DejaVuSans-35"/>
      </defs>
      <g transform="translate(634.678856 554.341377)rotate(-30)scale(0.1 -0.1)">
       <use xlink:href="#DejaVuSans-30"/>
       <use x="63.623047" xlink:href="#DejaVuSans-31"/>
       <use x="127.246094" xlink:href="#DejaVuSans-20"/>
       <use x="159.033203" xlink:href="#DejaVuSans-31"/>
       <use x="222.65625" xlink:href="#DejaVuSans-35"/>
       <use x="286.279297" xlink:href="#DejaVuSans-3a"/>
       <use x="319.970703" xlink:href="#DejaVuSans-30"/>
       <use x="383.59375" xlink:href="#DejaVuSans-30"/>
      </g>
     </g>
    </g>
    <g id="xtick_10">
     <g id="line2d_19">
      <path clip-path="url(#pa01d4c155b)" d="M 735.942857 518.4 
L 735.942857 77.76 
" style="fill:none;stroke:#b0b0b0;stroke-linecap:square;stroke-width:0.8;"/>
     </g>
     <g id="line2d_20">
      <g>
       <use style="stroke:#000000;stroke-width:0.8;" x="735.942857" xlink:href="#mcfa7a3de99" y="518.4"/>
      </g>
     </g>
     <g id="text_10">
      <!-- 01 16:00 -->
      <defs>
       <path d="M 33.015625 40.375 
Q 26.375 40.375 22.484375 35.828125 
Q 18.609375 31.296875 18.609375 23.390625 
Q 18.609375 15.53125 22.484375 10.953125 
Q 26.375 6.390625 33.015625 6.390625 
Q 39.65625 6.390625 43.53125 10.953125 
Q 47.40625 15.53125 47.40625 23.390625 
Q 47.40625 31.296875 43.53125 35.828125 
Q 39.65625 40.375 33.015625 40.375 
z
M 52.59375 71.296875 
L 52.59375 62.3125 
Q 48.875 64.0625 45.09375 64.984375 
Q 41.3125 65.921875 37.59375 65.921875 
Q 27.828125 65.921875 22.671875 59.328125 
Q 17.53125 52.734375 16.796875 39.40625 
Q 19.671875 43.65625 24.015625 45.921875 
Q 28.375 48.1875 33.59375 48.1875 
Q 44.578125 48.1875 50.953125 41.515625 
Q 57.328125 34.859375 57.328125 23.390625 
Q 57.328125 12.15625 50.6875 5.359375 
Q 44.046875 -1.421875 33.015625 -1.421875 
Q 20.359375 -1.421875 13.671875 8.265625 
Q 6.984375 17.96875 6.984375 36.375 
Q 6.984375 53.65625 15.1875 63.9375 
Q 23.390625 74.21875 37.203125 74.21875 
Q 40.921875 74.21875 44.703125 73.484375 
Q 48.484375 72.75 52.59375 71.296875 
z
" id="DejaVuSans-36"/>
      </defs>
      <g transform="translate(696.172733 554.341377)rotate(-30)scale(0.1 -0.1)">
       <use xlink:href="#DejaVuSans-30"/>
       <use x="63.623047" xlink:href="#DejaVuSans-31"/>
       <use x="127.246094" xlink:href="#DejaVuSans-20"/>
       <use x="159.033203" xlink:href="#DejaVuSans-31"/>
       <use x="222.65625" xlink:href="#DejaVuSans-36"/>
       <use x="286.279297" xlink:href="#DejaVuSans-3a"/>
       <use x="319.970703" xlink:href="#DejaVuSans-30"/>
       <use x="383.59375" xlink:href="#DejaVuSans-30"/>
      </g>
     </g>
    </g>
    <g id="xtick_11">
     <g id="line2d_21">
      <path clip-path="url(#pa01d4c155b)" d="M 797.436735 518.4 
L 797.436735 77.76 
" style="fill:none;stroke:#b0b0b0;stroke-linecap:square;stroke-width:0.8;"/>
     </g>
     <g id="line2d_22">
      <g>
       <use style="stroke:#000000;stroke-width:0.8;" x="797.436735" xlink:href="#mcfa7a3de99" y="518.4"/>
      </g>
     </g>
     <g id="text_11">
      <!-- 01 17:00 -->
      <g transform="translate(757.666611 554.341377)rotate(-30)scale(0.1 -0.1)">
       <use xlink:href="#DejaVuSans-30"/>
       <use x="63.623047" xlink:href="#DejaVuSans-31"/>
       <use x="127.246094" xlink:href="#DejaVuSans-20"/>
       <use x="159.033203" xlink:href="#DejaVuSans-31"/>
       <use x="222.65625" xlink:href="#DejaVuSans-37"/>
       <use x="286.279297" xlink:href="#DejaVuSans-3a"/>
       <use x="319.970703" xlink:href="#DejaVuSans-30"/>
       <use x="383.59375" xlink:href="#DejaVuSans-30"/>
      </g>
     </g>
    </g>
    <g id="xtick_12">
     <g id="line2d_23">
      <path clip-path="url(#pa01d4c155b)" d="M 858.930612 518.4 
L 858.930612 77.76 
" style="fill:none;stroke:#b0b0b0;stroke-linecap:square;stroke-width:0.8;"/>
     </g>
     <g id="line2d_24">
      <g>
       <use style="stroke:#000000;stroke-width:0.8;" x="858.930612" xlink:href="#mcfa7a3de99" y="518.4"/>
      </g>
     </g>
     <g id="text_12">
      <!-- 01 18:00 -->
      <g transform="translate(819.160488 554.341377)rotate(-30)scale(0.1 -0.1)">
       <use xlink:href="#DejaVuSans-30"/>
       <use x="63.623047" xlink:href="#DejaVuSans-31"/>
       <use x="127.246094" xlink:href="#DejaVuSans-20"/>
       <use x="159.033203" xlink:href="#DejaVuSans-31"/>
       <use x="222.65625" xlink:href="#DejaVuSans-38"/>
       <use x="286.279297" xlink:href="#DejaVuSans-3a"/>
       <use x="319.970703" xlink:href="#DejaVuSans-30"/>
       <use x="383.59375" xlink:href="#DejaVuSans-30"/>
      </g>
     </g>
    </g>
    <g id="xtick_13">
     <g id="line2d_25">
      <path clip-path="url(#pa01d4c155b)" d="M 920.42449 518.4 
L 920.42449 77.76 
" style="fill:none;stroke:#b0b0b0;stroke-linecap:square;stroke-width:0.8;"/>
     </g>
     <g id="line2d_26">
      <g>
       <use style="stroke:#000000;stroke-width:0.8;" x="920.42449" xlink:href="#mcfa7a3de99" y="518.4"/>
      </g>
     </g>
     <g id="text_13">
      <!-- 01 19:00 -->
      <g transform="translate(880.654366 554.341377)rotate(-30)scale(0.1 -0.1)">
       <use xlink:href="#DejaVuSans-30"/>
       <use x="63.623047" xlink:href="#DejaVuSans-31"/>
       <use x="127.246094" xlink:href="#DejaVuSans-20"/>
       <use x="159.033203" xlink:href="#DejaVuSans-31"/>
       <use x="222.65625" xlink:href="#DejaVuSans-39"/>
       <use x="286.279297" xlink:href="#DejaVuSans-3a"/>
       <use x="319.970703" xlink:href="#DejaVuSans-30"/>
       <use x="383.59375" xlink:href="#DejaVuSans-30"/>
      </g>
     </g>
    </g>
    <g id="xtick_14">
     <g id="line2d_27">
      <path clip-path="url(#pa01d4c155b)" d="M 981.918367 518.4 
L 981.918367 77.76 
" style="fill:none;stroke:#b0b0b0;stroke-linecap:square;stroke-width:0.8;"/>
     </g>
     <g id="line2d_28">
      <g>
       <use style="stroke:#000000;stroke-width:0.8;" x="981.918367" xlink:href="#mcfa7a3de99" y="518.4"/>
      </g>
     </g>
     <g id="text_14">
      <!-- 01 20:00 -->
      <g transform="translate(942.148244 554.341377)rotate(-30)scale(0.1 -0.1)">
       <use xlink:href="#DejaVuSans-30"/>
       <use x="63.623047" xlink:href="#DejaVuSans-31"/>
       <use x="127.246094" xlink:href="#DejaVuSans-20"/>
       <use x="159.033203" xlink:href="#DejaVuSans-32"/>
       <use x="222.65625" xlink:href="#DejaVuSans-30"/>
       <use x="286.279297" xlink:href="#DejaVuSans-3a"/>
       <use x="319.970703" xlink:href="#DejaVuSans-30"/>
       <use x="383.59375" xlink:href="#DejaVuSans-30"/>
      </g>
     </g>
    </g>
    <g id="xtick_15">
     <g id="line2d_29">
      <path clip-path="url(#pa01d4c155b)" d="M 1043.412245 518.4 
L 1043.412245 77.76 
" style="fill:none;stroke:#b0b0b0;stroke-linecap:square;stroke-width:0.8;"/>
     </g>
     <g id="line2d_30">
      <g>
       <use style="stroke:#000000;stroke-width:0.8;" x="1043.412245" xlink:href="#mcfa7a3de99" y="518.4"/>
      </g>
     </g>
     <g id="text_15">
      <!-- 01 21:00 -->
      <g transform="translate(1003.642121 554.341377)rotate(-30)scale(0.1 -0.1)">
       <use xlink:href="#DejaVuSans-30"/>
       <use x="63.623047" xlink:href="#DejaVuSans-31"/>
       <use x="127.246094" xlink:href="#DejaVuSans-20"/>
       <use x="159.033203" xlink:href="#DejaVuSans-32"/>
       <use x="222.65625" xlink:href="#DejaVuSans-31"/>
       <use x="286.279297" xlink:href="#DejaVuSans-3a"/>
       <use x="319.970703" xlink:href="#DejaVuSans-30"/>
       <use x="383.59375" xlink:href="#DejaVuSans-30"/>
      </g>
     </g>
    </g>
    <g id="xtick_16">
     <g id="line2d_31">
      <path clip-path="url(#pa01d4c155b)" d="M 1104.906122 518.4 
L 1104.906122 77.76 
" style="fill:none;stroke:#b0b0b0;stroke-linecap:square;stroke-width:0.8;"/>
     </g>
     <g id="line2d_32">
      <g>
       <use style="stroke:#000000;stroke-width:0.8;" x="1104.906122" xlink:href="#mcfa7a3de99" y="518.4"/>
      </g>
     </g>
     <g id="text_16">
      <!-- 01 22:00 -->
      <g transform="translate(1065.135999 554.341377)rotate(-30)scale(0.1 -0.1)">
       <use xlink:href="#DejaVuSans-30"/>
       <use x="63.623047" xlink:href="#DejaVuSans-31"/>
       <use x="127.246094" xlink:href="#DejaVuSans-20"/>
       <use x="159.033203" xlink:href="#DejaVuSans-32"/>
       <use x="222.65625" xlink:href="#DejaVuSans-32"/>
       <use x="286.279297" xlink:href="#DejaVuSans-3a"/>
       <use x="319.970703" xlink:href="#DejaVuSans-30"/>
       <use x="383.59375" xlink:href="#DejaVuSans-30"/>
      </g>
     </g>
    </g>
    <g id="xtick_17">
     <g id="line2d_33">
      <path clip-path="url(#pa01d4c155b)" d="M 1166.4 518.4 
L 1166.4 77.76 
" style="fill:none;stroke:#b0b0b0;stroke-linecap:square;stroke-width:0.8;"/>
     </g>
     <g id="line2d_34">
      <g>
       <use style="stroke:#000000;stroke-width:0.8;" x="1166.4" xlink:href="#mcfa7a3de99" y="518.4"/>
      </g>
     </g>
     <g id="text_17">
      <!-- 01 23:00 -->
      <g transform="translate(1126.629876 554.341377)rotate(-30)scale(0.1 -0.1)">
       <use xlink:href="#DejaVuSans-30"/>
       <use x="63.623047" xlink:href="#DejaVuSans-31"/>
       <use x="127.246094" xlink:href="#DejaVuSans-20"/>
       <use x="159.033203" xlink:href="#DejaVuSans-32"/>
       <use x="222.65625" xlink:href="#DejaVuSans-33"/>
       <use x="286.279297" xlink:href="#DejaVuSans-3a"/>
       <use x="319.970703" xlink:href="#DejaVuSans-30"/>
       <use x="383.59375" xlink:href="#DejaVuSans-30"/>
      </g>
     </g>
    </g>
   </g>
   <g id="matplotlib.axis_2">
    <g id="ytick_1">
     <g id="line2d_35">
      <path clip-path="url(#pa01d4c155b)" d="M 162 498.370909 
L 1166.4 498.370909 
" style="fill:none;stroke:#b0b0b0;stroke-linecap:square;stroke-width:0.8;"/>
     </g>
     <g id="line2d_36">
      <defs>
       <path d="M 0 0 
L -3.5 0 
" id="m69f58c4d7c" style="stroke:#000000;stroke-width:0.8;"/>
      </defs>
      <g>
       <use style="stroke:#000000;stroke-width:0.8;" x="162" xlink:href="#m69f58c4d7c" y="498.370909"/>
      </g>
     </g>
     <g id="text_18">
      <!-- Новый (Кирово-Чепецк) -->
      <defs>
       <path d="M 9.8125 72.90625 
L 19.671875 72.90625 
L 19.671875 43.015625 
L 55.515625 43.015625 
L 55.515625 72.90625 
L 65.375 72.90625 
L 65.375 0 
L 55.515625 0 
L 55.515625 34.71875 
L 19.671875 34.71875 
L 19.671875 0 
L 9.8125 0 
z
" id="DejaVuSans-41d"/>
       <path d="M 30.609375 48.390625 
Q 23.390625 48.390625 19.1875 42.75 
Q 14.984375 37.109375 14.984375 27.296875 
Q 14.984375 17.484375 19.15625 11.84375 
Q 23.34375 6.203125 30.609375 6.203125 
Q 37.796875 6.203125 41.984375 11.859375 
Q 46.1875 17.53125 46.1875 27.296875 
Q 46.1875 37.015625 41.984375 42.703125 
Q 37.796875 48.390625 30.609375 48.390625 
z
M 30.609375 56 
Q 42.328125 56 49.015625 48.375 
Q 55.71875 40.765625 55.71875 27.296875 
Q 55.71875 13.875 49.015625 6.21875 
Q 42.328125 -1.421875 30.609375 -1.421875 
Q 18.84375 -1.421875 12.171875 6.21875 
Q 5.515625 13.875 5.515625 27.296875 
Q 5.515625 40.765625 12.171875 48.375 
Q 18.84375 56 30.609375 56 
z
" id="DejaVuSans-43e"/>
       <path d="M 18.0625 25.203125 
L 18.0625 7.171875 
L 30.859375 7.171875 
Q 37.015625 7.171875 40.234375 9.484375 
Q 43.453125 11.8125 43.453125 16.21875 
Q 43.453125 20.609375 40.234375 22.90625 
Q 37.015625 25.203125 30.859375 25.203125 
z
M 18.0625 47.515625 
L 18.0625 32.375 
L 29.890625 32.375 
Q 34.96875 32.375 38.1875 34.390625 
Q 41.40625 36.421875 41.40625 40.046875 
Q 41.40625 43.65625 38.1875 45.578125 
Q 34.96875 47.515625 29.890625 47.515625 
z
M 9.078125 54.6875 
L 30.46875 54.6875 
Q 40.09375 54.6875 45.265625 51.171875 
Q 50.4375 47.65625 50.4375 41.15625 
Q 50.4375 36.140625 47.796875 33.171875 
Q 45.171875 30.21875 39.984375 29.5 
Q 46.1875 28.328125 49.609375 24.609375 
Q 53.03125 20.90625 53.03125 15.328125 
Q 53.03125 8.015625 47.390625 4 
Q 41.75 0 31.296875 0 
L 9.078125 0 
z
" id="DejaVuSans-432"/>
       <path d="M 61.078125 54.6875 
L 70.0625 54.6875 
L 70.0625 0 
L 61.078125 0 
z
M 65.578125 56 
z
M 43.453125 16.21875 
Q 43.453125 20.609375 40.25 22.90625 
Q 37.0625 25.203125 30.90625 25.203125 
L 18.109375 25.203125 
L 18.109375 7.171875 
L 30.90625 7.171875 
Q 37.0625 7.171875 40.25 9.484375 
Q 43.453125 11.8125 43.453125 16.21875 
z
M 9.078125 54.6875 
L 18.109375 54.6875 
L 18.109375 32.375 
L 31.296875 32.375 
Q 41.75 32.375 47.390625 28.390625 
Q 53.03125 24.421875 53.03125 16.21875 
Q 53.03125 8.015625 47.390625 4 
Q 41.75 0 31.296875 0 
L 9.078125 0 
z
" id="DejaVuSans-44b"/>
       <path d="M 55.90625 54.6875 
L 55.90625 0 
L 46.96875 0 
L 46.96875 43.890625 
L 20.609375 0 
L 9.078125 0 
L 9.078125 54.6875 
L 18.015625 54.6875 
L 18.015625 10.890625 
L 44.34375 54.6875 
z
M 17.234375 75.96875 
L 23 75.96875 
Q 23.53125 72.3125 25.890625 70.46875 
Q 28.265625 68.640625 32.515625 68.640625 
Q 36.71875 68.640625 39.0625 70.453125 
Q 41.40625 72.265625 42.046875 75.96875 
L 47.796875 75.96875 
Q 47.3125 68.984375 43.453125 65.46875 
Q 39.59375 61.953125 32.515625 61.953125 
Q 25.4375 61.953125 21.578125 65.46875 
Q 17.71875 68.984375 17.234375 75.96875 
z
" id="DejaVuSans-439"/>
       <path d="M 31 75.875 
Q 24.46875 64.65625 21.28125 53.65625 
Q 18.109375 42.671875 18.109375 31.390625 
Q 18.109375 20.125 21.3125 9.0625 
Q 24.515625 -2 31 -13.1875 
L 23.1875 -13.1875 
Q 15.875 -1.703125 12.234375 9.375 
Q 8.59375 20.453125 8.59375 31.390625 
Q 8.59375 42.28125 12.203125 53.3125 
Q 15.828125 64.359375 23.1875 75.875 
z
" id="DejaVuSans-28"/>
       <path d="M 9.8125 72.90625 
L 19.671875 72.90625 
L 19.671875 36.859375 
L 54.9375 72.90625 
L 67.578125 72.90625 
L 39.40625 44.09375 
L 69.046875 0 
L 58.296875 0 
L 33.015625 37.546875 
L 19.671875 23.921875 
L 19.671875 0 
L 9.8125 0 
z
" id="DejaVuSans-41a"/>
       <path d="M 55.90625 54.6875 
L 55.90625 0 
L 46.96875 0 
L 46.96875 43.890625 
L 20.609375 0 
L 9.078125 0 
L 9.078125 54.6875 
L 18.015625 54.6875 
L 18.015625 10.890625 
L 44.34375 54.6875 
z
" id="DejaVuSans-438"/>
       <path d="M 18.109375 8.203125 
L 18.109375 -20.796875 
L 9.078125 -20.796875 
L 9.078125 54.6875 
L 18.109375 54.6875 
L 18.109375 46.390625 
Q 20.953125 51.265625 25.265625 53.625 
Q 29.59375 56 35.59375 56 
Q 45.5625 56 51.78125 48.09375 
Q 58.015625 40.1875 58.015625 27.296875 
Q 58.015625 14.40625 51.78125 6.484375 
Q 45.5625 -1.421875 35.59375 -1.421875 
Q 29.59375 -1.421875 25.265625 0.953125 
Q 20.953125 3.328125 18.109375 8.203125 
z
M 48.6875 27.296875 
Q 48.6875 37.203125 44.609375 42.84375 
Q 40.53125 48.484375 33.40625 48.484375 
Q 26.265625 48.484375 22.1875 42.84375 
Q 18.109375 37.203125 18.109375 27.296875 
Q 18.109375 17.390625 22.1875 11.75 
Q 26.265625 6.109375 33.40625 6.109375 
Q 40.53125 6.109375 44.609375 11.75 
Q 48.6875 17.390625 48.6875 27.296875 
z
" id="DejaVuSans-440"/>
       <path d="M 4.890625 31.390625 
L 31.203125 31.390625 
L 31.203125 23.390625 
L 4.890625 23.390625 
z
" id="DejaVuSans-2d"/>
       <path d="M 48.828125 0 
L 48.828125 29.890625 
L 28.46875 29.890625 
Q 19.390625 29.890625 13.96875 35.578125 
Q 8.546875 41.265625 8.546875 52.875 
L 8.546875 72.90625 
L 18.359375 72.90625 
L 18.359375 53.65625 
Q 18.359375 45.90625 21.390625 42.046875 
Q 24.421875 38.1875 30.46875 38.1875 
L 48.828125 38.1875 
L 48.828125 72.90625 
L 58.734375 72.90625 
L 58.734375 0 
z
" id="DejaVuSans-427"/>
       <path d="M 56.203125 29.59375 
L 56.203125 25.203125 
L 14.890625 25.203125 
Q 15.484375 15.921875 20.484375 11.0625 
Q 25.484375 6.203125 34.421875 6.203125 
Q 39.59375 6.203125 44.453125 7.46875 
Q 49.3125 8.734375 54.109375 11.28125 
L 54.109375 2.78125 
Q 49.265625 0.734375 44.1875 -0.34375 
Q 39.109375 -1.421875 33.890625 -1.421875 
Q 20.796875 -1.421875 13.15625 6.1875 
Q 5.515625 13.8125 5.515625 26.8125 
Q 5.515625 40.234375 12.765625 48.109375 
Q 20.015625 56 32.328125 56 
Q 43.359375 56 49.78125 48.890625 
Q 56.203125 41.796875 56.203125 29.59375 
z
M 47.21875 32.234375 
Q 47.125 39.59375 43.09375 43.984375 
Q 39.0625 48.390625 32.421875 48.390625 
Q 24.90625 48.390625 20.390625 44.140625 
Q 15.875 39.890625 15.1875 32.171875 
z
" id="DejaVuSans-435"/>
       <path d="M 56.296875 54.6875 
L 56.296875 0 
L 47.265625 0 
L 47.265625 47.515625 
L 18.109375 47.515625 
L 18.109375 0 
L 9.078125 0 
L 9.078125 54.6875 
z
" id="DejaVuSans-43f"/>
       <path d="M 56.296875 0 
L 9.078125 0 
L 9.078125 54.6875 
L 18.109375 54.6875 
L 18.109375 7.171875 
L 47.265625 7.171875 
L 47.265625 54.6875 
L 56.296875 54.6875 
L 56.296875 7.171875 
L 63.484375 7.171875 
L 63.484375 -13.8125 
L 56.296875 -13.8125 
z
" id="DejaVuSans-446"/>
       <path d="M 9.078125 54.6875 
L 18.015625 54.6875 
L 18.015625 29 
L 43.359375 54.6875 
L 54.390625 54.6875 
L 33.5 33.546875 
L 57.078125 0 
L 47.015625 0 
L 27.640625 27.59375 
L 18.015625 17.828125 
L 18.015625 0 
L 9.078125 0 
z
" id="DejaVuSans-43a"/>
       <path d="M 8.015625 75.875 
L 15.828125 75.875 
Q 23.140625 64.359375 26.78125 53.3125 
Q 30.421875 42.28125 30.421875 31.390625 
Q 30.421875 20.453125 26.78125 9.375 
Q 23.140625 -1.703125 15.828125 -13.1875 
L 8.015625 -13.1875 
Q 14.5 -2 17.703125 9.0625 
Q 20.90625 20.125 20.90625 31.390625 
Q 20.90625 42.671875 17.703125 53.65625 
Q 14.5 64.65625 8.015625 75.875 
z
" id="DejaVuSans-29"/>
      </defs>
      <g transform="translate(29.859375 496.571222)scale(0.1 -0.1)">
       <use xlink:href="#DejaVuSans-41d"/>
       <use x="75.195312" xlink:href="#DejaVuSans-43e"/>
       <use x="136.376953" xlink:href="#DejaVuSans-432"/>
       <use x="195.3125" xlink:href="#DejaVuSans-44b"/>
       <use x="274.267578" xlink:href="#DejaVuSans-439"/>
       <use x="339.257812" xlink:href="#DejaVuSans-20"/>
       <use x="371.044922" xlink:href="#DejaVuSans-28"/>
       <use x="410.058594" xlink:href="#DejaVuSans-41a"/>
       <use x="481.054688" xlink:href="#DejaVuSans-438"/>
       <use x="546.044922" xlink:href="#DejaVuSans-440"/>
       <use x="609.521484" xlink:href="#DejaVuSans-43e"/>
       <use x="670.703125" xlink:href="#DejaVuSans-432"/>
       <use x="729.638672" xlink:href="#DejaVuSans-43e"/>
       <use x="790.820312" xlink:href="#DejaVuSans-2d"/>
       <use x="826.904297" xlink:href="#DejaVuSans-427"/>
       <use x="895.458984" xlink:href="#DejaVuSans-435"/>
       <use x="956.982422" xlink:href="#DejaVuSans-43f"/>
       <use x="1022.363281" xlink:href="#DejaVuSans-435"/>
       <use x="1083.886719" xlink:href="#DejaVuSans-446"/>
       <use x="1151.953125" xlink:href="#DejaVuSans-43a"/>
       <use x="1212.353516" xlink:href="#DejaVuSans-29"/>
      </g>
      <!-- Novyj (Kirovo-Chepetsk) -->
      <defs>
       <path d="M 9.8125 72.90625 
L 23.09375 72.90625 
L 55.421875 11.921875 
L 55.421875 72.90625 
L 64.984375 72.90625 
L 64.984375 0 
L 51.703125 0 
L 19.390625 60.984375 
L 19.390625 0 
L 9.8125 0 
z
" id="DejaVuSans-4e"/>
       <path d="M 30.609375 48.390625 
Q 23.390625 48.390625 19.1875 42.75 
Q 14.984375 37.109375 14.984375 27.296875 
Q 14.984375 17.484375 19.15625 11.84375 
Q 23.34375 6.203125 30.609375 6.203125 
Q 37.796875 6.203125 41.984375 11.859375 
Q 46.1875 17.53125 46.1875 27.296875 
Q 46.1875 37.015625 41.984375 42.703125 
Q 37.796875 48.390625 30.609375 48.390625 
z
M 30.609375 56 
Q 42.328125 56 49.015625 48.375 
Q 55.71875 40.765625 55.71875 27.296875 
Q 55.71875 13.875 49.015625 6.21875 
Q 42.328125 -1.421875 30.609375 -1.421875 
Q 18.84375 -1.421875 12.171875 6.21875 
Q 5.515625 13.875 5.515625 27.296875 
Q 5.515625 40.765625 12.171875 48.375 
Q 18.84375 56 30.609375 56 
z
" id="DejaVuSans-6f"/>
       <path d="M 2.984375 54.6875 
L 12.5 54.6875 
L 29.59375 8.796875 
L 46.6875 54.6875 
L 56.203125 54.6875 
L 35.6875 0 
L 23.484375 0 
z
" id="DejaVuSans-76"/>
       <path d="M 32.171875 -5.078125 
Q 28.375 -14.84375 24.75 -17.8125 
Q 21.140625 -20.796875 15.09375 -20.796875 
L 7.90625 -20.796875 
L 7.90625 -13.28125 
L 13.1875 -13.28125 
Q 16.890625 -13.28125 18.9375 -11.515625 
Q 21 -9.765625 23.484375 -3.21875 
L 25.09375 0.875 
L 2.984375 54.6875 
L 12.5 54.6875 
L 29.59375 11.921875 
L 46.6875 54.6875 
L 56.203125 54.6875 
z
" id="DejaVuSans-79"/>
       <path d="M 9.421875 54.6875 
L 18.40625 54.6875 
L 18.40625 -0.984375 
Q 18.40625 -11.421875 14.421875 -16.109375 
Q 10.453125 -20.796875 1.609375 -20.796875 
L -1.8125 -20.796875 
L -1.8125 -13.1875 
L 0.59375 -13.1875 
Q 5.71875 -13.1875 7.5625 -10.8125 
Q 9.421875 -8.453125 9.421875 -0.984375 
z
M 9.421875 75.984375 
L 18.40625 75.984375 
L 18.40625 64.59375 
L 9.421875 64.59375 
z
" id="DejaVuSans-6a"/>
       <path d="M 9.8125 72.90625 
L 19.671875 72.90625 
L 19.671875 42.09375 
L 52.390625 72.90625 
L 65.09375 72.90625 
L 28.90625 38.921875 
L 67.671875 0 
L 54.6875 0 
L 19.671875 35.109375 
L 19.671875 0 
L 9.8125 0 
z
" id="DejaVuSans-4b"/>
       <path d="M 9.421875 54.6875 
L 18.40625 54.6875 
L 18.40625 0 
L 9.421875 0 
z
M 9.421875 75.984375 
L 18.40625 75.984375 
L 18.40625 64.59375 
L 9.421875 64.59375 
z
" id="DejaVuSans-69"/>
       <path d="M 41.109375 46.296875 
Q 39.59375 47.171875 37.8125 47.578125 
Q 36.03125 48 33.890625 48 
Q 26.265625 48 22.1875 43.046875 
Q 18.109375 38.09375 18.109375 28.8125 
L 18.109375 0 
L 9.078125 0 
L 9.078125 54.6875 
L 18.109375 54.6875 
L 18.109375 46.1875 
Q 20.953125 51.171875 25.484375 53.578125 
Q 30.03125 56 36.53125 56 
Q 37.453125 56 38.578125 55.875 
Q 39.703125 55.765625 41.0625 55.515625 
z
" id="DejaVuSans-72"/>
       <path d="M 64.40625 67.28125 
L 64.40625 56.890625 
Q 59.421875 61.53125 53.78125 63.8125 
Q 48.140625 66.109375 41.796875 66.109375 
Q 29.296875 66.109375 22.65625 58.46875 
Q 16.015625 50.828125 16.015625 36.375 
Q 16.015625 21.96875 22.65625 14.328125 
Q 29.296875 6.6875 41.796875 6.6875 
Q 48.140625 6.6875 53.78125 8.984375 
Q 59.421875 11.28125 64.40625 15.921875 
L 64.40625 5.609375 
Q 59.234375 2.09375 53.4375 0.328125 
Q 47.65625 -1.421875 41.21875 -1.421875 
Q 24.65625 -1.421875 15.125 8.703125 
Q 5.609375 18.84375 5.609375 36.375 
Q 5.609375 53.953125 15.125 64.078125 
Q 24.65625 74.21875 41.21875 74.21875 
Q 47.75 74.21875 53.53125 72.484375 
Q 59.328125 70.75 64.40625 67.28125 
z
" id="DejaVuSans-43"/>
       <path d="M 54.890625 33.015625 
L 54.890625 0 
L 45.90625 0 
L 45.90625 32.71875 
Q 45.90625 40.484375 42.875 44.328125 
Q 39.84375 48.1875 33.796875 48.1875 
Q 26.515625 48.1875 22.3125 43.546875 
Q 18.109375 38.921875 18.109375 30.90625 
L 18.109375 0 
L 9.078125 0 
L 9.078125 75.984375 
L 18.109375 75.984375 
L 18.109375 46.1875 
Q 21.34375 51.125 25.703125 53.5625 
Q 30.078125 56 35.796875 56 
Q 45.21875 56 50.046875 50.171875 
Q 54.890625 44.34375 54.890625 33.015625 
z
" id="DejaVuSans-68"/>
       <path d="M 56.203125 29.59375 
L 56.203125 25.203125 
L 14.890625 25.203125 
Q 15.484375 15.921875 20.484375 11.0625 
Q 25.484375 6.203125 34.421875 6.203125 
Q 39.59375 6.203125 44.453125 7.46875 
Q 49.3125 8.734375 54.109375 11.28125 
L 54.109375 2.78125 
Q 49.265625 0.734375 44.1875 -0.34375 
Q 39.109375 -1.421875 33.890625 -1.421875 
Q 20.796875 -1.421875 13.15625 6.1875 
Q 5.515625 13.8125 5.515625 26.8125 
Q 5.515625 40.234375 12.765625 48.109375 
Q 20.015625 56 32.328125 56 
Q 43.359375 56 49.78125 48.890625 
Q 56.203125 41.796875 56.203125 29.59375 
z
M 47.21875 32.234375 
Q 47.125 39.59375 43.09375 43.984375 
Q 39.0625 48.390625 32.421875 48.390625 
Q 24.90625 48.390625 20.390625 44.140625 
Q 15.875 39.890625 15.1875 32.171875 
z
" id="DejaVuSans-65"/>
       <path d="M 18.109375 8.203125 
L 18.109375 -20.796875 
L 9.078125 -20.796875 
L 9.078125 54.6875 
L 18.109375 54.6875 
L 18.109375 46.390625 
Q 20.953125 51.265625 25.265625 53.625 
Q 29.59375 56 35.59375 56 
Q 45.5625 56 51.78125 48.09375 
Q 58.015625 40.1875 58.015625 27.296875 
Q 58.015625 14.40625 51.78125 6.484375 
Q 45.5625 -1.421875 35.59375 -1.421875 
Q 29.59375 -1.421875 25.265625 0.953125 
Q 20.953125 3.328125 18.109375 8.203125 
z
M 48.6875 27.296875 
Q 48.6875 37.203125 44.609375 42.84375 
Q 40.53125 48.484375 33.40625 48.484375 
Q 26.265625 48.484375 22.1875 42.84375 
Q 18.109375 37.203125 18.109375 27.296875 
Q 18.109375 17.390625 22.1875 11.75 
Q 26.265625 6.109375 33.40625 6.109375 
Q 40.53125 6.109375 44.609375 11.75 
Q 48.6875 17.390625 48.6875 27.296875 
z
" id="DejaVuSans-70"/>
       <path d="M 18.3125 70.21875 
L 18.3125 54.6875 
L 36.8125 54.6875 
L 36.8125 47.703125 
L 18.3125 47.703125 
L 18.3125 18.015625 
Q 18.3125 11.328125 20.140625 9.421875 
Q 21.96875 7.515625 27.59375 7.515625 
L 36.8125 7.515625 
L 36.8125 0 
L 27.59375 0 
Q 17.1875 0 13.234375 3.875 
Q 9.28125 7.765625 9.28125 18.015625 
L 9.28125 47.703125 
L 2.6875 47.703125 
L 2.6875 54.6875 
L 9.28125 54.6875 
L 9.28125 70.21875 
z
" id="DejaVuSans-74"/>
       <path d="M 44.28125 53.078125 
L 44.28125 44.578125 
Q 40.484375 46.53125 36.375 47.5 
Q 32.28125 48.484375 27.875 48.484375 
Q 21.1875 48.484375 17.84375 46.4375 
Q 14.5 44.390625 14.5 40.28125 
Q 14.5 37.15625 16.890625 35.375 
Q 19.28125 33.59375 26.515625 31.984375 
L 29.59375 31.296875 
Q 39.15625 29.25 43.1875 25.515625 
Q 47.21875 21.78125 47.21875 15.09375 
Q 47.21875 7.46875 41.1875 3.015625 
Q 35.15625 -1.421875 24.609375 -1.421875 
Q 20.21875 -1.421875 15.453125 -0.5625 
Q 10.6875 0.296875 5.421875 2 
L 5.421875 11.28125 
Q 10.40625 8.6875 15.234375 7.390625 
Q 20.0625 6.109375 24.8125 6.109375 
Q 31.15625 6.109375 34.5625 8.28125 
Q 37.984375 10.453125 37.984375 14.40625 
Q 37.984375 18.0625 35.515625 20.015625 
Q 33.0625 21.96875 24.703125 23.78125 
L 21.578125 24.515625 
Q 13.234375 26.265625 9.515625 29.90625 
Q 5.8125 33.546875 5.8125 39.890625 
Q 5.8125 47.609375 11.28125 51.796875 
Q 16.75 56 26.8125 56 
Q 31.78125 56 36.171875 55.265625 
Q 40.578125 54.546875 44.28125 53.078125 
z
" id="DejaVuSans-73"/>
       <path d="M 9.078125 75.984375 
L 18.109375 75.984375 
L 18.109375 31.109375 
L 44.921875 54.6875 
L 56.390625 54.6875 
L 27.390625 29.109375 
L 57.625 0 
L 45.90625 0 
L 18.109375 26.703125 
L 18.109375 0 
L 9.078125 0 
z
" id="DejaVuSans-6b"/>
      </defs>
      <g transform="translate(33.698437 507.769034)scale(0.1 -0.1)">
       <use xlink:href="#DejaVuSans-4e"/>
       <use x="74.804688" xlink:href="#DejaVuSans-6f"/>
       <use x="135.986328" xlink:href="#DejaVuSans-76"/>
       <use x="195.166016" xlink:href="#DejaVuSans-79"/>
       <use x="254.345703" xlink:href="#DejaVuSans-6a"/>
       <use x="282.128906" xlink:href="#DejaVuSans-20"/>
       <use x="313.916016" xlink:href="#DejaVuSans-28"/>
       <use x="352.929688" xlink:href="#DejaVuSans-4b"/>
       <use x="418.505859" xlink:href="#DejaVuSans-69"/>
       <use x="446.289062" xlink:href="#DejaVuSans-72"/>
       <use x="487.371094" xlink:href="#DejaVuSans-6f"/>
       <use x="548.552734" xlink:href="#DejaVuSans-76"/>
       <use x="607.732422" xlink:href="#DejaVuSans-6f"/>
       <use x="668.929688" xlink:href="#DejaVuSans-2d"/>
       <use x="705.013672" xlink:href="#DejaVuSans-43"/>
       <use x="774.837891" xlink:href="#DejaVuSans-68"/>
       <use x="838.216797" xlink:href="#DejaVuSans-65"/>
       <use x="899.740234" xlink:href="#DejaVuSans-70"/>
       <use x="963.216797" xlink:href="#DejaVuSans-65"/>
       <use x="1024.740234" xlink:href="#DejaVuSans-74"/>
       <use x="1063.949219" xlink:href="#DejaVuSans-73"/>
       <use x="1116.048828" xlink:href="#DejaVuSans-6b"/>
       <use x="1173.958984" xlink:href="#DejaVuSans-29"/>
      </g>
     </g>
    </g>
    <g id="ytick_2">
     <g id="line2d_37">
      <path clip-path="url(#pa01d4c155b)" d="M 162 458.312727 
L 1166.4 458.312727 
" style="fill:none;stroke:#b0b0b0;stroke-linecap:square;stroke-width:0.8;"/>
     </g>
     <g id="line2d_38">
      <g>
       <use style="stroke:#000000;stroke-width:0.8;" x="162" xlink:href="#m69f58c4d7c" y="458.312727"/>
      </g>
     </g>
     <g id="text_19">
      <!-- Вернисаж -->
      <defs>
       <path d="M 19.671875 34.8125 
L 19.671875 8.109375 
L 35.5 8.109375 
Q 43.453125 8.109375 47.28125 11.40625 
Q 51.125 14.703125 51.125 21.484375 
Q 51.125 28.328125 47.28125 31.5625 
Q 43.453125 34.8125 35.5 34.8125 
z
M 19.671875 64.796875 
L 19.671875 42.828125 
L 34.28125 42.828125 
Q 41.5 42.828125 45.03125 45.53125 
Q 48.578125 48.25 48.578125 53.8125 
Q 48.578125 59.328125 45.03125 62.0625 
Q 41.5 64.796875 34.28125 64.796875 
z
M 9.8125 72.90625 
L 35.015625 72.90625 
Q 46.296875 72.90625 52.390625 68.21875 
Q 58.5 63.53125 58.5 54.890625 
Q 58.5 48.1875 55.375 44.234375 
Q 52.25 40.28125 46.1875 39.3125 
Q 53.46875 37.75 57.5 32.78125 
Q 61.53125 27.828125 61.53125 20.40625 
Q 61.53125 10.640625 54.890625 5.3125 
Q 48.25 0 35.984375 0 
L 9.8125 0 
z
" id="DejaVuSans-412"/>
       <path d="M 9.078125 54.6875 
L 18.109375 54.6875 
L 18.109375 32.375 
L 47.265625 32.375 
L 47.265625 54.6875 
L 56.296875 54.6875 
L 56.296875 0 
L 47.265625 0 
L 47.265625 25.203125 
L 18.109375 25.203125 
L 18.109375 0 
L 9.078125 0 
z
" id="DejaVuSans-43d"/>
       <path d="M 48.78125 52.59375 
L 48.78125 44.1875 
Q 44.96875 46.296875 41.140625 47.34375 
Q 37.3125 48.390625 33.40625 48.390625 
Q 24.65625 48.390625 19.8125 42.84375 
Q 14.984375 37.3125 14.984375 27.296875 
Q 14.984375 17.28125 19.8125 11.734375 
Q 24.65625 6.203125 33.40625 6.203125 
Q 37.3125 6.203125 41.140625 7.25 
Q 44.96875 8.296875 48.78125 10.40625 
L 48.78125 2.09375 
Q 45.015625 0.34375 40.984375 -0.53125 
Q 36.96875 -1.421875 32.421875 -1.421875 
Q 20.0625 -1.421875 12.78125 6.34375 
Q 5.515625 14.109375 5.515625 27.296875 
Q 5.515625 40.671875 12.859375 48.328125 
Q 20.21875 56 33.015625 56 
Q 37.15625 56 41.109375 55.140625 
Q 45.0625 54.296875 48.78125 52.59375 
z
" id="DejaVuSans-441"/>
       <path d="M 34.28125 27.484375 
Q 23.390625 27.484375 19.1875 25 
Q 14.984375 22.515625 14.984375 16.5 
Q 14.984375 11.71875 18.140625 8.90625 
Q 21.296875 6.109375 26.703125 6.109375 
Q 34.1875 6.109375 38.703125 11.40625 
Q 43.21875 16.703125 43.21875 25.484375 
L 43.21875 27.484375 
z
M 52.203125 31.203125 
L 52.203125 0 
L 43.21875 0 
L 43.21875 8.296875 
Q 40.140625 3.328125 35.546875 0.953125 
Q 30.953125 -1.421875 24.3125 -1.421875 
Q 15.921875 -1.421875 10.953125 3.296875 
Q 6 8.015625 6 15.921875 
Q 6 25.140625 12.171875 29.828125 
Q 18.359375 34.515625 30.609375 34.515625 
L 43.21875 34.515625 
L 43.21875 35.40625 
Q 43.21875 41.609375 39.140625 45 
Q 35.0625 48.390625 27.6875 48.390625 
Q 23 48.390625 18.546875 47.265625 
Q 14.109375 46.140625 10.015625 43.890625 
L 10.015625 52.203125 
Q 14.9375 54.109375 19.578125 55.046875 
Q 24.21875 56 28.609375 56 
Q 40.484375 56 46.34375 49.84375 
Q 52.203125 43.703125 52.203125 31.203125 
z
" id="DejaVuSans-430"/>
       <path d="M 40.578125 54.6875 
L 49.515625 54.6875 
L 49.515625 29 
L 73.390625 54.6875 
L 83.84375 54.6875 
L 64.203125 33.640625 
L 86.671875 0 
L 77.046875 0 
L 58.640625 27.640625 
L 49.515625 17.828125 
L 49.515625 0 
L 40.578125 0 
L 40.578125 17.828125 
L 31.453125 27.640625 
L 13.03125 0 
L 3.421875 0 
L 25.875 33.640625 
L 6.25 54.6875 
L 16.703125 54.6875 
L 40.578125 29 
z
" id="DejaVuSans-436"/>
      </defs>
      <g transform="translate(101.965625 456.51304)scale(0.1 -0.1)">
       <use xlink:href="#DejaVuSans-412"/>
       <use x="68.603516" xlink:href="#DejaVuSans-435"/>
       <use x="130.126953" xlink:href="#DejaVuSans-440"/>
       <use x="193.603516" xlink:href="#DejaVuSans-43d"/>
       <use x="258.984375" xlink:href="#DejaVuSans-438"/>
       <use x="323.974609" xlink:href="#DejaVuSans-441"/>
       <use x="378.955078" xlink:href="#DejaVuSans-430"/>
       <use x="440.234375" xlink:href="#DejaVuSans-436"/>
      </g>
      <!-- Vernisazh -->
      <defs>
       <path d="M 28.609375 0 
L 0.78125 72.90625 
L 11.078125 72.90625 
L 34.1875 11.53125 
L 57.328125 72.90625 
L 67.578125 72.90625 
L 39.796875 0 
z
" id="DejaVuSans-56"/>
       <path d="M 54.890625 33.015625 
L 54.890625 0 
L 45.90625 0 
L 45.90625 32.71875 
Q 45.90625 40.484375 42.875 44.328125 
Q 39.84375 48.1875 33.796875 48.1875 
Q 26.515625 48.1875 22.3125 43.546875 
Q 18.109375 38.921875 18.109375 30.90625 
L 18.109375 0 
L 9.078125 0 
L 9.078125 54.6875 
L 18.109375 54.6875 
L 18.109375 46.1875 
Q 21.34375 51.125 25.703125 53.5625 
Q 30.078125 56 35.796875 56 
Q 45.21875 56 50.046875 50.171875 
Q 54.890625 44.34375 54.890625 33.015625 
z
" id="DejaVuSans-6e"/>
       <path d="M 34.28125 27.484375 
Q 23.390625 27.484375 19.1875 25 
Q 14.984375 22.515625 14.984375 16.5 
Q 14.984375 11.71875 18.140625 8.90625 
Q 21.296875 6.109375 26.703125 6.109375 
Q 34.1875 6.109375 38.703125 11.40625 
Q 43.21875 16.703125 43.21875 25.484375 
L 43.21875 27.484375 
z
M 52.203125 31.203125 
L 52.203125 0 
L 43.21875 0 
L 43.21875 8.296875 
Q 40.140625 3.328125 35.546875 0.953125 
Q 30.953125 -1.421875 24.3125 -1.421875 
Q 15.921875 -1.421875 10.953125 3.296875 
Q 6 8.015625 6 15.921875 
Q 6 25.140625 12.171875 29.828125 
Q 18.359375 34.515625 30.609375 34.515625 
L 43.21875 34.515625 
L 43.21875 35.40625 
Q 43.21875 41.609375 39.140625 45 
Q 35.0625 48.390625 27.6875 48.390625 
Q 23 48.390625 18.546875 47.265625 
Q 14.109375 46.140625 10.015625 43.890625 
L 10.015625 52.203125 
Q 14.9375 54.109375 19.578125 55.046875 
Q 24.21875 56 28.609375 56 
Q 40.484375 56 46.34375 49.84375 
Q 52.203125 43.703125 52.203125 31.203125 
z
" id="DejaVuSans-61"/>
       <path d="M 5.515625 54.6875 
L 48.1875 54.6875 
L 48.1875 46.484375 
L 14.40625 7.171875 
L 48.1875 7.171875 
L 48.1875 0 
L 4.296875 0 
L 4.296875 8.203125 
L 38.09375 47.515625 
L 5.515625 47.515625 
z
" id="DejaVuSans-7a"/>
      </defs>
      <g transform="translate(105.86875 467.710852)scale(0.1 -0.1)">
       <use xlink:href="#DejaVuSans-56"/>
       <use x="68.298828" xlink:href="#DejaVuSans-65"/>
       <use x="129.822266" xlink:href="#DejaVuSans-72"/>
       <use x="170.919922" xlink:href="#DejaVuSans-6e"/>
       <use x="234.298828" xlink:href="#DejaVuSans-69"/>
       <use x="262.082031" xlink:href="#DejaVuSans-73"/>
       <use x="314.181641" xlink:href="#DejaVuSans-61"/>
       <use x="375.460938" xlink:href="#DejaVuSans-7a"/>
       <use x="427.951172" xlink:href="#DejaVuSans-68"/>
      </g>
     </g>
    </g>
    <g id="ytick_3">
     <g id="line2d_39">
      <path clip-path="url(#pa01d4c155b)" d="M 162 418.254545 
L 1166.4 418.254545 
" style="fill:none;stroke:#b0b0b0;stroke-linecap:square;stroke-width:0.8;"/>
     </g>
     <g id="line2d_40">
      <g>
       <use style="stroke:#000000;stroke-width:0.8;" x="162" xlink:href="#m69f58c4d7c" y="418.254545"/>
      </g>
     </g>
     <g id="text_20">
      <!-- Боёво -->
      <defs>
       <path d="M 51.125 21.4375 
Q 51.125 28.21875 47.28125 31.515625 
Q 43.453125 34.8125 35.5 34.8125 
L 19.671875 34.8125 
L 19.671875 8.109375 
L 35.5 8.109375 
Q 43.453125 8.109375 47.28125 11.40625 
Q 51.125 14.703125 51.125 21.4375 
z
M 56.390625 72.90625 
L 56.390625 64.796875 
L 19.671875 64.796875 
L 19.671875 42.921875 
L 35.984375 42.921875 
Q 48.25 42.921875 54.890625 37.59375 
Q 61.53125 32.28125 61.53125 21.4375 
Q 61.53125 10.640625 55.109375 5.3125 
Q 48.6875 0 35.984375 0 
L 9.8125 0 
L 9.8125 72.90625 
z
" id="DejaVuSans-411"/>
       <path d="M 56.203125 29.59375 
L 56.203125 25.203125 
L 14.890625 25.203125 
Q 15.484375 15.921875 20.484375 11.0625 
Q 25.484375 6.203125 34.421875 6.203125 
Q 39.59375 6.203125 44.453125 7.46875 
Q 49.3125 8.734375 54.109375 11.28125 
L 54.109375 2.78125 
Q 49.265625 0.734375 44.1875 -0.34375 
Q 39.109375 -1.421875 33.890625 -1.421875 
Q 20.796875 -1.421875 13.15625 6.1875 
Q 5.515625 13.8125 5.515625 26.8125 
Q 5.515625 40.234375 12.765625 48.109375 
Q 20.015625 56 32.328125 56 
Q 43.359375 56 49.78125 48.890625 
Q 56.203125 41.796875 56.203125 29.59375 
z
M 47.21875 32.234375 
Q 47.125 39.59375 43.09375 43.984375 
Q 39.0625 48.390625 32.421875 48.390625 
Q 24.90625 48.390625 20.390625 44.140625 
Q 15.875 39.890625 15.1875 32.171875 
z
M 36.921875 75.78125 
L 46.828125 75.78125 
L 46.828125 65.921875 
L 36.921875 65.921875 
z
M 17.828125 75.78125 
L 27.734375 75.78125 
L 27.734375 65.921875 
L 17.828125 65.921875 
z
" id="DejaVuSans-451"/>
      </defs>
      <g transform="translate(123.854687 416.454858)scale(0.1 -0.1)">
       <use xlink:href="#DejaVuSans-411"/>
       <use x="68.603516" xlink:href="#DejaVuSans-43e"/>
       <use x="129.785156" xlink:href="#DejaVuSans-451"/>
       <use x="191.308594" xlink:href="#DejaVuSans-432"/>
       <use x="250.244141" xlink:href="#DejaVuSans-43e"/>
      </g>
      <!-- Boevo -->
      <defs>
       <path d="M 19.671875 34.8125 
L 19.671875 8.109375 
L 35.5 8.109375 
Q 43.453125 8.109375 47.28125 11.40625 
Q 51.125 14.703125 51.125 21.484375 
Q 51.125 28.328125 47.28125 31.5625 
Q 43.453125 34.8125 35.5 34.8125 
z
M 19.671875 64.796875 
L 19.671875 42.828125 
L 34.28125 42.828125 
Q 41.5 42.828125 45.03125 45.53125 
Q 48.578125 48.25 48.578125 53.8125 
Q 48.578125 59.328125 45.03125 62.0625 
Q 41.5 64.796875 34.28125 64.796875 
z
M 9.8125 72.90625 
L 35.015625 72.90625 
Q 46.296875 72.90625 52.390625 68.21875 
Q 58.5 63.53125 58.5 54.890625 
Q 58.5 48.1875 55.375 44.234375 
Q 52.25 40.28125 46.1875 39.3125 
Q 53.46875 37.75 57.5 32.78125 
Q 61.53125 27.828125 61.53125 20.40625 
Q 61.53125 10.640625 54.890625 5.3125 
Q 48.25 0 35.984375 0 
L 9.8125 0 
z
" id="DejaVuSans-42"/>
      </defs>
      <g transform="translate(123.829688 427.65267)scale(0.1 -0.1)">
       <use xlink:href="#DejaVuSans-42"/>
       <use x="68.603516" xlink:href="#DejaVuSans-6f"/>
       <use x="129.785156" xlink:href="#DejaVuSans-65"/>
       <use x="191.308594" xlink:href="#DejaVuSans-76"/>
       <use x="250.488281" xlink:href="#DejaVuSans-6f"/>
      </g>
     </g>
    </g>
    <g id="ytick_4">
     <g id="line2d_41">
      <path clip-path="url(#pa01d4c155b)" d="M 162 378.196364 
L 1166.4 378.196364 
" style="fill:none;stroke:#b0b0b0;stroke-linecap:square;stroke-width:0.8;"/>
     </g>
     <g id="line2d_42">
      <g>
       <use style="stroke:#000000;stroke-width:0.8;" x="162" xlink:href="#m69f58c4d7c" y="378.196364"/>
      </g>
     </g>
     <g id="text_21">
      <!-- Мост через Чепцу -->
      <defs>
       <path d="M 9.8125 72.90625 
L 24.515625 72.90625 
L 43.109375 23.296875 
L 61.8125 72.90625 
L 76.515625 72.90625 
L 76.515625 0 
L 66.890625 0 
L 66.890625 64.015625 
L 48.09375 14.015625 
L 38.1875 14.015625 
L 19.390625 64.015625 
L 19.390625 0 
L 9.8125 0 
z
" id="DejaVuSans-41c"/>
       <path d="M 2.9375 54.6875 
L 55.328125 54.6875 
L 55.328125 47.515625 
L 33.546875 47.515625 
L 33.546875 0 
L 24.703125 0 
L 24.703125 47.515625 
L 2.9375 47.515625 
z
" id="DejaVuSans-442"/>
       <path d="M 41.015625 0 
L 41.015625 23 
L 24.265625 23 
Q 16.796875 23 11.8125 27.640625 
Q 7.328125 31.84375 7.328125 40.828125 
L 7.328125 54.6875 
L 16.3125 54.6875 
L 16.3125 41.65625 
Q 16.3125 35.9375 18.84375 33.0625 
Q 21.4375 30.171875 26.515625 30.171875 
L 41.015625 30.171875 
L 41.015625 54.6875 
L 50 54.6875 
L 50 0 
z
" id="DejaVuSans-447"/>
       <path d="M 34.46875 29.5 
Q 40.53125 28.328125 43.890625 24.75 
Q 47.265625 21.1875 47.265625 15.921875 
Q 47.265625 7.46875 40.96875 3.015625 
Q 34.671875 -1.421875 23.046875 -1.421875 
Q 19.140625 -1.421875 15.015625 -0.734375 
Q 10.890625 -0.046875 6.5 1.3125 
L 6.5 9.671875 
Q 9.96875 7.859375 14.109375 6.953125 
Q 18.265625 6.0625 22.796875 6.0625 
Q 30.171875 6.0625 34.296875 8.796875 
Q 38.421875 11.53125 38.421875 15.921875 
Q 38.421875 20.21875 34.765625 22.828125 
Q 31.109375 25.4375 24.421875 25.4375 
L 17.1875 25.4375 
L 17.1875 32.859375 
L 24.75 32.859375 
Q 30.421875 32.859375 33.71875 35.03125 
Q 37.015625 37.203125 37.015625 40.625 
Q 37.015625 43.75 33.609375 46 
Q 30.21875 48.25 24.421875 48.25 
Q 20.953125 48.25 17.015625 47.609375 
Q 13.09375 46.96875 8.34375 45.5625 
L 8.34375 53.71875 
Q 13.140625 54.890625 17.28125 55.46875 
Q 21.4375 56.0625 25.140625 56.0625 
Q 34.71875 56.0625 40.25 52.21875 
Q 45.796875 48.390625 45.796875 41.5 
Q 45.796875 36.96875 42.859375 33.8125 
Q 39.9375 30.671875 34.46875 29.5 
z
" id="DejaVuSans-437"/>
       <path d="M 32.171875 -5.078125 
Q 28.375 -14.84375 24.75 -17.8125 
Q 21.140625 -20.796875 15.09375 -20.796875 
L 7.90625 -20.796875 
L 7.90625 -13.28125 
L 13.1875 -13.28125 
Q 16.890625 -13.28125 18.9375 -11.515625 
Q 21 -9.765625 23.484375 -3.21875 
L 25.09375 0.875 
L 2.984375 54.6875 
L 12.5 54.6875 
L 29.59375 11.921875 
L 46.6875 54.6875 
L 56.203125 54.6875 
z
" id="DejaVuSans-443"/>
      </defs>
      <g transform="translate(60.421875 376.396676)scale(0.1 -0.1)">
       <use xlink:href="#DejaVuSans-41c"/>
       <use x="86.279297" xlink:href="#DejaVuSans-43e"/>
       <use x="147.460938" xlink:href="#DejaVuSans-441"/>
       <use x="202.441406" xlink:href="#DejaVuSans-442"/>
       <use x="260.693359" xlink:href="#DejaVuSans-20"/>
       <use x="292.480469" xlink:href="#DejaVuSans-447"/>
       <use x="351.5625" xlink:href="#DejaVuSans-435"/>
       <use x="413.085938" xlink:href="#DejaVuSans-440"/>
       <use x="476.5625" xlink:href="#DejaVuSans-435"/>
       <use x="538.085938" xlink:href="#DejaVuSans-437"/>
       <use x="591.259766" xlink:href="#DejaVuSans-20"/>
       <use x="623.046875" xlink:href="#DejaVuSans-427"/>
       <use x="691.601562" xlink:href="#DejaVuSans-435"/>
       <use x="753.125" xlink:href="#DejaVuSans-43f"/>
       <use x="818.505859" xlink:href="#DejaVuSans-446"/>
       <use x="886.572266" xlink:href="#DejaVuSans-443"/>
      </g>
      <!-- Most cherez Cheptsu -->
      <defs>
       <path d="M 9.8125 72.90625 
L 24.515625 72.90625 
L 43.109375 23.296875 
L 61.8125 72.90625 
L 76.515625 72.90625 
L 76.515625 0 
L 66.890625 0 
L 66.890625 64.015625 
L 48.09375 14.015625 
L 38.1875 14.015625 
L 19.390625 64.015625 
L 19.390625 0 
L 9.8125 0 
z
" id="DejaVuSans-4d"/>
       <path d="M 48.78125 52.59375 
L 48.78125 44.1875 
Q 44.96875 46.296875 41.140625 47.34375 
Q 37.3125 48.390625 33.40625 48.390625 
Q 24.65625 48.390625 19.8125 42.84375 
Q 14.984375 37.3125 14.984375 27.296875 
Q 14.984375 17.28125 19.8125 11.734375 
Q 24.65625 6.203125 33.40625 6.203125 
Q 37.3125 6.203125 41.140625 7.25 
Q 44.96875 8.296875 48.78125 10.40625 
L 48.78125 2.09375 
Q 45.015625 0.34375 40.984375 -0.53125 
Q 36.96875 -1.421875 32.421875 -1.421875 
Q 20.0625 -1.421875 12.78125 6.34375 
Q 5.515625 14.109375 5.515625 27.296875 
Q 5.515625 40.671875 12.859375 48.328125 
Q 20.21875 56 33.015625 56 
Q 37.15625 56 41.109375 55.140625 
Q 45.0625 54.296875 48.78125 52.59375 
z
" id="DejaVuSans-63"/>
       <path d="M 8.5 21.578125 
L 8.5 54.6875 
L 17.484375 54.6875 
L 17.484375 21.921875 
Q 17.484375 14.15625 20.5 10.265625 
Q 23.53125 6.390625 29.59375 6.390625 
Q 36.859375 6.390625 41.078125 11.03125 
Q 45.3125 15.671875 45.3125 23.6875 
L 45.3125 54.6875 
L 54.296875 54.6875 
L 54.296875 0 
L 45.3125 0 
L 45.3125 8.40625 
Q 42.046875 3.421875 37.71875 1 
Q 33.40625 -1.421875 27.6875 -1.421875 
Q 18.265625 -1.421875 13.375 4.4375 
Q 8.5 10.296875 8.5 21.578125 
z
M 31.109375 56 
z
" id="DejaVuSans-75"/>
      </defs>
      <g transform="translate(49.979687 387.594489)scale(0.1 -0.1)">
       <use xlink:href="#DejaVuSans-4d"/>
       <use x="86.279297" xlink:href="#DejaVuSans-6f"/>
       <use x="147.460938" xlink:href="#DejaVuSans-73"/>
       <use x="199.560547" xlink:href="#DejaVuSans-74"/>
       <use x="238.769531" xlink:href="#DejaVuSans-20"/>
       <use x="270.556641" xlink:href="#DejaVuSans-63"/>
       <use x="325.537109" xlink:href="#DejaVuSans-68"/>
       <use x="388.916016" xlink:href="#DejaVuSans-65"/>
       <use x="450.439453" xlink:href="#DejaVuSans-72"/>
       <use x="491.521484" xlink:href="#DejaVuSans-65"/>
       <use x="553.044922" xlink:href="#DejaVuSans-7a"/>
       <use x="605.535156" xlink:href="#DejaVuSans-20"/>
       <use x="637.322266" xlink:href="#DejaVuSans-43"/>
       <use x="707.146484" xlink:href="#DejaVuSans-68"/>
       <use x="770.525391" xlink:href="#DejaVuSans-65"/>
       <use x="832.048828" xlink:href="#DejaVuSans-70"/>
       <use x="895.525391" xlink:href="#DejaVuSans-74"/>
       <use x="934.734375" xlink:href="#DejaVuSans-73"/>
       <use x="986.833984" xlink:href="#DejaVuSans-75"/>
      </g>
     </g>
    </g>
    <g id="ytick_5">
     <g id="line2d_43">
      <path clip-path="url(#pa01d4c155b)" d="M 162 298.08 
L 1166.4 298.08 
" style="fill:none;stroke:#b0b0b0;stroke-linecap:square;stroke-width:0.8;"/>
     </g>
     <g id="line2d_44">
      <g>
       <use style="stroke:#000000;stroke-width:0.8;" x="162" xlink:href="#m69f58c4d7c" y="298.08"/>
      </g>
     </g>
     <g id="text_22">
      <!-- Пойма -->
      <defs>
       <path d="M 65.375 72.90625 
L 65.375 0 
L 55.515625 0 
L 55.515625 64.59375 
L 19.671875 64.59375 
L 19.671875 0 
L 9.8125 0 
L 9.8125 72.90625 
z
" id="DejaVuSans-41f"/>
       <path d="M 9.078125 54.6875 
L 22.21875 54.6875 
L 37.75 18.0625 
L 53.328125 54.6875 
L 66.359375 54.6875 
L 66.359375 0 
L 57.328125 0 
L 57.328125 46.09375 
L 42.234375 10.5 
L 33.25 10.5 
L 18.109375 46.09375 
L 18.109375 0 
L 9.078125 0 
z
" id="DejaVuSans-43c"/>
      </defs>
      <g transform="translate(121.190625 296.280312)scale(0.1 -0.1)">
       <use xlink:href="#DejaVuSans-41f"/>
       <use x="75.195312" xlink:href="#DejaVuSans-43e"/>
       <use x="136.376953" xlink:href="#DejaVuSans-439"/>
       <use x="201.367188" xlink:href="#DejaVuSans-43c"/>
       <use x="276.806641" xlink:href="#DejaVuSans-430"/>
      </g>
      <!-- Pojma -->
      <defs>
       <path d="M 19.671875 64.796875 
L 19.671875 37.40625 
L 32.078125 37.40625 
Q 38.96875 37.40625 42.71875 40.96875 
Q 46.484375 44.53125 46.484375 51.125 
Q 46.484375 57.671875 42.71875 61.234375 
Q 38.96875 64.796875 32.078125 64.796875 
z
M 9.8125 72.90625 
L 32.078125 72.90625 
Q 44.34375 72.90625 50.609375 67.359375 
Q 56.890625 61.8125 56.890625 51.125 
Q 56.890625 40.328125 50.609375 34.8125 
Q 44.34375 29.296875 32.078125 29.296875 
L 19.671875 29.296875 
L 19.671875 0 
L 9.8125 0 
z
" id="DejaVuSans-50"/>
       <path d="M 52 44.1875 
Q 55.375 50.25 60.0625 53.125 
Q 64.75 56 71.09375 56 
Q 79.640625 56 84.28125 50.015625 
Q 88.921875 44.046875 88.921875 33.015625 
L 88.921875 0 
L 79.890625 0 
L 79.890625 32.71875 
Q 79.890625 40.578125 77.09375 44.375 
Q 74.3125 48.1875 68.609375 48.1875 
Q 61.625 48.1875 57.5625 43.546875 
Q 53.515625 38.921875 53.515625 30.90625 
L 53.515625 0 
L 44.484375 0 
L 44.484375 32.71875 
Q 44.484375 40.625 41.703125 44.40625 
Q 38.921875 48.1875 33.109375 48.1875 
Q 26.21875 48.1875 22.15625 43.53125 
Q 18.109375 38.875 18.109375 30.90625 
L 18.109375 0 
L 9.078125 0 
L 9.078125 54.6875 
L 18.109375 54.6875 
L 18.109375 46.1875 
Q 21.1875 51.21875 25.484375 53.609375 
Q 29.78125 56 35.6875 56 
Q 41.65625 56 45.828125 52.96875 
Q 50 49.953125 52 44.1875 
z
" id="DejaVuSans-6d"/>
      </defs>
      <g transform="translate(124.209375 307.478125)scale(0.1 -0.1)">
       <use xlink:href="#DejaVuSans-50"/>
       <use x="60.255859" xlink:href="#DejaVuSans-6f"/>
       <use x="121.4375" xlink:href="#DejaVuSans-6a"/>
       <use x="149.220703" xlink:href="#DejaVuSans-6d"/>
       <use x="246.632812" xlink:href="#DejaVuSans-61"/>
      </g>
     </g>
    </g>
    <g id="ytick_6">
     <g id="line2d_45">
      <path clip-path="url(#pa01d4c155b)" d="M 162 217.963636 
L 1166.4 217.963636 
" style="fill:none;stroke:#b0b0b0;stroke-linecap:square;stroke-width:0.8;"/>
     </g>
     <g id="line2d_46">
      <g>
       <use style="stroke:#000000;stroke-width:0.8;" x="162" xlink:href="#m69f58c4d7c" y="217.963636"/>
      </g>
     </g>
     <g id="text_23">
      <!-- Бор -->
      <g transform="translate(135.671875 216.163949)scale(0.1 -0.1)">
       <use xlink:href="#DejaVuSans-411"/>
       <use x="68.603516" xlink:href="#DejaVuSans-43e"/>
       <use x="129.785156" xlink:href="#DejaVuSans-440"/>
      </g>
      <!-- Bor -->
      <g transform="translate(137.909375 227.361761)scale(0.1 -0.1)">
       <use xlink:href="#DejaVuSans-42"/>
       <use x="68.603516" xlink:href="#DejaVuSans-6f"/>
       <use x="129.785156" xlink:href="#DejaVuSans-72"/>
      </g>
     </g>
    </g>
    <g id="ytick_7">
     <g id="line2d_47">
      <path clip-path="url(#pa01d4c155b)" d="M 162 97.789091 
L 1166.4 97.789091 
" style="fill:none;stroke:#b0b0b0;stroke-linecap:square;stroke-width:0.8;"/>
     </g>
     <g id="line2d_48">
      <g>
       <use style="stroke:#000000;stroke-width:0.8;" x="162" xlink:href="#m69f58c4d7c" y="97.789091"/>
      </g>
     </g>
     <g id="text_24">
      <!-- Техническая (Каринторф) -->
      <defs>
       <path d="M -0.296875 72.90625 
L 61.375 72.90625 
L 61.375 64.59375 
L 35.5 64.59375 
L 35.5 0 
L 25.59375 0 
L 25.59375 64.59375 
L -0.296875 64.59375 
z
" id="DejaVuSans-422"/>
       <path d="M 54.890625 54.6875 
L 35.109375 28.078125 
L 55.90625 0 
L 45.3125 0 
L 29.390625 21.484375 
L 13.484375 0 
L 2.875 0 
L 24.125 28.609375 
L 4.6875 54.6875 
L 15.28125 54.6875 
L 29.78125 35.203125 
L 44.28125 54.6875 
z
" id="DejaVuSans-445"/>
       <path d="M 18.453125 38.921875 
Q 18.453125 34.859375 21.578125 32.5625 
Q 24.703125 30.28125 30.515625 30.28125 
L 42.625 30.28125 
L 42.625 47.515625 
L 30.515625 47.515625 
Q 24.703125 47.515625 21.578125 45.265625 
Q 18.453125 43.015625 18.453125 38.921875 
z
M 5.671875 0 
L 22.359375 23.96875 
Q 16.703125 25.25 12.9375 28.59375 
Q 9.1875 31.9375 9.1875 38.921875 
Q 9.1875 46.828125 14.421875 50.75 
Q 19.671875 54.6875 30.28125 54.6875 
L 51.65625 54.6875 
L 51.65625 0 
L 42.625 0 
L 42.625 23.09375 
L 31.453125 23.09375 
L 15.328125 0 
z
" id="DejaVuSans-44f"/>
       <path d="M 14.796875 27.296875 
Q 14.796875 15.828125 18.328125 10.96875 
Q 21.875 6.109375 27.875 6.109375 
Q 32.671875 6.109375 38.234375 14.3125 
L 38.234375 40.28125 
Q 32.671875 48.484375 27.875 48.484375 
Q 21.875 48.484375 18.328125 43.625 
Q 14.796875 38.765625 14.796875 27.296875 
z
M 38.234375 -20.796875 
L 38.234375 6.984375 
Q 35.453125 2.390625 32.25 0.484375 
Q 29.046875 -1.421875 25 -1.421875 
Q 16.84375 -1.421875 11.15625 6.125 
Q 5.46875 13.671875 5.46875 27.09375 
Q 5.46875 40.53125 11.15625 48.265625 
Q 16.84375 56 25 56 
Q 29.046875 56 32.25 54.140625 
Q 35.453125 52.296875 38.234375 47.703125 
L 38.234375 72.90625 
L 47.265625 72.90625 
L 47.265625 47.703125 
Q 50.046875 52.296875 53.25 54.140625 
Q 56.453125 56 60.5 56 
Q 68.65625 56 74.34375 48.265625 
Q 80.03125 40.53125 80.03125 27.09375 
Q 80.03125 13.671875 74.34375 6.125 
Q 68.65625 -1.421875 60.5 -1.421875 
Q 56.453125 -1.421875 53.25 0.484375 
Q 50.046875 2.390625 47.265625 6.984375 
L 47.265625 -20.796875 
z
M 70.703125 27.296875 
Q 70.703125 38.765625 67.15625 43.625 
Q 63.625 48.484375 57.625 48.484375 
Q 52.828125 48.484375 47.265625 40.28125 
L 47.265625 14.3125 
Q 52.828125 6.109375 57.625 6.109375 
Q 63.625 6.109375 67.15625 10.96875 
Q 70.703125 15.828125 70.703125 27.296875 
z
" id="DejaVuSans-444"/>
      </defs>
      <g transform="translate(17.604687 95.989403)scale(0.1 -0.1)">
       <use xlink:href="#DejaVuSans-422"/>
       <use x="61.083984" xlink:href="#DejaVuSans-435"/>
       <use x="122.607422" xlink:href="#DejaVuSans-445"/>
       <use x="181.787109" xlink:href="#DejaVuSans-43d"/>
       <use x="247.167969" xlink:href="#DejaVuSans-438"/>
       <use x="312.158203" xlink:href="#DejaVuSans-447"/>
       <use x="371.240234" xlink:href="#DejaVuSans-435"/>
       <use x="432.763672" xlink:href="#DejaVuSans-441"/>
       <use x="487.744141" xlink:href="#DejaVuSans-43a"/>
       <use x="548.144531" xlink:href="#DejaVuSans-430"/>
       <use x="609.423828" xlink:href="#DejaVuSans-44f"/>
       <use x="669.580078" xlink:href="#DejaVuSans-20"/>
       <use x="701.367188" xlink:href="#DejaVuSans-28"/>
       <use x="740.380859" xlink:href="#DejaVuSans-41a"/>
       <use x="811.376953" xlink:href="#DejaVuSans-430"/>
       <use x="872.65625" xlink:href="#DejaVuSans-440"/>
       <use x="936.132812" xlink:href="#DejaVuSans-438"/>
       <use x="1001.123047" xlink:href="#DejaVuSans-43d"/>
       <use x="1066.503906" xlink:href="#DejaVuSans-442"/>
       <use x="1124.755859" xlink:href="#DejaVuSans-43e"/>
       <use x="1185.9375" xlink:href="#DejaVuSans-440"/>
       <use x="1249.414062" xlink:href="#DejaVuSans-444"/>
       <use x="1334.912109" xlink:href="#DejaVuSans-29"/>
      </g>
      <!-- Tehnicheskaja (Karintorf) -->
      <defs>
       <path d="M -0.296875 72.90625 
L 61.375 72.90625 
L 61.375 64.59375 
L 35.5 64.59375 
L 35.5 0 
L 25.59375 0 
L 25.59375 64.59375 
L -0.296875 64.59375 
z
" id="DejaVuSans-54"/>
       <path d="M 37.109375 75.984375 
L 37.109375 68.5 
L 28.515625 68.5 
Q 23.6875 68.5 21.796875 66.546875 
Q 19.921875 64.59375 19.921875 59.515625 
L 19.921875 54.6875 
L 34.71875 54.6875 
L 34.71875 47.703125 
L 19.921875 47.703125 
L 19.921875 0 
L 10.890625 0 
L 10.890625 47.703125 
L 2.296875 47.703125 
L 2.296875 54.6875 
L 10.890625 54.6875 
L 10.890625 58.5 
Q 10.890625 67.625 15.140625 71.796875 
Q 19.390625 75.984375 28.609375 75.984375 
z
" id="DejaVuSans-66"/>
      </defs>
      <g transform="translate(28.728125 107.187216)scale(0.1 -0.1)">
       <use xlink:href="#DejaVuSans-54"/>
       <use x="60.818359" xlink:href="#DejaVuSans-65"/>
       <use x="122.341797" xlink:href="#DejaVuSans-68"/>
       <use x="185.720703" xlink:href="#DejaVuSans-6e"/>
       <use x="249.099609" xlink:href="#DejaVuSans-69"/>
       <use x="276.882812" xlink:href="#DejaVuSans-63"/>
       <use x="331.863281" xlink:href="#DejaVuSans-68"/>
       <use x="395.242188" xlink:href="#DejaVuSans-65"/>
       <use x="456.765625" xlink:href="#DejaVuSans-73"/>
       <use x="508.865234" xlink:href="#DejaVuSans-6b"/>
       <use x="566.759766" xlink:href="#DejaVuSans-61"/>
       <use x="628.039062" xlink:href="#DejaVuSans-6a"/>
       <use x="655.822266" xlink:href="#DejaVuSans-61"/>
       <use x="717.101562" xlink:href="#DejaVuSans-20"/>
       <use x="748.888672" xlink:href="#DejaVuSans-28"/>
       <use x="787.902344" xlink:href="#DejaVuSans-4b"/>
       <use x="853.462891" xlink:href="#DejaVuSans-61"/>
       <use x="914.742188" xlink:href="#DejaVuSans-72"/>
       <use x="955.855469" xlink:href="#DejaVuSans-69"/>
       <use x="983.638672" xlink:href="#DejaVuSans-6e"/>
       <use x="1047.017578" xlink:href="#DejaVuSans-74"/>
       <use x="1086.226562" xlink:href="#DejaVuSans-6f"/>
       <use x="1147.408203" xlink:href="#DejaVuSans-72"/>
       <use x="1188.521484" xlink:href="#DejaVuSans-66"/>
       <use x="1223.726562" xlink:href="#DejaVuSans-29"/>
      </g>
     </g>
    </g>
   </g>
   <g id="line2d_49">
    <path clip-path="url(#pa01d4c155b)" d="M 935.797959 97.789091 
L 942.972245 217.963636 
L 950.146531 298.08 
L 960.39551 418.254545 
L 965.52 458.312727 
L 971.669388 498.370909 
" style="fill:none;stroke:#808080;stroke-linecap:square;stroke-width:1.5;"/>
   </g>
   <g id="line2d_50">
    <path clip-path="url(#pa01d4c155b)" d="M 823.059184 498.370909 
L 827.158776 458.312727 
L 832.283265 418.254545 
L 842.532245 298.08 
L 849.706531 217.963636 
L 864.055102 97.789091 
" style="fill:none;stroke:#808080;stroke-linecap:square;stroke-width:1.5;"/>
   </g>
   <g id="line2d_51">
    <path clip-path="url(#pa01d4c155b)" d="M 776.938776 97.789091 
L 784.113061 217.963636 
L 791.287347 298.08 
L 806.660816 418.254545 
L 811.785306 458.312727 
L 817.934694 498.370909 
" style="fill:none;stroke:#808080;stroke-linecap:square;stroke-width:1.5;"/>
   </g>
   <g id="line2d_52">
    <path clip-path="url(#pa01d4c155b)" d="M 167.12449 97.789091 
L 174.298775 217.963636 
L 181.473061 298.08 
L 196.846531 418.254545 
L 201.97102 458.312727 
L 208.120408 498.370909 
" style="fill:none;stroke:#808080;stroke-linecap:square;stroke-width:1.5;"/>
   </g>
   <g id="line2d_53">
    <path clip-path="url(#pa01d4c155b)" d="M 315.734694 97.789091 
L 322.90898 217.963636 
L 330.083265 298.08 
L 345.456735 418.254545 
L 350.581224 458.312727 
L 356.730612 498.370909 
" style="fill:none;stroke:#808080;stroke-linecap:square;stroke-width:1.5;"/>
   </g>
   <g id="line2d_54">
    <path clip-path="url(#pa01d4c155b)" d="M 259.365306 498.370909 
L 263.464898 458.312727 
L 268.589388 418.254545 
L 278.838367 298.08 
L 286.012653 217.963636 
L 300.361224 97.789091 
" style="fill:none;stroke:#808080;stroke-linecap:square;stroke-width:1.5;"/>
   </g>
   <g id="line2d_55">
    <path clip-path="url(#pa01d4c155b)" d="M 571.959183 97.789091 
L 579.133469 217.963636 
L 586.307755 298.08 
L 601.681225 418.254545 
L 606.805714 458.312727 
L 612.955102 498.370909 
" style="fill:none;stroke:#808080;stroke-linecap:square;stroke-width:1.5;"/>
   </g>
   <g id="line2d_56">
    <path clip-path="url(#pa01d4c155b)" d="M 392.602041 498.370909 
L 396.701633 458.312727 
L 401.826122 418.254545 
L 412.075102 298.08 
L 419.249388 217.963636 
L 433.597959 97.789091 
" style="fill:none;stroke:#808080;stroke-linecap:square;stroke-width:1.5;"/>
   </g>
   <g id="line2d_57">
    <path clip-path="url(#pa01d4c155b)" d="M 997.291837 498.370909 
L 1001.391428 458.312727 
L 1006.515918 418.254545 
L 1016.764898 298.08 
L 1023.939183 217.963636 
L 1038.287755 97.789091 
" style="fill:none;stroke:#808080;stroke-linecap:square;stroke-width:1.5;"/>
   </g>
   <g id="line2d_58">
    <path clip-path="url(#pa01d4c155b)" d="M 618.079592 498.370909 
L 622.179184 458.312727 
L 627.303674 418.254545 
L 637.552653 298.08 
L 644.726939 217.963636 
L 659.07551 97.789091 
" style="fill:none;stroke:#808080;stroke-linecap:square;stroke-width:1.5;"/>
   </g>
   <g id="patch_3">
    <path d="M 162 518.4 
L 162 77.76 
" style="fill:none;stroke:#000000;stroke-linecap:square;stroke-linejoin:miter;stroke-width:0.8;"/>
   </g>
   <g id="patch_4">
    <path d="M 1166.4 518.4 
L 1166.4 77.76 
" style="fill:none;stroke:#000000;stroke-linecap:square;stroke-linejoin:miter;stroke-width:0.8;"/>
   </g>
   <g id="patch_5">
    <path d="M 162 518.4 
L 1166.4 518.4 
" style="fill:none;stroke:#000000;stroke-linecap:square;stroke-linejoin:miter;stroke-width:0.8;"/>
   </g>
   <g id="patch_6">
    <path d="M 162 77.76 
L 1166.4 77.76 
" style="fill:none;stroke:#000000;stroke-linecap:square;stroke-linejoin:miter;stroke-width:0.8;"/>
   </g>
   <g id="text_25">
    <!-- Каринская УЖД. График движения поездов 2020 -->
    <defs>
     <path d="M 31.984375 8.84375 
Q 30.953125 6.390625 29.390625 4.546875 
Q 25.53125 0 13.28125 0 
L 9.515625 0 
L 9.515625 8.296875 
L 12.59375 8.296875 
Q 18.40625 8.296875 20.65625 9.625 
Q 22.015625 10.453125 22.90625 12.5 
L 25.09375 17.671875 
L 1.703125 72.90625 
L 12.3125 72.90625 
L 30.421875 30.125 
L 48.640625 72.90625 
L 59.234375 72.90625 
z
" id="DejaVuSans-423"/>
     <path d="M 48.921875 72.90625 
L 58.796875 72.90625 
L 58.796875 36.859375 
L 92.09375 72.90625 
L 104.046875 72.90625 
L 77.4375 44.140625 
L 105.765625 0 
L 95.453125 0 
L 71.390625 37.546875 
L 58.796875 23.921875 
L 58.796875 0 
L 48.921875 0 
L 48.921875 23.921875 
L 36.328125 37.546875 
L 12.25 0 
L 1.953125 0 
L 30.28125 44.140625 
L 3.65625 72.90625 
L 15.625 72.90625 
L 48.921875 36.859375 
z
" id="DejaVuSans-416"/>
     <path d="M 22.796875 8.296875 
L 55.03125 8.296875 
L 55.03125 64.59375 
L 31.34375 64.59375 
L 31.34375 54.25 
Q 31.34375 29.890625 25.875 13.71875 
Q 24.75 10.40625 22.796875 8.296875 
z
M 8.40625 8.296875 
Q 14.9375 11.375 16.796875 17.234375 
Q 21.53125 32.28125 21.53125 59.125 
L 21.53125 72.90625 
L 64.890625 72.90625 
L 64.890625 8.296875 
L 73.1875 8.296875 
L 73.1875 -15.671875 
L 64.890625 -15.671875 
L 64.890625 0 
L 13.234375 0 
L 13.234375 -15.671875 
L 4.9375 -15.671875 
L 4.9375 8.296875 
z
" id="DejaVuSans-414"/>
     <path d="M 10.6875 12.40625 
L 21 12.40625 
L 21 0 
L 10.6875 0 
z
" id="DejaVuSans-2e"/>
     <path d="M 9.8125 0 
L 9.8125 72.90625 
L 55.171875 72.90625 
L 55.171875 64.59375 
L 19.671875 64.59375 
L 19.671875 0 
z
" id="DejaVuSans-413"/>
     <path d="M 21.625 7.171875 
L 47.703125 7.171875 
L 47.703125 47.515625 
L 28.8125 47.515625 
L 28.8125 40.671875 
Q 28.8125 20.5625 23.046875 9.8125 
z
M 8.59375 7.171875 
Q 13.03125 9.125 14.984375 13.28125 
Q 19.78125 23.578125 19.78125 44.34375 
L 19.78125 54.6875 
L 56.734375 54.6875 
L 56.734375 7.171875 
L 63.921875 7.171875 
L 63.921875 -13.8125 
L 56.734375 -13.8125 
L 56.734375 0 
L 12.40625 0 
L 12.40625 -13.8125 
L 5.21875 -13.8125 
L 5.21875 7.171875 
z
" id="DejaVuSans-434"/>
    </defs>
    <g transform="translate(507.162188 58.322625)scale(0.12 -0.12)">
     <use xlink:href="#DejaVuSans-41a"/>
     <use x="70.996094" xlink:href="#DejaVuSans-430"/>
     <use x="132.275391" xlink:href="#DejaVuSans-440"/>
     <use x="195.751953" xlink:href="#DejaVuSans-438"/>
     <use x="260.742188" xlink:href="#DejaVuSans-43d"/>
     <use x="326.123047" xlink:href="#DejaVuSans-441"/>
     <use x="381.103516" xlink:href="#DejaVuSans-43a"/>
     <use x="441.503906" xlink:href="#DejaVuSans-430"/>
     <use x="502.783203" xlink:href="#DejaVuSans-44f"/>
     <use x="562.939453" xlink:href="#DejaVuSans-20"/>
     <use x="594.726562" xlink:href="#DejaVuSans-423"/>
     <use x="655.664062" xlink:href="#DejaVuSans-416"/>
     <use x="763.378906" xlink:href="#DejaVuSans-414"/>
     <use x="841.503906" xlink:href="#DejaVuSans-2e"/>
     <use x="873.291016" xlink:href="#DejaVuSans-20"/>
     <use x="905.078125" xlink:href="#DejaVuSans-413"/>
     <use x="966.064453" xlink:href="#DejaVuSans-440"/>
     <use x="1029.541016" xlink:href="#DejaVuSans-430"/>
     <use x="1090.820312" xlink:href="#DejaVuSans-444"/>
     <use x="1176.318359" xlink:href="#DejaVuSans-438"/>
     <use x="1241.308594" xlink:href="#DejaVuSans-43a"/>
     <use x="1301.708984" xlink:href="#DejaVuSans-20"/>
     <use x="1333.496094" xlink:href="#DejaVuSans-434"/>
     <use x="1402.636719" xlink:href="#DejaVuSans-432"/>
     <use x="1461.572266" xlink:href="#DejaVuSans-438"/>
     <use x="1526.5625" xlink:href="#DejaVuSans-436"/>
     <use x="1616.650391" xlink:href="#DejaVuSans-435"/>
     <use x="1678.173828" xlink:href="#DejaVuSans-43d"/>
     <use x="1743.554688" xlink:href="#DejaVuSans-438"/>
     <use x="1808.544922" xlink:href="#DejaVuSans-44f"/>
     <use x="1868.701172" xlink:href="#DejaVuSans-20"/>
     <use x="1900.488281" xlink:href="#DejaVuSans-43f"/>
     <use x="1965.869141" xlink:href="#DejaVuSans-43e"/>
     <use x="2027.050781" xlink:href="#DejaVuSans-435"/>
     <use x="2088.574219" xlink:href="#DejaVuSans-437"/>
     <use x="2141.748047" xlink:href="#DejaVuSans-434"/>
     <use x="2210.888672" xlink:href="#DejaVuSans-43e"/>
     <use x="2272.070312" xlink:href="#DejaVuSans-432"/>
     <use x="2331.005859" xlink:href="#DejaVuSans-20"/>
     <use x="2362.792969" xlink:href="#DejaVuSans-32"/>
     <use x="2426.416016" xlink:href="#DejaVuSans-30"/>
     <use x="2490.039062" xlink:href="#DejaVuSans-32"/>
     <use x="2553.662109" xlink:href="#DejaVuSans-30"/>
    </g>
    <!-- Karinskaya railway. Train diagram 2020 -->
    <defs>
     <path d="M 9.421875 75.984375 
L 18.40625 75.984375 
L 18.40625 0 
L 9.421875 0 
z
" id="DejaVuSans-6c"/>
     <path d="M 4.203125 54.6875 
L 13.1875 54.6875 
L 24.421875 12.015625 
L 35.59375 54.6875 
L 46.1875 54.6875 
L 57.421875 12.015625 
L 68.609375 54.6875 
L 77.59375 54.6875 
L 63.28125 0 
L 52.6875 0 
L 40.921875 44.828125 
L 29.109375 0 
L 18.5 0 
z
" id="DejaVuSans-77"/>
     <path d="M 45.40625 46.390625 
L 45.40625 75.984375 
L 54.390625 75.984375 
L 54.390625 0 
L 45.40625 0 
L 45.40625 8.203125 
Q 42.578125 3.328125 38.25 0.953125 
Q 33.9375 -1.421875 27.875 -1.421875 
Q 17.96875 -1.421875 11.734375 6.484375 
Q 5.515625 14.40625 5.515625 27.296875 
Q 5.515625 40.1875 11.734375 48.09375 
Q 17.96875 56 27.875 56 
Q 33.9375 56 38.25 53.625 
Q 42.578125 51.265625 45.40625 46.390625 
z
M 14.796875 27.296875 
Q 14.796875 17.390625 18.875 11.75 
Q 22.953125 6.109375 30.078125 6.109375 
Q 37.203125 6.109375 41.296875 11.75 
Q 45.40625 17.390625 45.40625 27.296875 
Q 45.40625 37.203125 41.296875 42.84375 
Q 37.203125 48.484375 30.078125 48.484375 
Q 22.953125 48.484375 18.875 42.84375 
Q 14.796875 37.203125 14.796875 27.296875 
z
" id="DejaVuSans-64"/>
     <path d="M 45.40625 27.984375 
Q 45.40625 37.75 41.375 43.109375 
Q 37.359375 48.484375 30.078125 48.484375 
Q 22.859375 48.484375 18.828125 43.109375 
Q 14.796875 37.75 14.796875 27.984375 
Q 14.796875 18.265625 18.828125 12.890625 
Q 22.859375 7.515625 30.078125 7.515625 
Q 37.359375 7.515625 41.375 12.890625 
Q 45.40625 18.265625 45.40625 27.984375 
z
M 54.390625 6.78125 
Q 54.390625 -7.171875 48.1875 -13.984375 
Q 42 -20.796875 29.203125 -20.796875 
Q 24.46875 -20.796875 20.265625 -20.09375 
Q 16.0625 -19.390625 12.109375 -17.921875 
L 12.109375 -9.1875 
Q 16.0625 -11.328125 19.921875 -12.34375 
Q 23.78125 -13.375 27.78125 -13.375 
Q 36.625 -13.375 41.015625 -8.765625 
Q 45.40625 -4.15625 45.40625 5.171875 
L 45.40625 9.625 
Q 42.625 4.78125 38.28125 2.390625 
Q 33.9375 0 27.875 0 
Q 17.828125 0 11.671875 7.65625 
Q 5.515625 15.328125 5.515625 27.984375 
Q 5.515625 40.671875 11.671875 48.328125 
Q 17.828125 56 27.875 56 
Q 33.9375 56 38.28125 53.609375 
Q 42.625 51.21875 45.40625 46.390625 
L 45.40625 54.6875 
L 54.390625 54.6875 
z
" id="DejaVuSans-67"/>
    </defs>
    <g transform="translate(544.531875 71.76)scale(0.12 -0.12)">
     <use xlink:href="#DejaVuSans-4b"/>
     <use x="65.560547" xlink:href="#DejaVuSans-61"/>
     <use x="126.839844" xlink:href="#DejaVuSans-72"/>
     <use x="167.953125" xlink:href="#DejaVuSans-69"/>
     <use x="195.736328" xlink:href="#DejaVuSans-6e"/>
     <use x="259.115234" xlink:href="#DejaVuSans-73"/>
     <use x="311.214844" xlink:href="#DejaVuSans-6b"/>
     <use x="369.109375" xlink:href="#DejaVuSans-61"/>
     <use x="430.388672" xlink:href="#DejaVuSans-79"/>
     <use x="489.568359" xlink:href="#DejaVuSans-61"/>
     <use x="550.847656" xlink:href="#DejaVuSans-20"/>
     <use x="582.634766" xlink:href="#DejaVuSans-72"/>
     <use x="623.748047" xlink:href="#DejaVuSans-61"/>
     <use x="685.027344" xlink:href="#DejaVuSans-69"/>
     <use x="712.810547" xlink:href="#DejaVuSans-6c"/>
     <use x="740.59375" xlink:href="#DejaVuSans-77"/>
     <use x="822.380859" xlink:href="#DejaVuSans-61"/>
     <use x="883.660156" xlink:href="#DejaVuSans-79"/>
     <use x="942.621094" xlink:href="#DejaVuSans-2e"/>
     <use x="974.408203" xlink:href="#DejaVuSans-20"/>
     <use x="1006.195312" xlink:href="#DejaVuSans-54"/>
     <use x="1067.060547" xlink:href="#DejaVuSans-72"/>
     <use x="1108.173828" xlink:href="#DejaVuSans-61"/>
     <use x="1169.453125" xlink:href="#DejaVuSans-69"/>
     <use x="1197.236328" xlink:href="#DejaVuSans-6e"/>
     <use x="1260.615234" xlink:href="#DejaVuSans-20"/>
     <use x="1292.402344" xlink:href="#DejaVuSans-64"/>
     <use x="1355.878906" xlink:href="#DejaVuSans-69"/>
     <use x="1383.662109" xlink:href="#DejaVuSans-61"/>
     <use x="1444.941406" xlink:href="#DejaVuSans-67"/>
     <use x="1508.417969" xlink:href="#DejaVuSans-72"/>
     <use x="1549.53125" xlink:href="#DejaVuSans-61"/>
     <use x="1610.810547" xlink:href="#DejaVuSans-6d"/>
     <use x="1708.222656" xlink:href="#DejaVuSans-20"/>
     <use x="1740.009766" xlink:href="#DejaVuSans-32"/>
     <use x="1803.632812" xlink:href="#DejaVuSans-30"/>
     <use x="1867.255859" xlink:href="#DejaVuSans-32"/>
     <use x="1930.878906" xlink:href="#DejaVuSans-30"/>
    </g>
   </g>
  </g>
 </g>
 <defs>
  <clipPath id="pa01d4c155b">
   <rect height="440.64" width="1004.4" x="162" y="77.76"/>
  </clipPath>
 </defs>
</svg>
